<?xml version="1.0" encoding="UTF-8"?>
<!DOCTYPE svg PUBLIC "-//W3C//DTD SVG 1.1//EN" "http://www.w3.org/Graphics/SVG/1.1/DTD/svg11.dtd">
<!-- Creator: CorelDRAW 2017 -->
<svg xmlns="http://www.w3.org/2000/svg" xml:space="preserve" width="250px" height="149px" version="1.1" style="shape-rendering:geometricPrecision; text-rendering:geometricPrecision; image-rendering:optimizeQuality; fill-rule:evenodd; clip-rule:evenodd"
viewBox="0 0 86.96 51.61"
 xmlns:xlink="http://www.w3.org/1999/xlink">
 <defs>
  <style type="text/css">
   <![CDATA[
    .fil6 {fill:#00D8FF}
    .fil2 {fill:#35495E}
    .fil1 {fill:#41B883}
    .fil4 {fill:#C3002F}
    .fil3 {fill:#DD0031}
    .fil0 {fill:#E42E16}
    .fil5 {fill:white}
    .fil7 {fill:#00D8FF;fill-rule:nonzero}
   ]]>
  </style>
 </defs>
 <g id="Layer_x0020_1">
  <metadata id="CorelCorpID_0Corel-Layer"/>
  <g id="_2599777047904">
   <g>
    <path class="fil0" d="M50.27 35.93c0.21,-0.37 0.53,-0.68 0.94,-0.8 0.19,0 0.38,0 0.57,0 0.25,0.12 0.48,0.3 0.62,0.55 0.11,0.25 0.05,0.51 -0.01,0.76 -0.07,0.15 -0.13,0.31 -0.18,0.47 -0.05,0.09 -0.09,0.19 -0.12,0.29 -0.04,0.1 -0.08,0.2 -0.12,0.3 -0.04,0.09 -0.08,0.19 -0.12,0.29 -0.04,0.1 -0.08,0.19 -0.11,0.29 -0.04,0.1 -0.08,0.2 -0.12,0.3 -0.04,0.09 -0.08,0.19 -0.12,0.29 -0.04,0.1 -0.08,0.19 -0.11,0.29 -0.05,0.1 -0.09,0.2 -0.12,0.29 -0.04,0.1 -0.08,0.2 -0.12,0.3 -0.04,0.09 -0.08,0.19 -0.12,0.29 -0.04,0.1 -0.08,0.2 -0.11,0.29 -0.05,0.1 -0.08,0.2 -0.12,0.3 -0.04,0.09 -0.08,0.19 -0.12,0.29 -0.04,0.1 -0.08,0.2 -0.12,0.29 -0.04,0.1 -0.08,0.2 -0.11,0.3 -0.04,0.09 -0.08,0.19 -0.12,0.29 -0.04,0.1 -0.08,0.19 -0.12,0.29 -0.04,0.1 -0.08,0.2 -0.12,0.3 -0.02,0.06 -0.04,0.12 -0.06,0.18 0.74,-0.55 1.47,-1.13 2.23,-1.65 0.08,-0.04 0.16,-0.09 0.23,-0.13 0.26,-0.1 0.55,-0.08 0.82,-0.07 0.19,0.12 0.38,0.25 0.49,0.44 0.14,0.37 0.08,0.79 -0.16,1.09 -0.15,0.19 -0.33,0.35 -0.5,0.5 -0.09,0.06 -0.17,0.12 -0.24,0.18 -0.41,0.27 -0.79,0.58 -1.18,0.87 0.06,0.1 0.13,0.2 0.19,0.3 0.04,0.06 0.08,0.12 0.12,0.18 0.09,0.16 0.19,0.31 0.29,0.46 0.13,0.23 0.27,0.44 0.41,0.65 0.06,0.1 0.12,0.2 0.18,0.29 0.04,0.06 0.08,0.12 0.12,0.18 0.11,0.21 0.24,0.42 0.3,0.65 0.04,0.17 -0.03,0.34 -0.06,0.51 -0.18,0.28 -0.41,0.54 -0.72,0.67 -0.22,0.07 -0.43,0.08 -0.64,0 -0.13,-0.09 -0.27,-0.18 -0.35,-0.32 -0.3,-0.45 -0.6,-0.9 -0.89,-1.34 -0.04,-0.06 -0.08,-0.12 -0.12,-0.18 -0.04,-0.06 -0.08,-0.12 -0.12,-0.18 -0.04,-0.06 -0.08,-0.11 -0.11,-0.17 -0.04,-0.06 -0.08,-0.12 -0.12,-0.18 -0.25,-0.43 -0.56,-0.83 -0.81,-1.25 0.01,0.02 0.02,0.05 0.02,0.07 -0.05,0.1 -0.1,0.2 -0.14,0.3 -0.04,0.1 -0.08,0.19 -0.11,0.29 -0.04,0.1 -0.08,0.2 -0.12,0.3 -0.04,0.09 -0.08,0.19 -0.12,0.29 -0.04,0.1 -0.08,0.19 -0.11,0.29 -0.21,0.5 -0.38,1.01 -0.65,1.48 -0.22,0.24 -0.44,0.52 -0.77,0.6 -0.15,0.02 -0.3,0.1 -0.45,0.06 -0.12,-0.03 -0.24,-0.05 -0.36,-0.07 -0.18,-0.15 -0.39,-0.3 -0.46,-0.54 -0.14,-0.33 0.05,-0.67 0.14,-0.99 0.05,-0.09 0.09,-0.19 0.12,-0.29 0.05,-0.1 0.09,-0.19 0.12,-0.29 0.04,-0.1 0.08,-0.2 0.12,-0.3 0.04,-0.09 0.08,-0.19 0.12,-0.29 0.04,-0.1 0.08,-0.19 0.11,-0.29 0.04,-0.1 0.08,-0.2 0.12,-0.29 0.04,-0.1 0.08,-0.2 0.12,-0.3 0.04,-0.1 0.08,-0.19 0.11,-0.29 0.05,-0.1 0.09,-0.2 0.12,-0.29 0.04,-0.1 0.08,-0.2 0.12,-0.3 0.04,-0.09 0.08,-0.19 0.12,-0.29 0.04,-0.1 0.08,-0.2 0.11,-0.29 0.04,-0.1 0.08,-0.2 0.12,-0.3 0.04,-0.09 0.08,-0.19 0.12,-0.29 0.04,-0.1 0.08,-0.19 0.12,-0.29 0.04,-0.1 0.08,-0.2 0.11,-0.3 0.04,-0.09 0.08,-0.19 0.12,-0.29 0.04,-0.1 0.08,-0.2 0.12,-0.29 0.04,-0.1 0.08,-0.2 0.11,-0.3 0.05,-0.09 0.09,-0.19 0.12,-0.29 0.04,-0.1 0.08,-0.19 0.12,-0.29 0.04,-0.1 0.08,-0.2 0.12,-0.3 0.04,-0.09 0.08,-0.19 0.11,-0.29 0.04,-0.1 0.08,-0.19 0.12,-0.29 0.08,-0.2 0.16,-0.39 0.23,-0.59 0.05,-0.1 0.09,-0.19 0.12,-0.29 0.04,-0.1 0.08,-0.2 0.12,-0.3 0.04,-0.09 0.08,-0.19 0.12,-0.29 0.04,-0.1 0.08,-0.19 0.11,-0.29 0.04,-0.1 0.08,-0.2 0.12,-0.3 0.04,-0.09 0.08,-0.19 0.12,-0.29 0.09,-0.21 0.17,-0.42 0.25,-0.64zm-36.36 0.68c0.68,-0.24 1.4,-0.22 2.11,-0.18 0.11,0.02 0.23,0.05 0.34,0.06 0.39,0.12 0.77,0.27 1.12,0.47 0.44,0.33 0.84,0.72 1.11,1.2 0.07,0.17 0.14,0.35 0.2,0.52 0.1,0.4 0.09,0.82 0.08,1.23 -0.04,0.46 -0.18,0.9 -0.31,1.34 -0.07,0.15 -0.13,0.31 -0.18,0.47 -0.09,0.18 -0.16,0.38 -0.26,0.56 0.18,-0.24 0.41,-0.44 0.61,-0.66 0.33,-0.39 0.71,-0.73 1.05,-1.11 0.41,-0.49 0.9,-0.9 1.31,-1.4 0.73,-0.71 1.39,-1.5 2.14,-2.2 0.12,-0.08 0.24,-0.16 0.36,-0.24 0.3,-0.17 0.65,-0.16 0.98,-0.13 0.27,0.13 0.52,0.32 0.63,0.6 0.1,0.22 0.05,0.47 0.05,0.7 -0.08,0.16 -0.16,0.32 -0.25,0.48 -0.04,0.06 -0.08,0.12 -0.12,0.18 -0.24,0.25 -0.45,0.53 -0.7,0.77 -0.29,0.3 -0.59,0.58 -0.86,0.9 -0.39,0.43 -0.82,0.82 -1.2,1.26 -0.29,0.31 -0.6,0.61 -0.89,0.93 -0.32,0.38 -0.69,0.71 -1.03,1.07 0.04,0.08 0.08,0.16 0.11,0.24 0.07,0.21 0.14,0.43 0.24,0.64 0.07,0.22 0.14,0.44 0.23,0.65 0.08,0.21 0.14,0.43 0.24,0.64 0.07,0.22 0.14,0.44 0.23,0.65 0.07,0.21 0.14,0.43 0.24,0.64 0.07,0.22 0.14,0.44 0.23,0.65 0.05,0.16 0.11,0.32 0.18,0.47 0.01,0.03 0.02,0.08 0.03,0.11 0.07,0.17 0.12,0.36 0.2,0.53 0.03,0.08 0.06,0.16 0.1,0.23 0.19,0.3 0.55,0.43 0.89,0.44 17.33,0 34.67,0 52.01,0 0.15,0 0.3,0.05 0.46,0.07 0.12,0.06 0.24,0.12 0.37,0.18 0.1,0.11 0.17,0.24 0.25,0.37 0.01,0.23 0.01,0.45 -0.01,0.68 -0.02,0.06 -0.05,0.13 -0.07,0.19 -0.14,0.25 -0.35,0.45 -0.6,0.6 -0.25,0.08 -0.49,0.19 -0.76,0.2 -17.51,0 -35.02,0 -52.54,0 -0.21,0 -0.41,-0.08 -0.62,-0.07 -0.22,-0.08 -0.45,-0.14 -0.65,-0.27 -0.25,-0.15 -0.39,-0.41 -0.55,-0.64 -0.07,-0.14 -0.15,-0.28 -0.21,-0.42 -0.05,-0.12 -0.1,-0.23 -0.15,-0.35 -0.01,-0.02 -0.02,-0.08 -0.03,-0.1 -0.12,-0.34 -0.24,-0.68 -0.37,-1.01 -0.08,-0.22 -0.14,-0.44 -0.25,-0.65 0,-0.02 -0.01,-0.07 -0.02,-0.1 -0.07,-0.18 -0.12,-0.36 -0.2,-0.54 -0.06,-0.16 -0.11,-0.31 -0.18,-0.47 -0.07,-0.21 -0.14,-0.43 -0.24,-0.64 -0.07,-0.22 -0.14,-0.44 -0.23,-0.65 -0.05,-0.16 -0.11,-0.32 -0.18,-0.47 -0.01,-0.02 -0.02,-0.08 -0.03,-0.1 -0.07,-0.18 -0.12,-0.37 -0.2,-0.54 -0.05,-0.16 -0.11,-0.32 -0.18,-0.47 -0.08,-0.26 -0.17,-0.51 -0.27,-0.75 -0.02,0.07 -0.03,0.15 -0.05,0.22 -0.05,0.1 -0.09,0.2 -0.13,0.3 -0.04,0.09 -0.08,0.19 -0.11,0.29 -0.04,0.1 -0.08,0.19 -0.12,0.29 -0.04,0.1 -0.08,0.2 -0.12,0.3 -0.04,0.09 -0.08,0.19 -0.11,0.29 -0.05,0.1 -0.09,0.19 -0.12,0.29 -0.11,0.23 -0.2,0.47 -0.29,0.71 -0.04,0.09 -0.08,0.19 -0.12,0.29 -0.04,0.1 -0.08,0.19 -0.12,0.29 -0.04,0.1 -0.08,0.2 -0.11,0.3 -0.05,0.09 -0.09,0.19 -0.12,0.29 -0.04,0.1 -0.08,0.19 -0.12,0.29 -0.04,0.1 -0.08,0.2 -0.12,0.3 -0.05,0.11 -0.09,0.23 -0.14,0.34 -0.04,0.08 -0.07,0.16 -0.11,0.24 -0.19,0.3 -0.4,0.59 -0.7,0.78 -0.03,0.02 -0.09,0.05 -0.11,0.07 -0.23,0.06 -0.46,0.16 -0.7,0.12 -0.1,-0.02 -0.2,-0.05 -0.3,-0.06 -0.18,-0.1 -0.34,-0.22 -0.48,-0.37 -0.04,-0.08 -0.09,-0.17 -0.13,-0.25 -0.06,-0.4 0.02,-0.79 0.19,-1.15 0.04,-0.1 0.08,-0.2 0.12,-0.3 0.04,-0.09 0.08,-0.19 0.12,-0.29 0.04,-0.1 0.08,-0.19 0.11,-0.29 0.04,-0.1 0.09,-0.2 0.12,-0.3 0.04,-0.09 0.08,-0.19 0.12,-0.29 0.04,-0.1 0.08,-0.19 0.12,-0.29 0.04,-0.1 0.08,-0.2 0.11,-0.29 0.04,-0.1 0.08,-0.2 0.12,-0.3 0.04,-0.09 0.08,-0.19 0.12,-0.29 0.15,-0.33 0.27,-0.66 0.41,-1 0.04,-0.1 0.08,-0.19 0.11,-0.29 0.05,-0.1 0.09,-0.2 0.12,-0.3 0.04,-0.09 0.08,-0.19 0.12,-0.29 0.04,-0.09 0.08,-0.19 0.12,-0.29 0.04,-0.1 0.08,-0.2 0.11,-0.29 0.05,-0.1 0.09,-0.2 0.12,-0.3 0.04,-0.09 0.08,-0.19 0.12,-0.29 0.04,-0.1 0.08,-0.19 0.12,-0.29 0.17,-0.41 0.32,-0.82 0.43,-1.24 0.08,-0.31 0.13,-0.65 0.01,-0.96 -0.18,-0.32 -0.49,-0.55 -0.85,-0.64 -0.38,-0.05 -0.77,-0.02 -1.12,0.13 -0.08,0.04 -0.16,0.08 -0.23,0.12 -0.61,0.38 -1.13,0.97 -1.28,1.69 -0.05,0.17 -0.03,0.35 -0.06,0.52 0.02,0.24 0.03,0.47 0.15,0.68 0.17,0.28 0.42,0.51 0.71,0.65 0.12,0.05 0.24,0.1 0.37,0.14 0.18,0.09 0.34,0.21 0.48,0.36 0.02,0.03 0.04,0.1 0.06,0.13 0.02,0.06 0.04,0.12 0.07,0.18 0.09,0.56 -0.29,1.08 -0.79,1.3 -0.45,0.13 -0.94,0.11 -1.39,-0.01 -0.1,-0.04 -0.2,-0.08 -0.3,-0.12 -0.1,-0.06 -0.2,-0.12 -0.3,-0.18 -0.46,-0.31 -0.79,-0.76 -1.07,-1.24 -0.06,-0.14 -0.11,-0.28 -0.18,-0.42 -0.15,-0.54 -0.22,-1.1 -0.18,-1.67 0.08,-0.43 0.14,-0.88 0.3,-1.3 0.06,-0.14 0.12,-0.28 0.18,-0.42 0.08,-0.13 0.16,-0.27 0.24,-0.41 0.08,-0.11 0.16,-0.23 0.23,-0.35 0.39,-0.49 0.84,-0.94 1.36,-1.3 0.06,-0.04 0.12,-0.08 0.18,-0.12 0.23,-0.12 0.47,-0.24 0.7,-0.35 0.12,-0.04 0.24,-0.08 0.35,-0.12zm59.7 1.6c0.29,-0.12 0.61,-0.11 0.92,-0.09 0.19,0.09 0.35,0.22 0.49,0.38 0.01,0.03 0.04,0.09 0.05,0.12 0.03,0.07 0.05,0.13 0.08,0.19 0.02,0.19 -0.02,0.38 -0.07,0.56 -0.04,0.12 -0.08,0.24 -0.12,0.36 -0.09,0.19 -0.19,0.38 -0.26,0.58 -0.03,0.06 -0.07,0.11 -0.1,0.17 0.25,0.04 0.49,0.03 0.74,0.05 0.06,0.02 0.13,0.05 0.19,0.07 0.16,0.1 0.34,0.22 0.39,0.41 0.11,0.25 0.04,0.53 -0.02,0.78 -0.14,0.33 -0.46,0.52 -0.78,0.66 -0.43,0.1 -0.87,0.06 -1.3,0.07 -0.01,0.03 -0.02,0.1 -0.02,0.13 -0.05,0.1 -0.1,0.2 -0.13,0.3 -0.05,0.1 -0.08,0.19 -0.12,0.29 -0.04,0.1 -0.08,0.2 -0.12,0.29 -0.04,0.1 -0.08,0.2 -0.12,0.3 -0.04,0.09 -0.08,0.19 -0.11,0.29 -0.04,0.1 -0.08,0.2 -0.12,0.3 -0.04,0.09 -0.08,0.19 -0.12,0.29 -0.04,0.09 -0.08,0.19 -0.11,0.29 -0.05,0.1 -0.09,0.2 -0.12,0.31 -0.02,0.02 -0.06,0.06 -0.08,0.08 0.51,0.02 1.03,-0.05 1.53,0.07 0.12,0.06 0.24,0.12 0.36,0.18 0.07,0.1 0.13,0.21 0.2,0.31 0,0.24 0.04,0.49 -0.05,0.71 -0.05,0.12 -0.13,0.23 -0.2,0.34 -0.16,0.12 -0.31,0.23 -0.48,0.31 -0.5,0.14 -1.01,0.07 -1.52,0.09 -0.51,-0.02 -1.03,0.05 -1.53,-0.09 -0.31,-0.13 -0.58,-0.35 -0.72,-0.66 -0.03,-0.24 -0.13,-0.49 -0.03,-0.74 0.05,-0.27 0.17,-0.52 0.27,-0.78 0.04,-0.09 0.08,-0.19 0.12,-0.29 0.04,-0.1 0.08,-0.2 0.12,-0.29 0.04,-0.1 0.08,-0.2 0.11,-0.3 0.04,-0.09 0.08,-0.19 0.12,-0.29 0.04,-0.1 0.08,-0.19 0.12,-0.29 0.16,-0.38 0.29,-0.78 0.47,-1.15 -0.39,0.02 -0.87,-0.06 -1.07,-0.45 -0.02,-0.15 -0.09,-0.3 -0.06,-0.45 0.02,-0.12 0.05,-0.24 0.06,-0.36 0.15,-0.32 0.42,-0.53 0.73,-0.67 0.34,-0.1 0.69,-0.07 1.04,-0.09 0.2,-0.07 0.2,-0.36 0.29,-0.53 0.05,-0.09 0.08,-0.19 0.12,-0.29 0.04,-0.1 0.08,-0.19 0.12,-0.29 0.04,-0.1 0.08,-0.2 0.11,-0.3 0.06,-0.12 0.12,-0.24 0.18,-0.35 0.16,-0.2 0.34,-0.38 0.55,-0.53zm-45.33 2.2c0.28,-0.03 0.57,-0.01 0.86,0 0.24,0.09 0.49,0.17 0.72,0.31 0.23,0.2 0.46,0.43 0.6,0.71 0.07,0.27 0.16,0.54 0.13,0.83 -0.04,0.32 -0.14,0.62 -0.25,0.92 -0.32,0.73 -0.6,1.47 -0.89,2.21 0.53,0.01 1.06,-0.05 1.58,0.07 0.19,0.08 0.35,0.21 0.49,0.37 0.12,0.3 0.07,0.63 -0.02,0.93 -0.15,0.19 -0.32,0.36 -0.53,0.49 -0.13,0.04 -0.25,0.08 -0.36,0.13 -0.93,0.03 -1.86,0.02 -2.79,0 -0.2,-0.1 -0.41,-0.19 -0.57,-0.35 -0.12,-0.13 -0.2,-0.29 -0.29,-0.44 -0.01,-0.13 -0.02,-0.26 -0.05,-0.38 0.04,-0.12 0.05,-0.25 0.05,-0.38 0.01,-0.01 0.03,-0.04 0.04,-0.05 0.03,-0.1 0.06,-0.2 0.09,-0.3 0.08,-0.19 0.16,-0.39 0.24,-0.58 0.04,-0.1 0.08,-0.2 0.11,-0.3 0.05,-0.09 0.09,-0.19 0.12,-0.29 0.04,-0.09 0.08,-0.19 0.12,-0.29 0.04,-0.1 0.08,-0.2 0.12,-0.29 0.04,-0.1 0.08,-0.2 0.11,-0.3 0.13,-0.24 0.19,-0.5 0.16,-0.78 -0.09,-0.09 -0.2,-0.18 -0.31,-0.25 -0.09,0 -0.17,-0.01 -0.25,-0.02 -0.48,-0.04 -0.85,0.32 -1.11,0.69 -0.07,0.11 -0.13,0.22 -0.19,0.34 -0.46,1.04 -0.86,2.11 -1.29,3.17 -0.07,0.12 -0.15,0.24 -0.21,0.36 -0.2,0.24 -0.43,0.44 -0.72,0.55 -0.1,0.01 -0.21,0.03 -0.31,0.06 -0.15,0.04 -0.3,-0.04 -0.45,-0.06 -0.19,-0.08 -0.35,-0.21 -0.48,-0.37 -0.02,-0.03 -0.05,-0.09 -0.07,-0.13 -0.05,-0.33 -0.01,-0.67 0.13,-0.98 0.04,-0.09 0.08,-0.19 0.12,-0.29 0.04,-0.1 0.08,-0.2 0.12,-0.29 0.04,-0.1 0.08,-0.2 0.11,-0.3 0.05,-0.09 0.09,-0.19 0.12,-0.29 0.04,-0.1 0.08,-0.2 0.12,-0.29 0.04,-0.1 0.08,-0.2 0.12,-0.3 0.04,-0.09 0.08,-0.19 0.11,-0.29 0.36,-0.88 0.71,-1.76 1.06,-2.64 0.04,-0.08 0.07,-0.16 0.11,-0.24 0.16,-0.25 0.4,-0.43 0.67,-0.55 0.31,-0.02 0.63,-0.06 0.93,0.06 0.19,0.12 0.34,0.29 0.46,0.48 0.08,-0.06 0.16,-0.12 0.25,-0.17 0.16,-0.09 0.31,-0.19 0.47,-0.28 0.23,-0.08 0.46,-0.17 0.7,-0.21zm6.75 0.07c0.46,-0.11 0.93,-0.09 1.4,-0.07 0.26,0.03 0.51,0.1 0.75,0.19 0.26,0.11 0.49,0.26 0.71,0.41 0.14,0.14 0.28,0.28 0.42,0.42 0.08,0.12 0.16,0.24 0.24,0.36 0.06,0.11 0.12,0.23 0.18,0.35 0.08,0.25 0.14,0.51 0.18,0.76 0.02,0.24 0.01,0.47 0.01,0.7 0.02,0.3 -0.1,0.58 -0.13,0.87 -0.07,0.18 -0.13,0.35 -0.18,0.53 -0.29,0.67 -0.69,1.3 -1.24,1.77 -0.33,0.24 -0.68,0.43 -1.07,0.54 -0.68,0.12 -1.37,0.08 -2.05,0.07 -0.47,-0.05 -0.96,-0.13 -1.34,-0.43 -0.36,-0.31 -0.65,-0.69 -0.84,-1.13 -0.02,-0.06 -0.04,-0.12 -0.06,-0.17 -0.21,-0.79 -0.17,-1.62 0.06,-2.39 0.05,-0.1 0.09,-0.2 0.12,-0.3 0.08,-0.16 0.15,-0.32 0.24,-0.47 0.33,-0.55 0.79,-1.03 1.3,-1.42 0.06,-0.04 0.12,-0.08 0.18,-0.12 0.19,-0.1 0.39,-0.2 0.58,-0.3 0.18,-0.05 0.36,-0.11 0.54,-0.17zm6.57 0.26c0.37,-0.15 0.75,-0.31 1.15,-0.34 0.48,-0.01 0.96,-0.04 1.41,0.13 0.36,0.16 0.69,0.37 0.95,0.66 0.43,0.57 0.54,1.32 0.36,1.99 -0.04,0.1 -0.09,0.2 -0.12,0.29 -0.04,0.07 -0.08,0.13 -0.12,0.19 -0.08,0.08 -0.16,0.16 -0.24,0.25 -0.08,0.04 -0.16,0.08 -0.24,0.12 -0.39,0.15 -0.87,0.08 -1.14,-0.25 -0.12,-0.26 -0.05,-0.55 -0.09,-0.82 -0.02,-0.1 -0.03,-0.21 -0.04,-0.31 -0.07,-0.15 -0.18,-0.29 -0.35,-0.31 -0.23,0 -0.47,-0.03 -0.67,0.1 -0.28,0.13 -0.46,0.38 -0.64,0.63 -0.04,0.07 -0.09,0.15 -0.14,0.23 -0.09,0.2 -0.18,0.41 -0.19,0.64 -0.1,0.37 -0.03,0.78 0.19,1.09 0.25,0.25 0.63,0.3 0.96,0.35 0.76,0.02 1.53,0 2.29,0.01 0.2,0.02 0.39,0.08 0.58,0.13 0.11,0.07 0.21,0.15 0.31,0.24 0.01,0.04 0.05,0.1 0.06,0.13 0.02,0.12 0.05,0.24 0.07,0.35 -0.03,0.18 -0.07,0.35 -0.12,0.52 -0.07,0.08 -0.14,0.16 -0.2,0.24 -0.08,0.06 -0.16,0.13 -0.24,0.19 -0.03,0.01 -0.09,0.05 -0.11,0.06 -0.22,0.07 -0.43,0.16 -0.66,0.14 -1.11,0 -2.21,0.02 -3.31,-0.01 -0.08,-0.03 -0.16,-0.05 -0.24,-0.07 -0.12,-0.05 -0.24,-0.1 -0.36,-0.14 -0.16,-0.11 -0.32,-0.22 -0.47,-0.34 -0.17,-0.13 -0.28,-0.32 -0.43,-0.48 -0.1,-0.19 -0.2,-0.39 -0.29,-0.58 -0.32,-0.94 -0.23,-1.96 0.12,-2.87 0.07,-0.16 0.15,-0.31 0.23,-0.47 0.07,-0.09 0.13,-0.19 0.18,-0.29 0.34,-0.45 0.74,-0.85 1.19,-1.19 0.12,-0.06 0.24,-0.14 0.36,-0.21zm15.88 -0.33c0.61,-0.03 1.23,-0.05 1.81,0.19 0.59,0.25 1.08,0.7 1.4,1.25 0.03,0.06 0.05,0.12 0.08,0.17 0.03,0.1 0.07,0.2 0.12,0.3 0.24,0.82 0.15,1.7 -0.12,2.5 -0.04,0.1 -0.08,0.2 -0.12,0.3 -0.09,0.2 -0.19,0.39 -0.29,0.59 -0.32,0.52 -0.73,0.98 -1.25,1.3 -0.11,0.06 -0.23,0.12 -0.35,0.18 -0.12,0.04 -0.24,0.08 -0.36,0.12 -0.67,0.12 -1.36,0.08 -2.04,0.07 -0.19,0.01 -0.38,-0.07 -0.57,-0.06 -0.19,-0.08 -0.39,-0.12 -0.57,-0.23 -0.33,-0.2 -0.58,-0.49 -0.81,-0.8 -0.08,-0.15 -0.16,-0.31 -0.24,-0.46 -0.24,-0.69 -0.23,-1.44 -0.11,-2.15 0.02,-0.08 0.04,-0.17 0.06,-0.25 0.04,-0.11 0.08,-0.23 0.12,-0.35 0.11,-0.24 0.22,-0.47 0.35,-0.7 0.04,-0.06 0.08,-0.12 0.12,-0.18 0.06,-0.08 0.12,-0.16 0.18,-0.24 0.29,-0.32 0.59,-0.64 0.94,-0.89 0.06,-0.04 0.12,-0.08 0.18,-0.12 0.46,-0.26 0.95,-0.45 1.47,-0.54zm6.27 0.07c0.37,-0.12 0.82,-0.16 1.12,0.12 0.15,0.11 0.23,0.27 0.31,0.43 0.02,0.25 0.01,0.5 -0.07,0.74 -0.09,0.2 -0.16,0.39 -0.24,0.59 -0.04,0.1 -0.08,0.2 -0.12,0.3 -0.04,0.09 -0.08,0.19 -0.11,0.29 -0.08,0.19 -0.16,0.39 -0.24,0.59 -0.04,0.09 -0.08,0.19 -0.11,0.29 -0.05,0.1 -0.09,0.19 -0.12,0.29 -0.03,0.07 -0.06,0.13 -0.08,0.19 -0.02,0.06 -0.04,0.11 -0.06,0.17 -0.02,0.05 -0.04,0.11 -0.06,0.17 -0.02,0.06 -0.04,0.12 -0.06,0.18 -0.05,0.15 -0.07,0.31 0.02,0.45 0.14,0.13 0.34,0.11 0.52,0.11 0.27,0.02 0.53,-0.08 0.77,-0.2 0.27,-0.18 0.48,-0.44 0.57,-0.76 0.04,-0.1 0.08,-0.19 0.12,-0.29 0.04,-0.1 0.08,-0.2 0.12,-0.3 0.04,-0.09 0.08,-0.19 0.11,-0.29 0.04,-0.1 0.08,-0.19 0.12,-0.29 0.04,-0.1 0.08,-0.2 0.12,-0.3 0.04,-0.09 0.08,-0.19 0.12,-0.29 0.04,-0.1 0.08,-0.19 0.11,-0.29 0.04,-0.1 0.08,-0.2 0.12,-0.3 0.04,-0.09 0.08,-0.19 0.12,-0.29 0.09,-0.2 0.18,-0.4 0.29,-0.59 0.04,-0.06 0.08,-0.12 0.12,-0.18 0.18,-0.21 0.41,-0.37 0.66,-0.49 0.23,-0.02 0.46,-0.02 0.69,-0.01 0.19,0.1 0.35,0.23 0.49,0.38 0.01,0.03 0.04,0.1 0.05,0.13 0.03,0.06 0.05,0.12 0.08,0.18 0.03,0.38 -0.14,0.74 -0.25,1.09 -0.05,0.1 -0.09,0.2 -0.12,0.3 -0.04,0.09 -0.08,0.19 -0.12,0.29 -0.04,0.1 -0.08,0.19 -0.12,0.29 -0.04,0.1 -0.08,0.2 -0.11,0.3 -0.05,0.09 -0.08,0.19 -0.12,0.29 -0.04,0.1 -0.08,0.19 -0.12,0.29 -0.19,0.44 -0.36,0.88 -0.53,1.33 0.59,0.01 1.19,-0.06 1.76,0.13 0.11,0.1 0.23,0.2 0.29,0.35 0.04,0.11 0.05,0.22 0.08,0.34 -0.04,0.18 -0.06,0.37 -0.12,0.55 -0.11,0.17 -0.25,0.32 -0.43,0.43 -0.08,0.04 -0.16,0.08 -0.24,0.12 -0.38,0.12 -0.78,0.08 -1.17,0.09 -0.52,-0.01 -1.05,0.01 -1.57,-0.02 -0.22,-0.1 -0.41,-0.26 -0.56,-0.44 -0.01,-0.02 -0.01,-0.07 -0.02,-0.1 -0.12,0.12 -0.24,0.24 -0.37,0.35 -0.08,0.04 -0.16,0.08 -0.24,0.12 -0.06,0.02 -0.12,0.04 -0.18,0.07 -0.74,0.03 -1.47,0.02 -2.2,0 -0.07,-0.03 -0.13,-0.05 -0.19,-0.07 -0.24,-0.11 -0.47,-0.23 -0.66,-0.42 -0.19,-0.18 -0.3,-0.42 -0.42,-0.66 -0.08,-0.28 -0.08,-0.58 -0.06,-0.87 0.05,-0.28 0.15,-0.55 0.24,-0.81 0.05,-0.1 0.09,-0.2 0.12,-0.3 0.05,-0.09 0.09,-0.19 0.12,-0.29 0.04,-0.1 0.08,-0.19 0.12,-0.29 0.04,-0.1 0.08,-0.2 0.12,-0.3 0.04,-0.09 0.08,-0.19 0.11,-0.29 0.05,-0.1 0.08,-0.19 0.12,-0.29 0.04,-0.1 0.08,-0.2 0.12,-0.3 0.04,-0.09 0.08,-0.19 0.12,-0.29 0.04,-0.1 0.08,-0.19 0.11,-0.29 0.04,-0.1 0.08,-0.2 0.12,-0.3 0.07,-0.16 0.15,-0.31 0.23,-0.47 0.17,-0.27 0.4,-0.49 0.66,-0.66zm-28.74 2.13c0.21,-0.15 0.46,-0.24 0.71,-0.27 0.14,0 0.27,0.06 0.42,0.07 0.23,0.11 0.42,0.31 0.54,0.54 0.18,0.61 0.05,1.3 -0.32,1.82 -0.14,0.22 -0.33,0.41 -0.57,0.53 -0.39,0.16 -0.85,0.16 -1.25,0 -0.16,-0.11 -0.33,-0.24 -0.39,-0.43 -0.16,-0.46 -0.06,-0.97 0.15,-1.4 0.16,-0.34 0.4,-0.65 0.71,-0.86l0 0zm22.33 -0.14c0.24,-0.08 0.5,-0.18 0.76,-0.09 0.31,0.05 0.55,0.31 0.69,0.58 0.14,0.48 0.07,1 -0.13,1.46 -0.04,0.08 -0.09,0.16 -0.13,0.24 -0.04,0.06 -0.08,0.12 -0.12,0.18 -0.11,0.17 -0.27,0.32 -0.45,0.43 -0.21,0.11 -0.44,0.13 -0.67,0.16 -0.36,-0.03 -0.79,-0.09 -0.98,-0.44 -0.26,-0.47 -0.13,-1.06 0.09,-1.52 0.21,-0.42 0.52,-0.8 0.94,-1zm19.25 2.82c0.29,-0.19 0.64,-0.22 0.98,-0.19 0.06,0.02 0.13,0.05 0.19,0.07 0.28,0.14 0.5,0.35 0.66,0.61 0.15,0.33 0.18,0.7 0.06,1.04 -0.04,0.08 -0.08,0.16 -0.12,0.24 -0.13,0.15 -0.28,0.29 -0.42,0.43 -0.36,0.18 -0.8,0.19 -1.17,0.06 -0.03,-0.02 -0.09,-0.05 -0.12,-0.07 -0.32,-0.2 -0.54,-0.52 -0.61,-0.89 -0.02,-0.17 -0.01,-0.34 0,-0.51 0.02,-0.06 0.04,-0.12 0.07,-0.19 0.04,-0.08 0.08,-0.16 0.11,-0.24 0.12,-0.12 0.24,-0.24 0.37,-0.36z"/>
   </g>
  </g>
  <g id="_2599777047520">
   <polygon class="fil1" points="80.61,9.07 86.96,9.07 71.1,36.43 55.24,9.07 67.37,9.07 71.1,15.42 74.75,9.07 "/>
   <polygon class="fil1" points="55.24,9.07 71.1,36.43 86.96,9.07 80.61,9.07 71.1,25.49 61.5,9.07 "/>
   <polygon class="fil2" points="61.5,9.07 71.1,25.57 80.61,9.07 74.75,9.07 71.1,15.42 67.37,9.07 "/>
  </g>
  <g id="_2599777048832">
   <g>
    <polygon class="fil3" points="44.37,0 44.37,0 44.37,0 28.67,5.6 31.06,26.37 44.37,33.74 44.37,33.74 44.37,33.74 57.68,26.37 60.08,5.6 "/>
    <polygon class="fil4" points="44.37,0 44.37,3.75 44.37,3.73 44.37,20.82 44.37,20.82 44.37,33.74 44.37,33.74 57.68,26.37 60.08,5.6 "/>
    <path class="fil5" d="M44.37 3.73l-9.82 22.01 0 0 3.67 0 0 0 1.97 -4.92 8.33 0 1.98 4.92 0 0 3.66 0 0 0 -9.79 -22.01 0 0 0 0 0 0 0 0zm2.87 14.05l-5.74 0 2.87 -6.9 2.87 6.9z"/>
   </g>
  </g>
  <g id="_2599777050592">
   <circle class="fil6" cx="16.42" cy="19.83" r="2.93"/>
   <path class="fil7" d="M16.42 13.16c1.97,0 3.88,0.15 5.64,0.4 1.83,0.27 3.5,0.66 4.93,1.16 1.73,0.59 3.14,1.35 4.13,2.17 1.1,0.91 1.71,1.93 1.71,2.94 0,1.04 -0.64,2.11 -1.82,3.07 -1.05,0.85 -2.55,1.64 -4.39,2.25 -1.38,0.46 -2.96,0.8 -4.69,1.04 -1.74,0.24 -3.61,0.36 -5.51,0.36 -1.98,0 -3.92,-0.12 -5.72,-0.36 -1.73,-0.23 -3.32,-0.58 -4.69,-1.05 -1.78,-0.61 -3.22,-1.4 -4.24,-2.25 -1.14,-0.97 -1.77,-2.04 -1.77,-3.06 0,-1 0.59,-2.02 1.66,-2.93 0.96,-0.81 2.33,-1.56 4.04,-2.15 1.44,-0.51 3.14,-0.91 4.98,-1.18 1.8,-0.26 3.74,-0.41 5.74,-0.41zm5.44 1.79c-1.69,-0.25 -3.53,-0.38 -5.44,-0.38 -1.94,0 -3.81,0.14 -5.54,0.39 -1.76,0.26 -3.37,0.64 -4.72,1.11 -1.54,0.53 -2.76,1.2 -3.59,1.9 -0.76,0.64 -1.17,1.28 -1.17,1.86 0,0.6 0.45,1.3 1.27,1.99 0.89,0.74 2.17,1.44 3.78,1.99 1.3,0.44 2.8,0.77 4.43,0.99 1.72,0.23 3.6,0.35 5.54,0.35 1.86,0 3.66,-0.12 5.33,-0.35 1.62,-0.22 3.13,-0.55 4.43,-0.98 1.68,-0.56 3.02,-1.26 3.94,-2.01 0.85,-0.68 1.31,-1.37 1.31,-1.98 0,-0.58 -0.43,-1.22 -1.2,-1.86 -0.86,-0.72 -2.12,-1.39 -3.69,-1.93 -1.36,-0.46 -2.94,-0.84 -4.68,-1.09z"/>
   <path class="fil7" d="M10.62 16.52c0.99,-1.72 2.06,-3.3 3.17,-4.7 1.14,-1.45 2.32,-2.7 3.46,-3.69 1.38,-1.2 2.74,-2.05 3.94,-2.49 1.34,-0.5 2.53,-0.52 3.4,-0.02 0.91,0.53 1.51,1.62 1.75,3.12 0.22,1.33 0.15,3.02 -0.24,4.92 -0.29,1.42 -0.79,2.97 -1.44,4.58l0 0c-0.66,1.61 -1.49,3.29 -2.45,4.96 -1,1.73 -2.07,3.35 -3.17,4.77 -1.06,1.38 -2.15,2.59 -3.25,3.54 -1.42,1.24 -2.82,2.1 -4.06,2.55 -1.41,0.51 -2.65,0.51 -3.54,0 -0.87,-0.5 -1.45,-1.51 -1.7,-2.9 -0.23,-1.24 -0.19,-2.8 0.14,-4.57 0.29,-1.5 0.79,-3.17 1.48,-4.9 0.66,-1.68 1.51,-3.43 2.51,-5.17zm4.26 -3.83c-1.06,1.34 -2.1,2.87 -3.05,4.52 -0.96,1.66 -1.77,3.36 -2.42,4.99 -0.66,1.66 -1.13,3.24 -1.4,4.65 -0.3,1.6 -0.34,2.99 -0.15,4.06 0.18,0.98 0.53,1.65 1.03,1.94 0.52,0.3 1.35,0.26 2.36,-0.11 1.09,-0.39 2.34,-1.16 3.62,-2.28 1.02,-0.89 2.06,-2.03 3.07,-3.34 1.06,-1.39 2.1,-2.95 3.06,-4.62 0.92,-1.59 1.72,-3.22 2.36,-4.79l0 0c0.63,-1.52 1.09,-2.99 1.37,-4.33 0.36,-1.73 0.42,-3.25 0.23,-4.42 -0.17,-1.08 -0.54,-1.82 -1.07,-2.13 -0.49,-0.28 -1.27,-0.24 -2.21,0.12 -1.05,0.38 -2.26,1.14 -3.51,2.23 -1.09,0.95 -2.2,2.14 -3.29,3.51z"/>
   <path class="fil7" d="M10.63 23.21c-0.99,-1.71 -1.83,-3.43 -2.49,-5.09 -0.68,-1.72 -1.18,-3.36 -1.47,-4.84 -0.35,-1.8 -0.4,-3.4 -0.19,-4.66 0.24,-1.41 0.81,-2.45 1.69,-2.95 0.9,-0.53 2.15,-0.51 3.57,0.03 1.26,0.48 2.69,1.38 4.14,2.67 1.09,0.97 2.19,2.17 3.25,3.54 1.08,1.38 2.12,2.94 3.08,4.59 0.99,1.72 1.86,3.46 2.55,5.13 0.67,1.62 1.16,3.17 1.44,4.59 0.37,1.85 0.41,3.49 0.18,4.79 -0.26,1.47 -0.87,2.55 -1.77,3.07 -0.86,0.5 -2.03,0.5 -3.36,0.02 -1.18,-0.42 -2.52,-1.23 -3.88,-2.41 -1.16,-0.99 -2.36,-2.26 -3.52,-3.72 -1.12,-1.42 -2.22,-3.03 -3.22,-4.76zm-1.19 -5.61c0.63,1.59 1.44,3.25 2.4,4.91 0.96,1.67 2.02,3.22 3.11,4.59 1.11,1.39 2.24,2.59 3.33,3.53 1.23,1.06 2.42,1.79 3.44,2.16 0.93,0.33 1.7,0.36 2.19,0.08 0.52,-0.31 0.9,-1.04 1.09,-2.1 0.2,-1.14 0.16,-2.61 -0.17,-4.28 -0.27,-1.34 -0.73,-2.8 -1.36,-4.32 -0.67,-1.61 -1.51,-3.29 -2.48,-4.96 -0.92,-1.61 -1.93,-3.11 -2.96,-4.45 -1.02,-1.3 -2.05,-2.43 -3.07,-3.34 -1.32,-1.17 -2.6,-1.98 -3.72,-2.41 -1.02,-0.38 -1.85,-0.44 -2.37,-0.13 -0.5,0.28 -0.84,0.98 -1.01,1.97 -0.19,1.1 -0.14,2.53 0.18,4.16 0.28,1.41 0.75,2.97 1.4,4.59z"/>
  </g>
 </g>
</svg>
