<?xml version="1.0" encoding="UTF-8"?>
<!DOCTYPE svg PUBLIC "-//W3C//DTD SVG 1.1//EN" "http://www.w3.org/Graphics/SVG/1.1/DTD/svg11.dtd">
<!-- Creator: CorelDRAW 2017 -->
<svg xmlns="http://www.w3.org/2000/svg" xml:space="preserve" width="380px" height="269px" version="1.1" style="shape-rendering:geometricPrecision; text-rendering:geometricPrecision; image-rendering:optimizeQuality; fill-rule:evenodd; clip-rule:evenodd"
viewBox="0 0 2059.47 1455.86"
 xmlns:xlink="http://www.w3.org/1999/xlink">
 <defs>
  <style type="text/css">
   <![CDATA[
    .fil0 {fill:#606062;fill-rule:nonzero}
    .fil1 {fill:#81A64A;fill-rule:nonzero}
   ]]>
  </style>
 </defs>
 <g id="Layer_x0020_1">
  <metadata id="CorelCorpID_0Corel-Layer"/>
  <g id="_1988494593280">
   <path class="fil0" d="M32.41 81.87l-3.27 0c-5.65,0 -9.87,-1.33 -12.64,-3.99 -2.75,-2.66 -4.13,-6.69 -4.13,-12.1l0 -15.14c0,-1.45 -0.17,-2.72 -0.48,-3.86 -0.34,-1.12 -0.89,-2.09 -1.7,-2.85 -0.82,-0.78 -1.9,-1.39 -3.24,-1.79 -1.34,-0.41 -3.02,-0.62 -5.05,-0.62l-1.9 0 0 -6.14 1.9 0c2.15,0 3.91,-0.18 5.26,-0.52 1.35,-0.37 2.41,-0.89 3.18,-1.61 0.76,-0.73 1.29,-1.64 1.59,-2.76 0.29,-1.11 0.44,-2.43 0.44,-3.97l0 -10.44c0,-2.46 0.3,-4.69 0.88,-6.67 0.59,-1.99 1.55,-3.68 2.88,-5.08 1.34,-1.38 3.07,-2.46 5.2,-3.2 2.13,-0.75 4.73,-1.13 7.81,-1.13l3.27 0 0 6.14 -2.61 0c-6.81,0 -10.21,3.31 -10.21,9.93l0 10.27c0,7.18 -3.1,11.22 -9.3,12.12 6.26,0.62 9.39,4.66 9.39,12.1l0 15.08c0,6.72 3.37,10.09 10.12,10.09l2.61 0 0 6.14zm180.1 25.36l-1.23 20.66 -7.24 0 -1.27 -20.66 9.74 0zm17.15 0l-1.23 20.66 -7.24 0 -1.28 -20.66 9.75 0zm58.21 62.28l-10.56 0 -20.58 -23.71 0 23.71 -7.67 0 0 -62.28 7.67 0 0 38.25 19.86 -20.2 10.1 0 -20.67 20.38 21.85 23.85zm24.9 -37.91l-13.09 0 0 -6.32 20.85 0 0 37.82 13.18 0 0 6.41 -35.47 0 0 -6.41 14.53 0 0 -31.5zm2.7 -24.92c0.86,0 1.66,0.16 2.38,0.47 0.74,0.3 1.39,0.74 1.93,1.29 0.54,0.58 0.98,1.21 1.27,1.93 0.32,0.73 0.47,1.5 0.47,2.36 0,0.83 -0.15,1.61 -0.47,2.34 -0.29,0.73 -0.73,1.38 -1.27,1.95 -0.54,0.56 -1.19,0.99 -1.93,1.3 -0.72,0.31 -1.52,0.46 -2.38,0.46 -0.86,0 -1.65,-0.15 -2.38,-0.46 -0.73,-0.31 -1.38,-0.74 -1.92,-1.3 -0.54,-0.57 -0.98,-1.22 -1.28,-1.95 -0.32,-0.73 -0.46,-1.51 -0.46,-2.34 0,-0.86 0.14,-1.63 0.46,-2.36 0.3,-0.72 0.74,-1.35 1.28,-1.93 0.54,-0.55 1.19,-0.99 1.92,-1.29 0.73,-0.31 1.52,-0.47 2.38,-0.47zm31.85 18.6l6.83 0 0.32 7.13c1.29,-1.52 2.54,-2.8 3.74,-3.82 1.2,-1.01 2.38,-1.82 3.55,-2.44 1.16,-0.63 2.34,-1.05 3.54,-1.3 1.2,-0.26 2.45,-0.38 3.74,-0.38 4.56,0 8.01,1.34 10.34,4.03 2.33,2.69 3.51,6.74 3.51,12.14l0 28.87 -7.68 0 0 -28.27c0,-3.47 -0.64,-6.03 -1.94,-7.69 -1.29,-1.67 -3.22,-2.49 -5.76,-2.49 -0.95,0 -1.86,0.13 -2.75,0.42 -0.9,0.27 -1.84,0.76 -2.8,1.46 -0.98,0.69 -2.03,1.62 -3.16,2.79 -1.13,1.18 -2.39,2.65 -3.81,4.41l0 29.37 -7.67 0 0 -44.23zm47.38 23.05c0,-3.76 0.51,-7.12 1.55,-10.04 1.02,-2.91 2.48,-5.39 4.39,-7.4 1.9,-2.01 4.16,-3.55 6.83,-4.59 2.66,-1.04 5.62,-1.56 8.89,-1.56 1.41,0 2.81,0.09 4.18,0.27 1.37,0.16 2.71,0.45 4.03,0.83l0 -18.61 7.67 0 0 62.28 -6.84 0 -0.26 -8.37c-2.15,3.13 -4.46,5.43 -6.98,6.94 -2.49,1.49 -5.2,2.24 -8.11,2.24 -2.52,0 -4.76,-0.53 -6.69,-1.6 -1.92,-1.05 -3.52,-2.54 -4.8,-4.46 -1.27,-1.93 -2.24,-4.25 -2.89,-6.94 -0.64,-2.7 -0.97,-5.7 -0.97,-8.99zm7.85 -0.51c0,5.33 0.78,9.33 2.36,11.97 1.58,2.63 3.81,3.94 6.68,3.94 1.95,0 4,-0.87 6.17,-2.6 2.15,-1.73 4.43,-4.3 6.81,-7.72l0 -20.55c-1.26,-0.59 -2.66,-1.04 -4.2,-1.34 -1.52,-0.31 -3.04,-0.46 -4.54,-0.46 -4.18,0 -7.43,1.35 -9.78,4.06 -2.33,2.69 -3.5,6.93 -3.5,12.7zm58.11 -40.59l-1.23 20.66 -7.24 0 -1.27 -20.66 9.74 0zm17.15 0l-1.23 20.66 -7.24 0 -1.28 -20.66 9.75 0zm36.17 17.24c0.9,0 1.77,0.18 2.6,0.55 0.81,0.36 1.53,0.86 2.15,1.48 0.62,0.62 1.11,1.34 1.48,2.15 0.37,0.83 0.55,1.7 0.55,2.6 0,0.95 -0.18,1.82 -0.55,2.63 -0.37,0.82 -0.86,1.52 -1.48,2.14 -0.62,0.61 -1.34,1.1 -2.15,1.46 -0.83,0.35 -1.7,0.53 -2.6,0.53 -0.95,0 -1.82,-0.18 -2.64,-0.53 -0.8,-0.36 -1.52,-0.85 -2.13,-1.46 -0.62,-0.62 -1.1,-1.32 -1.46,-2.14 -0.35,-0.81 -0.53,-1.68 -0.53,-2.63 0,-0.9 0.18,-1.77 0.53,-2.6 0.36,-0.81 0.84,-1.53 1.46,-2.15 0.61,-0.62 1.33,-1.12 2.13,-1.48 0.82,-0.37 1.69,-0.55 2.64,-0.55zm0 32.31c0.9,0 1.77,0.18 2.6,0.56 0.81,0.36 1.53,0.85 2.15,1.47 0.62,0.62 1.11,1.34 1.48,2.15 0.37,0.83 0.55,1.7 0.55,2.61 0,0.94 -0.18,1.81 -0.55,2.63 -0.37,0.81 -0.86,1.52 -1.48,2.13 -0.62,0.62 -1.34,1.1 -2.15,1.46 -0.83,0.35 -1.7,0.53 -2.6,0.53 -0.95,0 -1.82,-0.18 -2.64,-0.53 -0.8,-0.36 -1.52,-0.84 -2.13,-1.46 -0.62,-0.61 -1.1,-1.32 -1.46,-2.13 -0.35,-0.82 -0.53,-1.69 -0.53,-2.63 0,-0.91 0.18,-1.78 0.53,-2.61 0.36,-0.81 0.84,-1.53 1.46,-2.15 0.61,-0.62 1.33,-1.11 2.13,-1.47 0.82,-0.38 1.69,-0.56 2.64,-0.56zm432.33 21.75c1.51,0.06 2.95,-0.07 4.37,-0.39 1.41,-0.33 2.64,-0.79 3.73,-1.43 1.06,-0.63 1.92,-1.41 2.56,-2.34 0.65,-0.94 0.97,-2 0.97,-3.21 0,-1.22 -0.21,-2.21 -0.63,-2.98 -0.42,-0.77 -0.9,-1.47 -1.43,-2.12 -0.53,-0.65 -1.01,-1.34 -1.44,-2.07 -0.43,-0.74 -0.64,-1.72 -0.64,-2.97 0,-0.62 0.12,-1.26 0.35,-1.94 0.24,-0.68 0.6,-1.29 1.08,-1.85 0.5,-0.56 1.12,-1.01 1.85,-1.37 0.75,-0.34 1.64,-0.52 2.68,-0.52 1.02,0 2.01,0.21 2.98,0.63 0.95,0.43 1.79,1.08 2.51,1.97 0.72,0.87 1.29,1.97 1.72,3.29 0.43,1.33 0.64,2.89 0.64,4.68 0,2.44 -0.45,4.77 -1.34,7.02 -0.9,2.25 -2.24,4.23 -4.01,5.96 -1.78,1.74 -4.01,3.12 -6.67,4.16 -2.66,1.02 -5.74,1.53 -9.28,1.53l0 -6.05zm-733.8 34.39l-1.23 20.67 -7.24 0 -1.27 -20.67 9.74 0zm17.15 0l-1.23 20.67 -7.24 0 -1.28 -20.67 9.75 0zm54.05 61.65c-1.73,0.45 -3.52,0.76 -5.36,0.96 -1.86,0.2 -3.73,0.3 -5.65,0.3 -5.55,0 -9.69,-1.26 -12.41,-3.77 -2.74,-2.52 -4.09,-6.37 -4.09,-11.57l0 -23.11 -12.38 0 0 -6.41 12.38 0 0 -12.18 7.67 -1.99 0 14.17 19.84 0 0 6.41 -19.84 0 0 22.47c0,3.18 0.84,5.55 2.53,7.12 1.69,1.58 4.17,2.36 7.46,2.36 1.4,0 2.95,-0.1 4.62,-0.33 1.67,-0.21 3.42,-0.56 5.23,-1.02l0 6.59zm53.29 -43.6l-15.04 39.49c-1.55,4.03 -3.16,7.51 -4.83,10.42 -1.66,2.93 -3.48,5.31 -5.45,7.19 -1.95,1.87 -4.12,3.26 -6.47,4.13 -2.34,0.88 -4.97,1.32 -7.9,1.32 -0.75,0 -1.44,-0.01 -2.05,-0.04 -0.62,-0.03 -1.3,-0.08 -2.03,-0.14l0 -6.95c0.64,0.09 1.35,0.17 2.11,0.24 0.76,0.08 1.57,0.12 2.43,0.12 1.4,0 2.72,-0.21 3.94,-0.62 1.22,-0.4 2.37,-1.08 3.46,-2 1.08,-0.93 2.12,-2.13 3.13,-3.59 0.99,-1.47 1.97,-3.25 2.9,-5.34l-17.7 -44.23 8.72 0 11.22 29.29 2.26 6.83 2.56 -7.04 10.33 -29.08 8.41 0zm48.14 21.32c0,3.94 -0.56,7.37 -1.66,10.32 -1.09,2.93 -2.61,5.37 -4.55,7.31 -1.94,1.94 -4.23,3.4 -6.88,4.36 -2.64,0.98 -5.5,1.46 -8.59,1.46 -1.41,0 -2.82,-0.08 -4.21,-0.22 -1.4,-0.16 -2.81,-0.41 -4.26,-0.76l0 18.49 -7.67 0 0 -62.28 6.83 0 0.5 7.4c2.2,-3.04 4.54,-5.16 7.04,-6.37 2.49,-1.22 5.21,-1.84 8.11,-1.84 2.52,0 4.75,0.53 6.66,1.59 1.91,1.06 3.5,2.55 4.8,4.47 1.29,1.93 2.27,4.24 2.92,6.97 0.65,2.72 0.96,5.74 0.96,9.1zm-7.85 0.33c0,-2.32 -0.17,-4.45 -0.51,-6.39 -0.34,-1.94 -0.87,-3.6 -1.62,-4.98 -0.72,-1.39 -1.66,-2.47 -2.8,-3.24 -1.15,-0.78 -2.52,-1.17 -4.1,-1.17 -0.98,0 -1.95,0.15 -2.96,0.47 -0.99,0.29 -2.03,0.82 -3.1,1.53 -1.07,0.72 -2.21,1.69 -3.4,2.87 -1.19,1.19 -2.45,2.66 -3.81,4.42l0 21.48c1.42,0.59 2.89,1.06 4.45,1.39 1.56,0.34 3.09,0.51 4.58,0.51 4.15,0 7.39,-1.4 9.75,-4.21 2.35,-2.81 3.52,-7.02 3.52,-12.68zm57.03 -1.9c0,1.09 -0.02,2 -0.04,2.73 -0.03,0.73 -0.08,1.42 -0.14,2.07l-31.05 0c0,4.53 1.26,8.02 3.79,10.44 2.53,2.42 6.17,3.64 10.93,3.64 1.3,0 2.59,-0.04 3.89,-0.15 1.29,-0.11 2.54,-0.24 3.74,-0.42 1.21,-0.18 2.36,-0.38 3.46,-0.6 1.12,-0.21 2.13,-0.45 3.07,-0.72l0 6.32c-2.09,0.58 -4.45,1.06 -7.08,1.42 -2.62,0.38 -5.36,0.56 -8.17,0.56 -3.81,0 -7.07,-0.51 -9.79,-1.55 -2.74,-1.02 -4.98,-2.51 -6.73,-4.47 -1.76,-1.95 -3.05,-4.35 -3.88,-7.19 -0.84,-2.82 -1.27,-6.04 -1.27,-9.63 0,-3.11 0.46,-6.06 1.34,-8.84 0.91,-2.77 2.22,-5.22 3.93,-7.31 1.72,-2.11 3.82,-3.78 6.32,-5.01 2.5,-1.23 5.34,-1.85 8.51,-1.85 3.09,0 5.81,0.48 8.2,1.46 2.38,0.96 4.38,2.33 6,4.11 1.65,1.77 2.88,3.94 3.72,6.48 0.83,2.53 1.25,5.37 1.25,8.51zm-7.94 -1.07c0.09,-1.97 -0.11,-3.77 -0.58,-5.39 -0.46,-1.63 -1.2,-3.04 -2.18,-4.22 -0.99,-1.17 -2.21,-2.09 -3.68,-2.75 -1.48,-0.66 -3.17,-0.99 -5.12,-0.99 -1.68,0 -3.2,0.31 -4.58,0.96 -1.39,0.65 -2.58,1.56 -3.59,2.74 -0.99,1.17 -1.8,2.58 -2.42,4.24 -0.61,1.64 -0.99,3.44 -1.14,5.41l23.29 0zm34.28 -36.73l-1.23 20.67 -7.24 0 -1.27 -20.67 9.74 0zm17.15 0l-1.23 20.67 -7.24 0 -1.28 -20.67 9.75 0zm36.17 17.24c0.9,0 1.77,0.18 2.6,0.56 0.81,0.35 1.53,0.85 2.15,1.47 0.62,0.62 1.11,1.34 1.48,2.15 0.37,0.83 0.55,1.7 0.55,2.6 0,0.95 -0.18,1.83 -0.55,2.63 -0.37,0.82 -0.86,1.52 -1.48,2.14 -0.62,0.62 -1.34,1.1 -2.15,1.46 -0.83,0.35 -1.7,0.53 -2.6,0.53 -0.95,0 -1.82,-0.18 -2.64,-0.53 -0.8,-0.36 -1.52,-0.84 -2.13,-1.46 -0.62,-0.62 -1.1,-1.32 -1.46,-2.14 -0.35,-0.8 -0.53,-1.68 -0.53,-2.63 0,-0.9 0.18,-1.77 0.53,-2.6 0.36,-0.81 0.84,-1.53 1.46,-2.15 0.61,-0.62 1.33,-1.12 2.13,-1.47 0.82,-0.38 1.69,-0.56 2.64,-0.56zm0 32.31c0.9,0 1.77,0.18 2.6,0.56 0.81,0.36 1.53,0.85 2.15,1.47 0.62,0.62 1.11,1.34 1.48,2.15 0.37,0.83 0.55,1.7 0.55,2.61 0,0.94 -0.18,1.81 -0.55,2.63 -0.37,0.81 -0.86,1.52 -1.48,2.14 -0.62,0.61 -1.34,1.09 -2.15,1.45 -0.83,0.35 -1.7,0.53 -2.6,0.53 -0.95,0 -1.82,-0.18 -2.64,-0.53 -0.8,-0.36 -1.52,-0.84 -2.13,-1.45 -0.62,-0.62 -1.1,-1.33 -1.46,-2.14 -0.35,-0.82 -0.53,-1.69 -0.53,-2.63 0,-0.91 0.18,-1.78 0.53,-2.61 0.36,-0.81 0.84,-1.53 1.46,-2.15 0.61,-0.62 1.33,-1.11 2.13,-1.47 0.82,-0.38 1.69,-0.56 2.64,-0.56zm630.85 21.75c1.5,0.07 2.95,-0.07 4.37,-0.39 1.41,-0.33 2.64,-0.79 3.73,-1.43 1.06,-0.63 1.92,-1.41 2.56,-2.34 0.65,-0.94 0.97,-2 0.97,-3.21 0,-1.22 -0.21,-2.21 -0.63,-2.98 -0.42,-0.76 -0.9,-1.47 -1.43,-2.12 -0.53,-0.65 -1.01,-1.34 -1.44,-2.07 -0.43,-0.74 -0.64,-1.72 -0.64,-2.97 0,-0.61 0.12,-1.26 0.35,-1.94 0.24,-0.68 0.6,-1.29 1.08,-1.85 0.5,-0.56 1.11,-1.01 1.85,-1.36 0.75,-0.35 1.64,-0.53 2.68,-0.53 1.02,0 2.01,0.21 2.98,0.63 0.95,0.43 1.79,1.08 2.51,1.97 0.72,0.87 1.29,1.97 1.72,3.29 0.43,1.33 0.64,2.9 0.64,4.68 0,2.44 -0.45,4.77 -1.34,7.03 -0.9,2.24 -2.24,4.22 -4.01,5.95 -1.78,1.74 -4.01,3.12 -6.67,4.16 -2.66,1.02 -5.74,1.53 -9.28,1.53l0 -6.05zm-932.32 34.39l-1.23 20.67 -7.24 0 -1.27 -20.67 9.74 0zm17.15 0l-1.23 20.67 -7.24 0 -1.28 -20.67 9.75 0zm18.4 18.05l6.83 0 0.32 7.13c1.29,-1.52 2.54,-2.79 3.74,-3.82 1.2,-1 2.38,-1.82 3.55,-2.44 1.16,-0.63 2.34,-1.05 3.54,-1.3 1.2,-0.26 2.45,-0.38 3.74,-0.38 4.56,0 8.01,1.34 10.34,4.03 2.33,2.69 3.51,6.74 3.51,12.14l0 28.87 -7.68 0 0 -28.27c0,-3.47 -0.64,-6.03 -1.94,-7.68 -1.29,-1.68 -3.22,-2.5 -5.76,-2.5 -0.95,0 -1.86,0.13 -2.75,0.42 -0.9,0.27 -1.84,0.77 -2.8,1.46 -0.98,0.69 -2.03,1.63 -3.16,2.8 -1.13,1.17 -2.39,2.64 -3.81,4.4l0 29.37 -7.67 0 0 -44.23zm88.17 21.77c0,3.43 -0.48,6.59 -1.45,9.45 -0.97,2.87 -2.37,5.32 -4.19,7.37 -1.82,2.03 -4.05,3.62 -6.65,4.76 -2.62,1.12 -5.59,1.69 -8.91,1.69 -3.17,0 -6.01,-0.49 -8.52,-1.47 -2.51,-0.99 -4.65,-2.44 -6.4,-4.35 -1.74,-1.91 -3.08,-4.27 -4.01,-7.1 -0.92,-2.81 -1.39,-6.06 -1.39,-9.73 0,-3.45 0.49,-6.59 1.46,-9.42 0.97,-2.84 2.36,-5.28 4.18,-7.33 1.83,-2.03 4.05,-3.62 6.66,-4.75 2.61,-1.13 5.59,-1.7 8.9,-1.7 3.17,0 6.02,0.5 8.53,1.47 2.51,1 4.65,2.43 6.39,4.32 1.75,1.9 3.09,4.26 4.02,7.09 0.92,2.81 1.38,6.04 1.38,9.7zm-7.85 0.32c0,-2.73 -0.3,-5.12 -0.9,-7.16 -0.6,-2.05 -1.46,-3.75 -2.57,-5.12 -1.13,-1.37 -2.49,-2.39 -4.08,-3.08 -1.61,-0.69 -3.39,-1.04 -5.36,-1.04 -2.28,0 -4.25,0.45 -5.88,1.34 -1.62,0.9 -2.96,2.1 -4,3.59 -1.06,1.51 -1.81,3.25 -2.3,5.24 -0.49,1.99 -0.73,4.06 -0.73,6.23 0,2.74 0.31,5.14 0.91,7.19 0.6,2.06 1.46,3.77 2.57,5.14 1.13,1.37 2.47,2.4 4.06,3.09 1.58,0.69 3.37,1.04 5.37,1.04 2.29,0 4.26,-0.45 5.88,-1.35 1.63,-0.9 2.97,-2.1 4.01,-3.59 1.05,-1.51 1.8,-3.25 2.3,-5.24 0.48,-1.98 0.72,-4.07 0.72,-6.28zm16.69 0.96c0,-3.76 0.51,-7.12 1.55,-10.03 1.02,-2.92 2.48,-5.39 4.39,-7.41 1.9,-2.01 4.16,-3.54 6.83,-4.58 2.66,-1.04 5.62,-1.57 8.89,-1.57 1.41,0 2.81,0.09 4.18,0.27 1.37,0.17 2.71,0.45 4.03,0.83l0 -18.61 7.67 0 0 62.28 -6.84 0 -0.26 -8.37c-2.15,3.14 -4.46,5.44 -6.98,6.94 -2.49,1.49 -5.2,2.24 -8.11,2.24 -2.52,0 -4.76,-0.52 -6.69,-1.59 -1.92,-1.06 -3.52,-2.55 -4.8,-4.47 -1.27,-1.92 -2.24,-4.24 -2.89,-6.93 -0.64,-2.71 -0.97,-5.7 -0.97,-9zm7.85 -0.51c0,5.34 0.78,9.34 2.36,11.97 1.58,2.63 3.81,3.94 6.68,3.94 1.95,0 4,-0.87 6.17,-2.6 2.15,-1.73 4.43,-4.3 6.81,-7.72l0 -20.54c-1.26,-0.59 -2.66,-1.04 -4.2,-1.34 -1.52,-0.32 -3.04,-0.47 -4.54,-0.47 -4.18,0 -7.43,1.35 -9.78,4.06 -2.33,2.7 -3.5,6.94 -3.5,12.7zm81.4 -2.78c0,1.08 -0.02,2 -0.04,2.72 -0.03,0.73 -0.08,1.43 -0.14,2.08l-31.05 0c0,4.52 1.26,8.01 3.79,10.43 2.53,2.42 6.17,3.64 10.93,3.64 1.3,0 2.59,-0.04 3.89,-0.15 1.29,-0.1 2.54,-0.24 3.74,-0.42 1.21,-0.18 2.36,-0.37 3.46,-0.6 1.12,-0.21 2.13,-0.45 3.07,-0.72l0 6.32c-2.09,0.58 -4.45,1.06 -7.08,1.43 -2.62,0.37 -5.36,0.55 -8.17,0.55 -3.81,0 -7.07,-0.51 -9.79,-1.55 -2.74,-1.02 -4.98,-2.51 -6.73,-4.46 -1.76,-1.96 -3.05,-4.35 -3.88,-7.19 -0.84,-2.83 -1.27,-6.05 -1.27,-9.63 0,-3.11 0.46,-6.07 1.34,-8.85 0.91,-2.76 2.22,-5.22 3.93,-7.31 1.72,-2.11 3.82,-3.77 6.32,-5.01 2.5,-1.23 5.34,-1.85 8.51,-1.85 3.09,0 5.81,0.48 8.2,1.46 2.38,0.96 4.38,2.33 6,4.11 1.65,1.77 2.88,3.94 3.72,6.48 0.83,2.53 1.25,5.37 1.25,8.52zm-7.94 -1.07c0.09,-1.97 -0.11,-3.78 -0.58,-5.4 -0.46,-1.63 -1.2,-3.04 -2.18,-4.21 -0.99,-1.18 -2.21,-2.1 -3.68,-2.76 -1.48,-0.66 -3.17,-0.99 -5.12,-0.99 -1.68,0 -3.2,0.31 -4.58,0.96 -1.39,0.65 -2.58,1.56 -3.59,2.74 -0.99,1.17 -1.8,2.58 -2.42,4.24 -0.61,1.64 -0.99,3.45 -1.14,5.42l23.29 0zm55.31 13.47c0,1.57 -0.27,2.97 -0.79,4.2 -0.53,1.24 -1.25,2.33 -2.17,3.28 -0.9,0.97 -1.97,1.78 -3.17,2.46 -1.21,0.67 -2.5,1.23 -3.87,1.66 -1.37,0.44 -2.77,0.77 -4.21,0.97 -1.45,0.21 -2.84,0.31 -4.23,0.31 -3.01,0 -5.76,-0.13 -8.29,-0.41 -2.51,-0.27 -4.98,-0.7 -7.38,-1.3l0 -7.04c2.58,0.74 5.15,1.29 7.71,1.68 2.58,0.38 5.12,0.58 7.64,0.58 3.69,0 6.41,-0.5 8.17,-1.49 1.76,-1.01 2.65,-2.43 2.65,-4.28 0,-0.79 -0.13,-1.5 -0.42,-2.14 -0.27,-0.62 -0.78,-1.23 -1.52,-1.8 -0.74,-0.57 -1.88,-1.17 -3.43,-1.79 -1.55,-0.62 -3.66,-1.32 -6.35,-2.11 -2,-0.59 -3.85,-1.26 -5.54,-2.01 -1.69,-0.75 -3.15,-1.64 -4.4,-2.66 -1.23,-1.03 -2.2,-2.24 -2.91,-3.62 -0.7,-1.38 -1.06,-3.02 -1.06,-4.9 0,-1.23 0.28,-2.59 0.85,-4.04 0.59,-1.48 1.57,-2.85 2.95,-4.11 1.39,-1.26 3.25,-2.32 5.61,-3.15 2.37,-0.84 5.31,-1.26 8.85,-1.26 1.75,0 3.67,0.09 5.79,0.29 2.12,0.18 4.33,0.51 6.63,0.97l0 6.87c-2.42,-0.59 -4.7,-1.03 -6.87,-1.3 -2.18,-0.28 -4.06,-0.42 -5.64,-0.42 -1.93,0 -3.54,0.15 -4.86,0.44 -1.31,0.3 -2.38,0.7 -3.18,1.21 -0.81,0.52 -1.39,1.12 -1.76,1.8 -0.34,0.69 -0.52,1.42 -0.52,2.22 0,0.8 0.15,1.52 0.46,2.17 0.3,0.65 0.89,1.26 1.72,1.86 0.84,0.6 2.02,1.21 3.52,1.81 1.5,0.6 3.46,1.26 5.88,1.97 2.62,0.77 4.83,1.56 6.63,2.41 1.79,0.82 3.25,1.76 4.37,2.79 1.12,1.03 1.92,2.18 2.42,3.48 0.48,1.29 0.72,2.77 0.72,4.4zm28.6 -50.21l-1.23 20.67 -7.24 0 -1.27 -20.67 9.74 0zm17.15 0l-1.23 20.67 -7.24 0 -1.28 -20.67 9.75 0zm36.17 17.24c0.9,0 1.77,0.18 2.6,0.56 0.81,0.36 1.53,0.85 2.15,1.47 0.62,0.62 1.11,1.34 1.48,2.15 0.37,0.83 0.55,1.7 0.55,2.61 0,0.94 -0.18,1.82 -0.55,2.63 -0.37,0.81 -0.86,1.52 -1.48,2.13 -0.62,0.62 -1.34,1.1 -2.15,1.46 -0.83,0.35 -1.7,0.53 -2.6,0.53 -0.95,0 -1.82,-0.18 -2.64,-0.53 -0.8,-0.36 -1.52,-0.84 -2.13,-1.46 -0.62,-0.61 -1.1,-1.32 -1.46,-2.13 -0.35,-0.81 -0.53,-1.69 -0.53,-2.63 0,-0.91 0.18,-1.78 0.53,-2.61 0.36,-0.81 0.84,-1.53 1.46,-2.15 0.61,-0.62 1.33,-1.11 2.13,-1.47 0.82,-0.38 1.69,-0.56 2.64,-0.56zm0 32.31c0.9,0 1.77,0.18 2.6,0.56 0.81,0.36 1.53,0.86 2.15,1.48 0.62,0.61 1.11,1.33 1.48,2.14 0.37,0.83 0.55,1.7 0.55,2.61 0,0.95 -0.18,1.82 -0.55,2.63 -0.37,0.81 -0.86,1.52 -1.48,2.14 -0.62,0.61 -1.34,1.09 -2.15,1.46 -0.83,0.34 -1.7,0.52 -2.6,0.52 -0.95,0 -1.82,-0.18 -2.64,-0.52 -0.8,-0.37 -1.52,-0.85 -2.13,-1.46 -0.62,-0.62 -1.1,-1.33 -1.46,-2.14 -0.35,-0.81 -0.53,-1.68 -0.53,-2.63 0,-0.91 0.18,-1.78 0.53,-2.61 0.36,-0.81 0.84,-1.53 1.46,-2.14 0.61,-0.62 1.33,-1.12 2.13,-1.48 0.82,-0.38 1.69,-0.56 2.64,-0.56zm111.46 30.78l-21.75 0 0 -81.86 21.75 0 0 6.14 -14.44 0 0 69.58 14.44 0 0 6.14zm52.16 0l-3.27 0c-5.65,0 -9.87,-1.32 -12.64,-3.98 -2.75,-2.67 -4.13,-6.7 -4.13,-12.1l0 -15.15c0,-1.44 -0.17,-2.72 -0.48,-3.85 -0.34,-1.12 -0.89,-2.09 -1.7,-2.85 -0.82,-0.79 -1.9,-1.39 -3.24,-1.8 -1.34,-0.4 -3.02,-0.61 -5.05,-0.61l-1.9 0 0 -6.14 1.9 0c2.15,0 3.91,-0.18 5.26,-0.53 1.35,-0.36 2.41,-0.89 3.18,-1.61 0.76,-0.72 1.29,-1.64 1.59,-2.75 0.29,-1.11 0.44,-2.44 0.44,-3.97l0 -10.44c0,-2.47 0.3,-4.69 0.88,-6.68 0.59,-1.98 1.55,-3.67 2.88,-5.07 1.34,-1.39 3.07,-2.47 5.2,-3.2 2.13,-0.76 4.73,-1.13 7.81,-1.13l3.27 0 0 6.14 -2.61 0c-6.81,0 -10.21,3.3 -10.21,9.92l0 10.28c0,7.17 -3.1,11.22 -9.3,12.12 6.26,0.62 9.39,4.65 9.39,12.1l0 15.07c0,6.73 3.37,10.09 10.12,10.09l2.61 0 0 6.14zm-316.2 25.36l-1.23 20.67 -7.24 0 -1.27 -20.67 9.74 0zm17.15 0l-1.23 20.67 -7.24 0 -1.28 -20.67 9.75 0zm58.21 62.28l-10.56 0 -20.58 -23.7 0 23.7 -7.67 0 0 -62.28 7.67 0 0 38.26 19.85 -20.2 10.11 0 -20.67 20.38 21.85 23.84zm24.9 -37.9l-13.09 0 0 -6.32 20.85 0 0 37.82 13.18 0 0 6.4 -35.47 0 0 -6.4 14.53 0 0 -31.5zm2.7 -24.92c0.86,0 1.66,0.15 2.38,0.47 0.74,0.3 1.39,0.73 1.93,1.29 0.53,0.57 0.97,1.2 1.27,1.93 0.32,0.72 0.47,1.5 0.47,2.36 0,0.83 -0.15,1.61 -0.47,2.33 -0.3,0.74 -0.74,1.38 -1.27,1.96 -0.54,0.55 -1.19,0.99 -1.93,1.29 -0.72,0.31 -1.52,0.47 -2.38,0.47 -0.86,0 -1.65,-0.16 -2.38,-0.47 -0.73,-0.3 -1.38,-0.74 -1.92,-1.29 -0.54,-0.58 -0.98,-1.22 -1.28,-1.96 -0.32,-0.72 -0.46,-1.5 -0.46,-2.33 0,-0.86 0.14,-1.64 0.46,-2.36 0.3,-0.73 0.74,-1.36 1.28,-1.93 0.54,-0.56 1.19,-0.99 1.92,-1.29 0.73,-0.32 1.52,-0.47 2.38,-0.47zm31.85 18.6l6.83 0 0.32 7.12c1.29,-1.52 2.54,-2.79 3.74,-3.81 1.2,-1.01 2.38,-1.82 3.55,-2.44 1.16,-0.63 2.34,-1.05 3.54,-1.31 1.2,-0.25 2.45,-0.38 3.74,-0.38 4.56,0 8.01,1.34 10.34,4.03 2.33,2.7 3.51,6.74 3.51,12.14l0 28.87 -7.68 0 0 -28.26c0,-3.48 -0.64,-6.04 -1.94,-7.69 -1.29,-1.67 -3.22,-2.5 -5.76,-2.5 -0.95,0 -1.86,0.14 -2.75,0.42 -0.9,0.27 -1.84,0.77 -2.8,1.46 -0.98,0.69 -2.03,1.63 -3.16,2.8 -1.13,1.17 -2.39,2.65 -3.81,4.41l0 29.36 -7.67 0 0 -44.22zm47.38 23.04c0,-3.76 0.51,-7.11 1.55,-10.03 1.02,-2.92 2.48,-5.39 4.39,-7.41 1.9,-2.01 4.16,-3.54 6.83,-4.58 2.66,-1.04 5.62,-1.57 8.89,-1.57 1.41,0 2.81,0.1 4.18,0.27 1.37,0.17 2.71,0.46 4.03,0.83l0 -18.61 7.67 0 0 62.28 -6.84 0 -0.26 -8.36c-2.15,3.13 -4.46,5.43 -6.98,6.93 -2.49,1.49 -5.2,2.25 -8.11,2.25 -2.52,0 -4.76,-0.53 -6.69,-1.6 -1.92,-1.05 -3.52,-2.54 -4.8,-4.47 -1.27,-1.92 -2.24,-4.24 -2.89,-6.93 -0.64,-2.71 -0.97,-5.7 -0.97,-9zm7.85 -0.51c0,5.34 0.78,9.34 2.36,11.98 1.58,2.63 3.81,3.94 6.68,3.94 1.95,0 4,-0.87 6.17,-2.6 2.15,-1.74 4.43,-4.31 6.81,-7.73l0 -20.54c-1.26,-0.59 -2.66,-1.04 -4.2,-1.34 -1.52,-0.32 -3.04,-0.47 -4.54,-0.47 -4.18,0 -7.43,1.35 -9.78,4.07 -2.33,2.69 -3.5,6.93 -3.5,12.69zm58.11 -40.59l-1.23 20.67 -7.24 0 -1.27 -20.67 9.74 0zm17.15 0l-1.23 20.67 -7.24 0 -1.28 -20.67 9.75 0z"/>
   <path class="fil1" d="M609.55 107.23l-1.23 20.66 -7.24 0 -1.27 -20.66 9.74 0zm17.15 0l-1.23 20.66 -7.24 0 -1.28 -20.66 9.75 0zm56.22 39.37c0,3.67 -0.51,6.96 -1.52,9.85 -1.02,2.89 -2.45,5.36 -4.32,7.36 -1.86,2.01 -4.14,3.56 -6.81,4.63 -2.68,1.07 -5.69,1.61 -9.04,1.61 -2.6,0 -5.28,-0.26 -8.02,-0.75 -2.74,-0.5 -5.43,-1.3 -8.11,-2.38l0 -59.69 7.67 0 0 17.14 -0.34 8.21c2.2,-2.97 4.55,-5.06 7.07,-6.28 2.51,-1.21 5.2,-1.83 8.08,-1.83 2.52,0 4.75,0.52 6.66,1.59 1.91,1.06 3.5,2.55 4.8,4.47 1.29,1.92 2.27,4.24 2.92,6.96 0.65,2.73 0.96,5.75 0.96,9.11zm-7.85 0.32c0,-2.31 -0.17,-4.45 -0.51,-6.39 -0.34,-1.94 -0.87,-3.59 -1.62,-4.98 -0.72,-1.38 -1.66,-2.46 -2.81,-3.23 -1.14,-0.78 -2.51,-1.18 -4.09,-1.18 -0.98,0 -1.95,0.16 -2.96,0.47 -0.99,0.3 -2.03,0.83 -3.1,1.53 -1.07,0.73 -2.21,1.69 -3.4,2.88 -1.19,1.19 -2.45,2.66 -3.81,4.42l0 21.48c1.51,0.59 3.03,1.06 4.59,1.39 1.55,0.34 3.04,0.51 4.44,0.51 1.77,0 3.44,-0.29 5.05,-0.84 1.6,-0.56 3.01,-1.49 4.23,-2.8 1.22,-1.31 2.18,-3.04 2.9,-5.21 0.72,-2.15 1.09,-4.84 1.09,-8.05zm34.74 -33.37l-13.09 0 0 -6.32 20.85 0 0 55.87 13.18 0 0 6.41 -35.48 0 0 -6.41 14.54 0 0 -49.55zm73.09 33.5c0,3.43 -0.48,6.58 -1.45,9.44 -0.97,2.88 -2.37,5.33 -4.19,7.38 -1.82,2.02 -4.05,3.62 -6.65,4.75 -2.62,1.13 -5.6,1.7 -8.91,1.7 -3.17,0 -6.01,-0.5 -8.52,-1.47 -2.51,-1 -4.65,-2.44 -6.4,-4.35 -1.74,-1.91 -3.08,-4.28 -4.01,-7.11 -0.92,-2.8 -1.39,-6.05 -1.39,-9.73 0,-3.44 0.49,-6.58 1.46,-9.41 0.96,-2.85 2.36,-5.28 4.18,-7.33 1.82,-2.03 4.05,-3.62 6.66,-4.75 2.61,-1.13 5.59,-1.7 8.9,-1.7 3.17,0 6.02,0.49 8.53,1.47 2.51,0.99 4.65,2.43 6.39,4.32 1.75,1.89 3.09,4.26 4.02,7.09 0.92,2.81 1.38,6.04 1.38,9.7zm-7.85 0.32c0,-2.73 -0.3,-5.12 -0.9,-7.17 -0.61,-2.05 -1.46,-3.74 -2.58,-5.11 -1.12,-1.37 -2.48,-2.4 -4.07,-3.09 -1.61,-0.69 -3.39,-1.04 -5.36,-1.04 -2.28,0 -4.25,0.46 -5.88,1.35 -1.62,0.9 -2.96,2.1 -4,3.59 -1.06,1.5 -1.81,3.25 -2.3,5.23 -0.49,1.99 -0.73,4.07 -0.73,6.24 0,2.73 0.31,5.14 0.91,7.18 0.6,2.07 1.46,3.78 2.57,5.15 1.13,1.37 2.47,2.39 4.06,3.08 1.58,0.69 3.37,1.04 5.37,1.04 2.29,0 4.26,-0.45 5.88,-1.34 1.63,-0.9 2.97,-2.1 4,-3.6 1.06,-1.5 1.81,-3.25 2.31,-5.23 0.48,-1.99 0.72,-4.07 0.72,-6.28zm53.33 20.51c-2,0.77 -4.05,1.34 -6.15,1.7 -2.11,0.38 -4.27,0.56 -6.5,0.56 -7,0 -12.38,-1.9 -16.15,-5.69 -3.78,-3.79 -5.68,-9.32 -5.68,-16.62 0,-3.49 0.54,-6.67 1.63,-9.52 1.09,-2.85 2.61,-5.28 4.58,-7.31 1.97,-2.04 4.34,-3.6 7.06,-4.7 2.74,-1.1 5.75,-1.65 9.04,-1.65 2.29,0 4.44,0.16 6.44,0.48 2,0.33 3.91,0.86 5.73,1.59l0 7.32c-1.91,-1.01 -3.85,-1.75 -5.83,-2.2 -1.99,-0.47 -4.04,-0.7 -6.16,-0.7 -1.97,0 -3.82,0.38 -5.58,1.13 -1.74,0.76 -3.28,1.83 -4.6,3.24 -1.33,1.41 -2.37,3.13 -3.13,5.16 -0.77,2.03 -1.15,4.32 -1.15,6.87 0,5.36 1.3,9.36 3.9,12.02 2.6,2.66 6.22,3.99 10.83,3.99 2.08,0 4.11,-0.24 6.06,-0.71 1.94,-0.46 3.84,-1.16 5.66,-2.09l0 7.13zm55.05 1.63l-10.56 0 -20.58 -23.71 0 23.71 -7.67 0 0 -62.28 7.67 0 0 38.25 19.85 -20.2 10.11 0 -20.67 20.38 21.85 23.85zm23.9 -62.28l-1.23 20.66 -7.24 0 -1.27 -20.66 9.74 0zm17.15 0l-1.23 20.66 -7.24 0 -1.28 -20.66 9.75 0zm-314.93 105.69l-1.23 20.67 -7.24 0 -1.27 -20.67 9.74 0zm17.15 0l-1.23 20.67 -7.24 0 -1.28 -20.67 9.75 0zm56.22 39.37c0,3.94 -0.56,7.37 -1.66,10.32 -1.09,2.93 -2.61,5.37 -4.55,7.31 -1.94,1.94 -4.23,3.4 -6.88,4.36 -2.64,0.98 -5.5,1.46 -8.59,1.46 -1.41,0 -2.82,-0.08 -4.21,-0.22 -1.4,-0.16 -2.81,-0.41 -4.26,-0.76l0 18.49 -7.67 0 0 -62.28 6.83 0 0.5 7.4c2.2,-3.04 4.54,-5.16 7.04,-6.37 2.49,-1.22 5.21,-1.84 8.11,-1.84 2.52,0 4.75,0.53 6.66,1.59 1.91,1.06 3.5,2.55 4.8,4.47 1.29,1.93 2.27,4.24 2.92,6.97 0.65,2.72 0.96,5.74 0.96,9.1zm-7.85 0.33c0,-2.32 -0.17,-4.45 -0.51,-6.39 -0.34,-1.94 -0.87,-3.6 -1.62,-4.98 -0.72,-1.39 -1.66,-2.47 -2.81,-3.24 -1.14,-0.78 -2.51,-1.17 -4.09,-1.17 -0.98,0 -1.95,0.15 -2.96,0.47 -0.99,0.29 -2.03,0.82 -3.1,1.53 -1.07,0.72 -2.21,1.69 -3.4,2.87 -1.19,1.19 -2.45,2.66 -3.81,4.42l0 21.48c1.42,0.59 2.89,1.06 4.45,1.39 1.56,0.34 3.09,0.51 4.58,0.51 4.15,0 7.39,-1.4 9.75,-4.21 2.35,-2.81 3.52,-7.02 3.52,-12.68zm48.11 22.58l-0.17 -5.94c-2.41,2.37 -4.86,4.1 -7.34,5.16 -2.48,1.06 -5.1,1.59 -7.82,1.59 -2.53,0 -4.69,-0.33 -6.49,-0.98 -1.79,-0.65 -3.28,-1.53 -4.43,-2.66 -1.16,-1.13 -2.02,-2.45 -2.56,-3.99 -0.54,-1.53 -0.81,-3.19 -0.81,-4.98 0,-4.43 1.65,-7.91 4.96,-10.42 3.31,-2.51 8.19,-3.78 14.65,-3.78l9.18 0 0 -3.88c0,-2.63 -0.84,-4.72 -2.51,-6.3 -1.69,-1.58 -4.25,-2.36 -7.67,-2.36 -2.5,0 -4.97,0.28 -7.39,0.84 -2.42,0.57 -4.94,1.37 -7.52,2.41l0 -6.95c0.96,-0.35 2.05,-0.69 3.23,-1.03 1.19,-0.34 2.46,-0.63 3.77,-0.9 1.32,-0.25 2.7,-0.46 4.15,-0.63 1.42,-0.16 2.89,-0.24 4.34,-0.24 2.68,0 5.09,0.3 7.24,0.89 2.13,0.58 3.96,1.47 5.43,2.67 1.49,1.21 2.62,2.73 3.41,4.55 0.8,1.82 1.19,3.97 1.19,6.44l0 30.49 -6.84 0zm-0.83 -20.13l-9.73 0c-1.91,0 -3.57,0.2 -4.95,0.57 -1.37,0.38 -2.51,0.93 -3.38,1.63 -0.89,0.7 -1.54,1.55 -1.97,2.54 -0.43,0.98 -0.64,2.09 -0.64,3.32 0,0.85 0.14,1.66 0.39,2.44 0.27,0.78 0.7,1.48 1.28,2.08 0.59,0.6 1.36,1.07 2.3,1.42 0.93,0.35 2.08,0.53 3.43,0.53 1.76,0 3.79,-0.54 6.06,-1.61 2.28,-1.07 4.68,-2.76 7.21,-5.08l0 -7.84zm23.82 -24.1l7.01 0 0.22 8.15c2.62,-3.14 5.19,-5.43 7.74,-6.84 2.54,-1.42 5.11,-2.12 7.7,-2.12 4.57,0 8.05,1.49 10.42,4.45 2.36,2.98 3.46,7.39 3.28,13.24l-7.76 0c0.09,-3.9 -0.48,-6.71 -1.7,-8.47 -1.22,-1.76 -3.01,-2.63 -5.36,-2.63 -1.02,0 -2.06,0.18 -3.09,0.56 -1.06,0.36 -2.13,0.94 -3.22,1.76 -1.12,0.81 -2.27,1.84 -3.51,3.12 -1.23,1.27 -2.56,2.8 -3.97,4.61l0 28.4 -7.76 0 0 -44.23zm76.27 44.23l-0.17 -5.94c-2.41,2.37 -4.86,4.1 -7.34,5.16 -2.48,1.06 -5.1,1.59 -7.82,1.59 -2.53,0 -4.7,-0.33 -6.49,-0.98 -1.79,-0.65 -3.28,-1.53 -4.43,-2.66 -1.16,-1.13 -2.02,-2.45 -2.56,-3.99 -0.54,-1.53 -0.81,-3.19 -0.81,-4.98 0,-4.43 1.65,-7.91 4.96,-10.42 3.31,-2.51 8.19,-3.78 14.65,-3.78l9.18 0 0 -3.88c0,-2.63 -0.84,-4.72 -2.51,-6.3 -1.69,-1.58 -4.25,-2.36 -7.67,-2.36 -2.5,0 -4.97,0.28 -7.39,0.84 -2.42,0.57 -4.94,1.37 -7.52,2.41l0 -6.95c0.96,-0.35 2.05,-0.69 3.23,-1.03 1.19,-0.34 2.46,-0.63 3.77,-0.9 1.32,-0.25 2.7,-0.46 4.15,-0.63 1.42,-0.16 2.89,-0.24 4.34,-0.24 2.68,0 5.09,0.3 7.24,0.89 2.13,0.58 3.96,1.47 5.43,2.67 1.49,1.21 2.62,2.73 3.41,4.55 0.8,1.82 1.19,3.97 1.19,6.44l0 30.49 -6.84 0zm-0.83 -20.13l-9.73 0c-1.91,0 -3.57,0.2 -4.95,0.57 -1.37,0.38 -2.51,0.93 -3.38,1.63 -0.89,0.7 -1.54,1.55 -1.97,2.54 -0.43,0.98 -0.64,2.09 -0.64,3.32 0,0.85 0.14,1.66 0.39,2.44 0.27,0.78 0.7,1.48 1.28,2.08 0.59,0.6 1.36,1.07 2.3,1.42 0.93,0.35 2.08,0.53 3.43,0.53 1.76,0 3.79,-0.54 6.06,-1.61 2.28,-1.07 4.68,-2.76 7.21,-5.08l0 -7.84zm53.89 -17.87c0.83,1.02 1.46,2.23 1.93,3.6 0.45,1.36 0.67,2.85 0.67,4.43 0,2.31 -0.42,4.39 -1.26,6.29 -0.83,1.9 -2.02,3.52 -3.54,4.87 -1.53,1.36 -3.37,2.4 -5.49,3.15 -2.13,0.75 -4.48,1.13 -7.04,1.13 -1.85,0 -3.58,-0.2 -5.2,-0.6 -1.61,-0.4 -2.89,-0.89 -3.84,-1.48 -0.55,0.83 -1.02,1.61 -1.4,2.35 -0.37,0.72 -0.57,1.55 -0.57,2.45 0,1.13 0.54,2.05 1.61,2.78 1.07,0.74 2.5,1.13 4.26,1.19l11.64 0.44c2.19,0.06 4.24,0.34 6.11,0.84 1.86,0.49 3.46,1.22 4.8,2.15 1.33,0.95 2.37,2.11 3.12,3.49 0.76,1.37 1.13,2.98 1.13,4.8 0,1.97 -0.42,3.83 -1.27,5.6 -0.86,1.76 -2.17,3.31 -3.95,4.65 -1.77,1.32 -4.03,2.39 -6.76,3.18 -2.74,0.8 -5.99,1.19 -9.75,1.19 -3.58,0 -6.64,-0.29 -9.15,-0.86 -2.51,-0.57 -4.58,-1.36 -6.18,-2.37 -1.63,-1.01 -2.8,-2.21 -3.54,-3.62 -0.74,-1.39 -1.1,-2.91 -1.1,-4.58 0,-2.15 0.5,-4.03 1.49,-5.64 0.99,-1.61 2.54,-3.18 4.62,-4.67 -0.77,-0.34 -1.43,-0.79 -1.98,-1.32 -0.56,-0.53 -1.01,-1.11 -1.36,-1.75 -0.34,-0.63 -0.61,-1.29 -0.79,-2 -0.17,-0.7 -0.26,-1.39 -0.26,-2.07 0,-1.91 0.45,-3.66 1.34,-5.25 0.89,-1.6 1.95,-3.08 3.17,-4.5 -0.55,-0.68 -1.04,-1.34 -1.48,-1.99 -0.41,-0.64 -0.77,-1.33 -1.09,-2.09 -0.3,-0.75 -0.54,-1.56 -0.71,-2.42 -0.17,-0.87 -0.24,-1.86 -0.24,-2.98 0,-2.3 0.42,-4.39 1.27,-6.28 0.82,-1.9 2.01,-3.52 3.51,-4.88 1.52,-1.35 3.34,-2.39 5.48,-3.14 2.14,-0.75 4.49,-1.13 7.07,-1.13 1.1,0 2.14,0.08 3.15,0.22 0.99,0.16 1.87,0.35 2.64,0.59l16.05 0 0 6.23 -7.11 0zm-26.64 44.39c0,2.08 1.08,3.6 3.26,4.54 2.18,0.95 5.21,1.44 9.09,1.44 2.44,0 4.5,-0.23 6.15,-0.67 1.67,-0.43 2.99,-1.01 4.02,-1.73 1.01,-0.72 1.74,-1.53 2.18,-2.45 0.43,-0.93 0.66,-1.88 0.66,-2.84 0,-1.78 -0.74,-3.1 -2.21,-3.94 -1.46,-0.86 -3.72,-1.36 -6.74,-1.51l-11.56 -0.39c-0.97,0.65 -1.77,1.28 -2.4,1.88 -0.63,0.62 -1.13,1.25 -1.48,1.88 -0.36,0.62 -0.61,1.25 -0.75,1.88 -0.15,0.64 -0.22,1.26 -0.22,1.91zm2.35 -36.18c0,1.41 0.24,2.71 0.7,3.89 0.47,1.17 1.13,2.16 1.99,2.99 0.84,0.82 1.84,1.46 3.02,1.92 1.16,0.45 2.44,0.68 3.85,0.68 1.53,0 2.89,-0.26 4.08,-0.77 1.18,-0.51 2.19,-1.22 2.99,-2.09 0.81,-0.89 1.43,-1.89 1.85,-3.05 0.44,-1.15 0.65,-2.33 0.65,-3.57 0,-1.41 -0.24,-2.7 -0.71,-3.88 -0.46,-1.17 -1.13,-2.17 -1.98,-2.99 -0.85,-0.83 -1.86,-1.46 -3.03,-1.93 -1.16,-0.45 -2.43,-0.67 -3.85,-0.67 -1.54,0 -2.89,0.27 -4.07,0.79 -1.2,0.53 -2.2,1.22 -3,2.09 -0.81,0.88 -1.43,1.87 -1.85,3.03 -0.43,1.14 -0.64,2.33 -0.64,3.56zm43.85 -14.44l7.01 0 0.22 8.15c2.62,-3.14 5.19,-5.43 7.74,-6.84 2.54,-1.42 5.11,-2.12 7.7,-2.12 4.57,0 8.05,1.49 10.42,4.45 2.36,2.98 3.46,7.39 3.28,13.24l-7.76 0c0.09,-3.9 -0.48,-6.71 -1.7,-8.47 -1.22,-1.76 -3.01,-2.63 -5.36,-2.63 -1.02,0 -2.06,0.18 -3.09,0.56 -1.06,0.36 -2.13,0.94 -3.22,1.76 -1.12,0.81 -2.27,1.84 -3.51,3.12 -1.23,1.27 -2.56,2.8 -3.97,4.61l0 28.4 -7.76 0 0 -44.23zm76.27 44.23l-0.17 -5.94c-2.41,2.37 -4.86,4.1 -7.34,5.16 -2.48,1.06 -5.1,1.59 -7.82,1.59 -2.53,0 -4.7,-0.33 -6.49,-0.98 -1.79,-0.65 -3.28,-1.53 -4.43,-2.66 -1.16,-1.13 -2.02,-2.45 -2.56,-3.99 -0.54,-1.53 -0.81,-3.19 -0.81,-4.98 0,-4.43 1.65,-7.91 4.96,-10.42 3.31,-2.51 8.19,-3.78 14.65,-3.78l9.18 0 0 -3.88c0,-2.63 -0.84,-4.72 -2.51,-6.3 -1.69,-1.58 -4.25,-2.36 -7.67,-2.36 -2.5,0 -4.97,0.28 -7.39,0.84 -2.42,0.57 -4.94,1.37 -7.52,2.41l0 -6.95c0.96,-0.35 2.05,-0.69 3.23,-1.03 1.19,-0.34 2.46,-0.63 3.76,-0.9 1.33,-0.25 2.71,-0.46 4.15,-0.63 1.43,-0.16 2.9,-0.24 4.35,-0.24 2.68,0 5.09,0.3 7.24,0.89 2.13,0.58 3.96,1.47 5.43,2.67 1.49,1.21 2.62,2.73 3.41,4.55 0.8,1.82 1.19,3.97 1.19,6.44l0 30.49 -6.84 0zm-0.83 -20.13l-9.73 0c-1.91,0 -3.57,0.2 -4.95,0.57 -1.37,0.38 -2.51,0.93 -3.38,1.63 -0.89,0.7 -1.54,1.55 -1.97,2.54 -0.43,0.98 -0.64,2.09 -0.64,3.32 0,0.85 0.14,1.66 0.39,2.44 0.27,0.78 0.7,1.48 1.28,2.08 0.59,0.6 1.36,1.07 2.3,1.42 0.93,0.35 2.08,0.53 3.43,0.53 1.76,0 3.79,-0.54 6.06,-1.61 2.28,-1.07 4.68,-2.76 7.21,-5.08l0 -7.84zm59.83 -2.78c0,3.94 -0.56,7.37 -1.66,10.32 -1.09,2.93 -2.61,5.37 -4.56,7.31 -1.93,1.94 -4.22,3.4 -6.87,4.36 -2.64,0.98 -5.5,1.46 -8.59,1.46 -1.41,0 -2.82,-0.08 -4.21,-0.22 -1.4,-0.16 -2.81,-0.41 -4.26,-0.76l0 18.49 -7.67 0 0 -62.28 6.83 0 0.5 7.4c2.19,-3.04 4.54,-5.16 7.04,-6.37 2.49,-1.22 5.2,-1.84 8.11,-1.84 2.52,0 4.75,0.53 6.66,1.59 1.91,1.06 3.5,2.55 4.8,4.47 1.29,1.93 2.27,4.24 2.91,6.97 0.65,2.72 0.97,5.74 0.97,9.1zm-7.85 0.33c0,-2.32 -0.17,-4.45 -0.51,-6.39 -0.34,-1.94 -0.87,-3.6 -1.62,-4.98 -0.72,-1.39 -1.66,-2.47 -2.81,-3.24 -1.14,-0.78 -2.51,-1.17 -4.09,-1.17 -0.98,0 -1.95,0.15 -2.96,0.47 -0.99,0.29 -2.03,0.82 -3.1,1.53 -1.07,0.72 -2.21,1.69 -3.4,2.87 -1.19,1.19 -2.45,2.66 -3.81,4.42l0 21.48c1.42,0.59 2.89,1.06 4.45,1.39 1.55,0.34 3.09,0.51 4.58,0.51 4.15,0 7.39,-1.4 9.75,-4.21 2.35,-2.81 3.52,-7.02 3.52,-12.68zm55.23 22.58l-7.68 0 0 -28.27c0,-3.41 -0.63,-5.95 -1.91,-7.64 -1.28,-1.7 -3.12,-2.54 -5.49,-2.54 -1.02,0 -1.98,0.13 -2.89,0.42 -0.89,0.27 -1.82,0.77 -2.79,1.46 -0.97,0.69 -2.02,1.62 -3.17,2.8 -1.15,1.17 -2.46,2.64 -3.97,4.4l0 29.37 -7.67 0 0 -62.28 7.67 0 0 18.04 -0.27 6.96c1.2,-1.44 2.4,-2.66 3.55,-3.64 1.16,-0.99 2.34,-1.79 3.49,-2.41 1.16,-0.61 2.34,-1.05 3.54,-1.32 1.2,-0.25 2.45,-0.39 3.74,-0.39 4.41,0 7.83,1.34 10.23,4.03 2.41,2.69 3.62,6.74 3.62,12.14l0 28.87zm28.14 -62.28l-1.23 20.67 -7.24 0 -1.27 -20.67 9.74 0zm17.15 0l-1.23 20.67 -7.24 0 -1.28 -20.67 9.75 0zm-314.93 211.38l-1.23 20.67 -7.24 0 -1.27 -20.67 9.74 0zm17.15 0l-1.23 20.67 -7.24 0 -1.28 -20.67 9.75 0zm54.05 61.65c-1.73,0.45 -3.52,0.77 -5.37,0.96 -1.85,0.2 -3.73,0.3 -5.64,0.3 -5.55,0 -9.69,-1.26 -12.41,-3.77 -2.74,-2.51 -4.09,-6.37 -4.09,-11.57l0 -23.11 -12.38 0 0 -6.4 12.38 0 0 -12.19 7.67 -1.98 0 14.17 19.84 0 0 6.4 -19.84 0 0 22.48c0,3.17 0.84,5.55 2.53,7.11 1.69,1.59 4.17,2.36 7.46,2.36 1.4,0 2.95,-0.1 4.62,-0.32 1.67,-0.21 3.42,-0.56 5.23,-1.03l0 6.59zm51.35 -23.84c0,1.08 -0.02,2 -0.04,2.72 -0.03,0.74 -0.08,1.43 -0.14,2.08l-31.05 0c0,4.53 1.26,8.02 3.79,10.44 2.53,2.42 6.17,3.63 10.93,3.63 1.3,0 2.59,-0.04 3.89,-0.14 1.29,-0.11 2.54,-0.24 3.74,-0.42 1.21,-0.19 2.36,-0.38 3.46,-0.61 1.12,-0.21 2.13,-0.45 3.07,-0.72l0 6.32c-2.09,0.58 -4.45,1.06 -7.08,1.43 -2.62,0.37 -5.36,0.56 -8.17,0.56 -3.81,0 -7.07,-0.52 -9.79,-1.55 -2.74,-1.03 -4.98,-2.52 -6.73,-4.47 -1.76,-1.96 -3.05,-4.35 -3.88,-7.19 -0.84,-2.83 -1.27,-6.05 -1.27,-9.63 0,-3.11 0.46,-6.06 1.34,-8.85 0.91,-2.76 2.22,-5.22 3.93,-7.31 1.72,-2.1 3.82,-3.77 6.32,-5.01 2.5,-1.23 5.34,-1.85 8.51,-1.85 3.09,0 5.81,0.48 8.2,1.46 2.38,0.96 4.38,2.33 6,4.11 1.65,1.78 2.88,3.94 3.72,6.48 0.83,2.53 1.25,5.37 1.25,8.52zm-7.94 -1.07c0.09,-1.97 -0.11,-3.78 -0.58,-5.4 -0.46,-1.63 -1.2,-3.04 -2.18,-4.21 -0.99,-1.18 -2.21,-2.09 -3.68,-2.75 -1.48,-0.67 -3.17,-1 -5.12,-1 -1.68,0 -3.2,0.31 -4.58,0.96 -1.39,0.65 -2.58,1.57 -3.59,2.74 -0.99,1.17 -1.8,2.59 -2.42,4.24 -0.62,1.64 -0.99,3.45 -1.14,5.42l23.29 0zm60.09 25.54l-10.18 0 -11.93 -16.85 -11.84 16.85 -9.91 0 17.15 -22.23 -16.34 -21.99 9.82 0 11.6 16.99 11.44 -16.99 9.47 0 -16.63 22.14 17.35 22.08zm45.39 -0.63c-1.73,0.45 -3.52,0.77 -5.37,0.96 -1.85,0.2 -3.73,0.3 -5.64,0.3 -5.55,0 -9.69,-1.26 -12.41,-3.77 -2.74,-2.51 -4.09,-6.37 -4.09,-11.57l0 -23.11 -12.38 0 0 -6.4 12.38 0 0 -12.19 7.67 -1.98 0 14.17 19.84 0 0 6.4 -19.84 0 0 22.48c0,3.17 0.84,5.55 2.53,7.11 1.69,1.59 4.17,2.36 7.46,2.36 1.4,0 2.95,-0.1 4.62,-0.32 1.67,-0.21 3.42,-0.56 5.23,-1.03l0 6.59zm28.06 -61.65l-1.23 20.67 -7.24 0 -1.27 -20.67 9.74 0zm17.15 0l-1.23 20.67 -7.24 0 -1.28 -20.67 9.75 0zm-66.78 211.39l-1.23 20.66 -7.24 0 -1.27 -20.66 9.74 0zm17.15 0l-1.23 20.66 -7.24 0 -1.28 -20.66 9.75 0zm60.5 62.28l-8.54 0 -3.98 -12.55 -24.07 0 -3.99 12.55 -8.15 0 19.12 -57.59 10.75 0 18.86 57.59zm-14.76 -19.59l-9.78 -30.82 -9.81 30.82 19.59 0zm87 -36.37l-13.09 0 0 -6.32 20.85 0 0 55.87 13.18 0 0 6.41 -35.48 0 0 -6.41 14.54 0 0 -49.55zm49.63 18.05l-13.09 0 0 -6.32 20.85 0 0 37.82 13.18 0 0 6.41 -35.48 0 0 -6.41 14.54 0 0 -31.5zm2.7 -24.92c0.86,0 1.66,0.16 2.38,0.47 0.73,0.3 1.38,0.74 1.93,1.3 0.53,0.57 0.97,1.2 1.27,1.92 0.32,0.73 0.47,1.5 0.47,2.36 0,0.83 -0.15,1.61 -0.47,2.34 -0.3,0.73 -0.74,1.38 -1.27,1.95 -0.55,0.56 -1.2,0.99 -1.93,1.3 -0.72,0.31 -1.52,0.46 -2.38,0.46 -0.86,0 -1.65,-0.15 -2.38,-0.46 -0.73,-0.31 -1.38,-0.74 -1.92,-1.3 -0.54,-0.57 -0.98,-1.22 -1.28,-1.95 -0.32,-0.73 -0.46,-1.51 -0.46,-2.34 0,-0.86 0.14,-1.63 0.46,-2.36 0.3,-0.72 0.74,-1.35 1.28,-1.92 0.54,-0.56 1.19,-1 1.92,-1.3 0.73,-0.31 1.52,-0.47 2.38,-0.47zm31.85 18.6l6.83 0 0.32 7.13c1.29,-1.52 2.54,-2.8 3.74,-3.82 1.2,-1.01 2.38,-1.82 3.55,-2.44 1.16,-0.63 2.34,-1.05 3.54,-1.3 1.2,-0.26 2.45,-0.38 3.74,-0.38 4.56,0 8.01,1.34 10.34,4.03 2.33,2.69 3.51,6.74 3.51,12.14l0 28.87 -7.68 0 0 -28.27c0,-3.47 -0.65,-6.03 -1.94,-7.69 -1.29,-1.67 -3.22,-2.49 -5.76,-2.49 -0.95,0 -1.86,0.13 -2.75,0.42 -0.9,0.27 -1.84,0.76 -2.8,1.46 -0.98,0.69 -2.03,1.62 -3.16,2.79 -1.13,1.18 -2.39,2.65 -3.81,4.41l0 29.37 -7.67 0 0 -44.23zm87 19.75c0,1.09 -0.02,2 -0.04,2.72 -0.04,0.74 -0.08,1.43 -0.14,2.08l-31.05 0c0,4.53 1.26,8.02 3.79,10.44 2.53,2.42 6.16,3.64 10.93,3.64 1.3,0 2.59,-0.04 3.89,-0.15 1.29,-0.11 2.54,-0.24 3.74,-0.42 1.21,-0.18 2.36,-0.38 3.46,-0.6 1.12,-0.21 2.13,-0.45 3.07,-0.72l0 6.31c-2.09,0.59 -4.45,1.07 -7.08,1.43 -2.62,0.38 -5.36,0.56 -8.17,0.56 -3.81,0 -7.07,-0.51 -9.79,-1.55 -2.74,-1.02 -4.98,-2.51 -6.73,-4.47 -1.76,-1.95 -3.05,-4.35 -3.88,-7.19 -0.84,-2.83 -1.27,-6.05 -1.27,-9.63 0,-3.11 0.46,-6.06 1.34,-8.84 0.9,-2.77 2.21,-5.22 3.93,-7.31 1.72,-2.11 3.82,-3.78 6.32,-5.01 2.5,-1.23 5.34,-1.85 8.51,-1.85 3.09,0 5.81,0.48 8.2,1.45 2.38,0.97 4.38,2.34 6,4.11 1.65,1.78 2.88,3.94 3.72,6.49 0.83,2.52 1.25,5.36 1.25,8.51zm-7.95 -1.07c0.1,-1.97 -0.1,-3.77 -0.57,-5.4 -0.46,-1.62 -1.2,-3.04 -2.18,-4.21 -0.99,-1.17 -2.21,-2.09 -3.68,-2.75 -1.48,-0.67 -3.17,-0.99 -5.12,-0.99 -1.68,0 -3.2,0.31 -4.58,0.96 -1.39,0.64 -2.58,1.56 -3.59,2.74 -0.99,1.17 -1.8,2.58 -2.42,4.24 -0.62,1.64 -0.99,3.44 -1.14,5.41l23.28 0zm108.38 3.09c0,3.43 -0.48,6.58 -1.46,9.44 -0.96,2.88 -2.36,5.33 -4.18,7.38 -1.82,2.02 -4.05,3.62 -6.65,4.75 -2.62,1.13 -5.6,1.7 -8.91,1.7 -3.17,0 -6.01,-0.5 -8.52,-1.47 -2.51,-1 -4.65,-2.44 -6.4,-4.35 -1.74,-1.91 -3.08,-4.28 -4.01,-7.11 -0.92,-2.8 -1.39,-6.05 -1.39,-9.73 0,-3.44 0.48,-6.58 1.46,-9.41 0.96,-2.85 2.36,-5.28 4.18,-7.33 1.82,-2.03 4.05,-3.62 6.65,-4.75 2.62,-1.13 5.6,-1.7 8.91,-1.7 3.17,0 6.02,0.49 8.53,1.47 2.51,0.99 4.64,2.43 6.39,4.32 1.74,1.89 3.09,4.26 4.02,7.09 0.92,2.81 1.38,6.04 1.38,9.7zm-7.85 0.32c0,-2.73 -0.3,-5.12 -0.9,-7.17 -0.61,-2.05 -1.46,-3.74 -2.58,-5.11 -1.12,-1.37 -2.48,-2.4 -4.07,-3.09 -1.61,-0.69 -3.39,-1.03 -5.36,-1.03 -2.28,0 -4.25,0.45 -5.88,1.34 -1.62,0.9 -2.96,2.1 -4,3.59 -1.06,1.5 -1.81,3.25 -2.31,5.23 -0.48,1.99 -0.72,4.07 -0.72,6.24 0,2.73 0.31,5.14 0.91,7.18 0.6,2.07 1.46,3.78 2.57,5.15 1.13,1.37 2.47,2.39 4.06,3.08 1.58,0.69 3.37,1.04 5.37,1.04 2.29,0 4.26,-0.45 5.88,-1.34 1.63,-0.9 2.97,-2.1 4,-3.6 1.06,-1.5 1.81,-3.25 2.31,-5.23 0.48,-1.99 0.72,-4.07 0.72,-6.28zm58.2 -33.01c-4.03,-0.84 -7.49,-1.26 -10.39,-1.26 -6.91,0 -10.37,3.6 -10.37,10.82l0 7.77 19.41 0 0 6.41 -19.41 0 0 31.41 -7.76 0 0 -31.41 -14.26 0 0 -6.41 14.26 0 0 -7.32c0,-11.79 6.14,-17.69 18.4,-17.69 3.05,0 6.43,0.37 10.12,1.09l0 6.59zm95.65 54.52c-1.73,0.45 -3.52,0.76 -5.37,0.96 -1.85,0.19 -3.73,0.3 -5.64,0.3 -5.55,0 -9.69,-1.26 -12.41,-3.78 -2.74,-2.51 -4.09,-6.36 -4.09,-11.57l0 -23.1 -12.38 0 0 -6.41 12.38 0 0 -12.18 7.67 -1.99 0 14.17 19.84 0 0 6.41 -19.84 0 0 22.47c0,3.18 0.84,5.55 2.53,7.12 1.68,1.58 4.17,2.36 7.46,2.36 1.4,0 2.95,-0.11 4.62,-0.33 1.67,-0.21 3.42,-0.56 5.23,-1.02l0 6.59z"/>
   <path class="fil0" d="M712.5 441.54c0.9,0 1.77,0.18 2.6,0.56 0.81,0.36 1.53,0.85 2.15,1.47 0.62,0.62 1.11,1.34 1.48,2.15 0.37,0.83 0.55,1.71 0.55,2.61 0,0.94 -0.18,1.82 -0.55,2.63 -0.37,0.81 -0.86,1.52 -1.48,2.14 -0.62,0.61 -1.34,1.1 -2.15,1.45 -0.83,0.35 -1.7,0.53 -2.6,0.53 -0.95,0 -1.82,-0.18 -2.64,-0.53 -0.81,-0.35 -1.52,-0.84 -2.13,-1.45 -0.62,-0.62 -1.1,-1.33 -1.46,-2.14 -0.35,-0.81 -0.53,-1.69 -0.53,-2.63 0,-0.9 0.18,-1.78 0.53,-2.61 0.36,-0.81 0.84,-1.53 1.46,-2.15 0.61,-0.62 1.32,-1.11 2.13,-1.47 0.82,-0.38 1.69,-0.56 2.64,-0.56zm0 32.32c0.9,0 1.77,0.18 2.6,0.55 0.81,0.36 1.53,0.86 2.15,1.48 0.62,0.61 1.11,1.33 1.48,2.15 0.37,0.83 0.55,1.7 0.55,2.6 0,0.95 -0.18,1.82 -0.55,2.63 -0.37,0.82 -0.86,1.52 -1.48,2.14 -0.62,0.61 -1.34,1.1 -2.15,1.46 -0.83,0.34 -1.7,0.53 -2.6,0.53 -0.95,0 -1.82,-0.19 -2.64,-0.53 -0.81,-0.36 -1.52,-0.85 -2.13,-1.46 -0.62,-0.62 -1.1,-1.32 -1.46,-2.14 -0.35,-0.81 -0.53,-1.68 -0.53,-2.63 0,-0.9 0.18,-1.77 0.53,-2.6 0.36,-0.82 0.84,-1.54 1.46,-2.15 0.61,-0.62 1.32,-1.12 2.13,-1.48 0.82,-0.37 1.69,-0.55 2.64,-0.55zm382.7 21.75c1.5,0.06 2.95,-0.08 4.37,-0.4 1.41,-0.32 2.64,-0.79 3.73,-1.42 1.06,-0.63 1.92,-1.42 2.56,-2.35 0.65,-0.93 0.97,-2 0.97,-3.2 0,-1.22 -0.21,-2.22 -0.63,-2.98 -0.42,-0.77 -0.9,-1.48 -1.43,-2.12 -0.53,-0.65 -1.01,-1.34 -1.44,-2.08 -0.43,-0.74 -0.64,-1.71 -0.64,-2.96 0,-0.62 0.12,-1.27 0.35,-1.94 0.24,-0.68 0.6,-1.3 1.08,-1.85 0.5,-0.56 1.11,-1.01 1.85,-1.37 0.75,-0.35 1.64,-0.53 2.68,-0.53 1.02,0 2.01,0.21 2.98,0.63 0.95,0.44 1.79,1.09 2.51,1.97 0.72,0.88 1.29,1.97 1.72,3.3 0.43,1.32 0.64,2.89 0.64,4.68 0,2.44 -0.45,4.76 -1.34,7.02 -0.9,2.24 -2.24,4.23 -4.01,5.96 -1.78,1.73 -4.01,3.11 -6.67,4.15 -2.66,1.03 -5.74,1.54 -9.28,1.54l0 -6.05zm-684.17 34.39l-1.23 20.66 -7.24 0 -1.27 -20.66 9.74 0zm17.15 0l-1.23 20.66 -7.24 0 -1.28 -20.66 9.75 0zm20.21 18.05l7.01 0 0.22 8.15c2.62,-3.14 5.19,-5.43 7.74,-6.84 2.54,-1.42 5.11,-2.13 7.7,-2.13 4.57,0 8.05,1.49 10.42,4.46 2.36,2.97 3.46,7.39 3.28,13.23l-7.76 0c0.09,-3.89 -0.48,-6.7 -1.7,-8.46 -1.22,-1.77 -3.01,-2.63 -5.36,-2.63 -1.02,0 -2.06,0.17 -3.09,0.55 -1.06,0.36 -2.13,0.95 -3.22,1.76 -1.12,0.81 -2.27,1.85 -3.51,3.13 -1.23,1.26 -2.56,2.8 -3.97,4.6l0 28.4 -7.76 0 0 -44.22zm76.27 44.22l-0.17 -5.94c-2.41,2.38 -4.86,4.11 -7.34,5.16 -2.48,1.07 -5.1,1.6 -7.82,1.6 -2.53,0 -4.69,-0.33 -6.49,-0.98 -1.79,-0.65 -3.28,-1.53 -4.43,-2.67 -1.16,-1.12 -2.02,-2.45 -2.56,-3.98 -0.54,-1.54 -0.81,-3.19 -0.81,-4.98 0,-4.44 1.65,-7.91 4.96,-10.42 3.31,-2.52 8.19,-3.78 14.65,-3.78l9.18 0 0 -3.88c0,-2.63 -0.84,-4.73 -2.51,-6.3 -1.69,-1.58 -4.25,-2.37 -7.67,-2.37 -2.5,0 -4.97,0.29 -7.39,0.85 -2.42,0.57 -4.94,1.36 -7.52,2.4l0 -6.95c0.96,-0.34 2.05,-0.69 3.23,-1.02 1.19,-0.35 2.46,-0.63 3.77,-0.9 1.32,-0.26 2.7,-0.47 4.15,-0.64 1.42,-0.16 2.89,-0.24 4.34,-0.24 2.68,0 5.09,0.31 7.24,0.89 2.13,0.59 3.96,1.48 5.43,2.68 1.49,1.2 2.62,2.72 3.41,4.54 0.8,1.82 1.19,3.98 1.19,6.44l0 30.49 -6.84 0zm-0.83 -20.12l-9.73 0c-1.91,0 -3.56,0.19 -4.95,0.57 -1.37,0.38 -2.51,0.93 -3.38,1.62 -0.89,0.71 -1.54,1.55 -1.97,2.55 -0.43,0.97 -0.64,2.09 -0.64,3.32 0,0.84 0.14,1.66 0.39,2.44 0.27,0.78 0.7,1.47 1.28,2.07 0.59,0.61 1.36,1.07 2.3,1.43 0.93,0.35 2.08,0.53 3.43,0.53 1.76,0 3.79,-0.54 6.06,-1.61 2.28,-1.07 4.68,-2.77 7.21,-5.09l0 -7.83zm22.01 -24.1l6.83 0 0.32 7.13c1.29,-1.52 2.54,-2.8 3.74,-3.82 1.2,-1.01 2.38,-1.82 3.55,-2.44 1.16,-0.63 2.34,-1.05 3.54,-1.31 1.2,-0.25 2.45,-0.38 3.74,-0.38 4.56,0 8.01,1.35 10.34,4.04 2.33,2.69 3.51,6.74 3.51,12.13l0 28.87 -7.68 0 0 -28.26c0,-3.48 -0.64,-6.03 -1.94,-7.69 -1.29,-1.67 -3.22,-2.49 -5.76,-2.49 -0.95,0 -1.86,0.13 -2.75,0.41 -0.9,0.28 -1.84,0.77 -2.8,1.46 -0.98,0.69 -2.03,1.63 -3.16,2.8 -1.13,1.17 -2.39,2.65 -3.81,4.41l0 29.36 -7.67 0 0 -44.22zm81.51 6.23c0.83,1.02 1.46,2.22 1.93,3.59 0.45,1.37 0.67,2.86 0.67,4.44 0,2.3 -0.42,4.39 -1.26,6.29 -0.83,1.89 -2.02,3.52 -3.54,4.87 -1.53,1.36 -3.37,2.39 -5.49,3.15 -2.13,0.75 -4.48,1.12 -7.04,1.12 -1.85,0 -3.58,-0.19 -5.2,-0.6 -1.61,-0.39 -2.89,-0.89 -3.84,-1.48 -0.55,0.83 -1.02,1.62 -1.4,2.35 -0.37,0.72 -0.57,1.55 -0.57,2.45 0,1.14 0.54,2.05 1.61,2.79 1.07,0.73 2.5,1.13 4.26,1.19l11.64 0.44c2.19,0.05 4.24,0.34 6.11,0.83 1.86,0.5 3.46,1.22 4.8,2.16 1.33,0.95 2.37,2.1 3.12,3.49 0.76,1.36 1.14,2.98 1.14,4.79 0,1.98 -0.43,3.84 -1.28,5.6 -0.86,1.76 -2.17,3.31 -3.95,4.65 -1.77,1.32 -4.03,2.39 -6.76,3.19 -2.74,0.8 -5.99,1.19 -9.75,1.19 -3.58,0 -6.64,-0.29 -9.15,-0.86 -2.51,-0.57 -4.58,-1.37 -6.18,-2.38 -1.63,-1 -2.8,-2.21 -3.54,-3.61 -0.74,-1.4 -1.1,-2.92 -1.1,-4.58 0,-2.16 0.5,-4.04 1.49,-5.65 0.99,-1.6 2.54,-3.17 4.62,-4.66 -0.77,-0.35 -1.43,-0.8 -1.98,-1.32 -0.56,-0.53 -1.01,-1.12 -1.36,-1.75 -0.34,-0.63 -0.61,-1.29 -0.79,-2 -0.17,-0.71 -0.26,-1.4 -0.26,-2.07 0,-1.92 0.45,-3.66 1.34,-5.25 0.89,-1.6 1.95,-3.09 3.17,-4.5 -0.55,-0.68 -1.03,-1.34 -1.47,-1.99 -0.42,-0.65 -0.78,-1.34 -1.1,-2.09 -0.3,-0.75 -0.54,-1.56 -0.71,-2.42 -0.16,-0.87 -0.24,-1.87 -0.24,-2.98 0,-2.3 0.42,-4.39 1.27,-6.29 0.82,-1.89 2.01,-3.52 3.51,-4.87 1.52,-1.36 3.34,-2.39 5.48,-3.14 2.14,-0.76 4.49,-1.14 7.07,-1.14 1.1,0 2.14,0.08 3.15,0.23 0.99,0.15 1.87,0.35 2.64,0.59l16.05 0 0 6.23 -7.11 0zm-26.64 44.39c0,2.07 1.08,3.59 3.26,4.54 2.18,0.95 5.21,1.43 9.09,1.43 2.44,0 4.5,-0.23 6.15,-0.66 1.67,-0.44 2.99,-1.01 4.02,-1.73 1.01,-0.72 1.74,-1.54 2.18,-2.45 0.43,-0.93 0.66,-1.89 0.66,-2.85 0,-1.77 -0.74,-3.09 -2.21,-3.94 -1.46,-0.86 -3.72,-1.35 -6.74,-1.5l-11.56 -0.39c-0.97,0.64 -1.77,1.28 -2.4,1.88 -0.63,0.62 -1.13,1.24 -1.48,1.88 -0.36,0.61 -0.61,1.25 -0.75,1.88 -0.15,0.63 -0.22,1.26 -0.22,1.91zm2.35 -36.18c0,1.41 0.24,2.71 0.7,3.88 0.47,1.17 1.13,2.17 1.99,3 0.84,0.82 1.84,1.45 3.02,1.92 1.16,0.45 2.44,0.67 3.85,0.67 1.53,0 2.89,-0.25 4.08,-0.76 1.19,-0.51 2.19,-1.22 2.99,-2.09 0.81,-0.89 1.43,-1.9 1.85,-3.06 0.44,-1.14 0.65,-2.33 0.65,-3.56 0,-1.41 -0.24,-2.71 -0.71,-3.88 -0.46,-1.18 -1.13,-2.17 -1.98,-2.99 -0.85,-0.83 -1.86,-1.47 -3.03,-1.93 -1.16,-0.45 -2.43,-0.68 -3.85,-0.68 -1.54,0 -2.89,0.27 -4.07,0.8 -1.2,0.53 -2.2,1.22 -3,2.09 -0.81,0.87 -1.43,1.87 -1.85,3.02 -0.43,1.15 -0.64,2.34 -0.64,3.57zm79.41 5.31c0,1.08 -0.02,2 -0.04,2.72 -0.03,0.74 -0.08,1.43 -0.14,2.08l-31.05 0c0,4.53 1.26,8.02 3.79,10.44 2.53,2.42 6.17,3.64 10.93,3.64 1.3,0 2.59,-0.04 3.89,-0.15 1.29,-0.11 2.54,-0.24 3.74,-0.42 1.21,-0.19 2.36,-0.38 3.46,-0.61 1.12,-0.21 2.13,-0.45 3.07,-0.72l0 6.32c-2.09,0.59 -4.45,1.07 -7.08,1.43 -2.62,0.37 -5.36,0.56 -8.17,0.56 -3.81,0 -7.07,-0.51 -9.79,-1.55 -2.74,-1.03 -4.98,-2.51 -6.73,-4.47 -1.76,-1.95 -3.05,-4.35 -3.88,-7.19 -0.84,-2.83 -1.27,-6.05 -1.27,-9.63 0,-3.11 0.46,-6.06 1.34,-8.85 0.91,-2.76 2.22,-5.22 3.93,-7.3 1.72,-2.11 3.82,-3.78 6.32,-5.01 2.5,-1.24 5.34,-1.86 8.51,-1.86 3.09,0 5.81,0.49 8.2,1.46 2.38,0.96 4.38,2.34 6,4.11 1.65,1.78 2.88,3.94 3.72,6.48 0.83,2.53 1.25,5.37 1.25,8.52zm-7.94 -1.07c0.09,-1.97 -0.11,-3.78 -0.58,-5.4 -0.46,-1.63 -1.2,-3.04 -2.18,-4.21 -0.99,-1.18 -2.21,-2.09 -3.68,-2.75 -1.48,-0.67 -3.17,-1 -5.12,-1 -1.68,0 -3.2,0.32 -4.58,0.97 -1.39,0.64 -2.58,1.56 -3.59,2.73 -0.99,1.18 -1.8,2.59 -2.42,4.25 -0.62,1.63 -0.99,3.44 -1.14,5.41l23.29 0zm55.31 13.48c0,1.56 -0.27,2.96 -0.79,4.19 -0.53,1.24 -1.25,2.34 -2.17,3.28 -0.9,0.97 -1.97,1.78 -3.18,2.46 -1.2,0.68 -2.49,1.23 -3.86,1.67 -1.37,0.43 -2.77,0.77 -4.21,0.96 -1.45,0.21 -2.84,0.32 -4.23,0.32 -3.01,0 -5.76,-0.14 -8.29,-0.41 -2.51,-0.27 -4.98,-0.71 -7.38,-1.31l0 -7.04c2.58,0.74 5.15,1.3 7.71,1.69 2.58,0.37 5.12,0.57 7.64,0.57 3.69,0 6.41,-0.5 8.17,-1.49 1.76,-1.01 2.65,-2.43 2.65,-4.27 0,-0.8 -0.13,-1.51 -0.42,-2.14 -0.27,-0.63 -0.78,-1.23 -1.52,-1.8 -0.74,-0.58 -1.88,-1.18 -3.43,-1.79 -1.55,-0.62 -3.66,-1.33 -6.35,-2.11 -2,-0.6 -3.85,-1.27 -5.54,-2.02 -1.69,-0.75 -3.15,-1.64 -4.4,-2.66 -1.23,-1.02 -2.2,-2.24 -2.91,-3.61 -0.7,-1.38 -1.06,-3.03 -1.06,-4.9 0,-1.24 0.28,-2.59 0.85,-4.05 0.59,-1.47 1.57,-2.85 2.95,-4.1 1.39,-1.27 3.25,-2.32 5.61,-3.15 2.37,-0.85 5.31,-1.27 8.85,-1.27 1.75,0 3.67,0.1 5.79,0.29 2.12,0.18 4.33,0.51 6.63,0.98l0 6.86c-2.42,-0.59 -4.7,-1.02 -6.87,-1.29 -2.18,-0.29 -4.06,-0.42 -5.64,-0.42 -1.93,0 -3.54,0.14 -4.86,0.43 -1.31,0.3 -2.38,0.71 -3.18,1.22 -0.81,0.51 -1.39,1.11 -1.76,1.79 -0.34,0.69 -0.52,1.43 -0.52,2.23 0,0.79 0.15,1.52 0.46,2.16 0.3,0.65 0.89,1.26 1.72,1.87 0.84,0.6 2.02,1.2 3.52,1.8 1.5,0.6 3.46,1.26 5.88,1.97 2.62,0.77 4.83,1.56 6.63,2.41 1.79,0.83 3.25,1.76 4.37,2.8 1.12,1.02 1.92,2.18 2.42,3.47 0.48,1.3 0.72,2.77 0.72,4.41zm28.6 -50.21l-1.23 20.66 -7.24 0 -1.27 -20.66 9.74 0zm17.15 0l-1.23 20.66 -7.24 0 -1.28 -20.66 9.75 0zm36.17 17.23c0.9,0 1.77,0.18 2.6,0.56 0.81,0.36 1.53,0.86 2.15,1.48 0.62,0.62 1.11,1.34 1.48,2.14 0.37,0.83 0.55,1.71 0.55,2.61 0,0.95 -0.18,1.82 -0.55,2.63 -0.37,0.81 -0.86,1.52 -1.48,2.14 -0.62,0.61 -1.34,1.1 -2.15,1.46 -0.83,0.34 -1.7,0.52 -2.6,0.52 -0.95,0 -1.82,-0.18 -2.64,-0.52 -0.81,-0.36 -1.52,-0.85 -2.13,-1.46 -0.62,-0.62 -1.1,-1.33 -1.46,-2.14 -0.35,-0.81 -0.53,-1.68 -0.53,-2.63 0,-0.9 0.18,-1.78 0.53,-2.61 0.36,-0.8 0.84,-1.52 1.46,-2.14 0.61,-0.62 1.32,-1.12 2.13,-1.48 0.82,-0.38 1.69,-0.56 2.64,-0.56zm0 32.32c0.9,0 1.77,0.18 2.6,0.56 0.81,0.35 1.53,0.85 2.15,1.47 0.62,0.61 1.11,1.34 1.48,2.15 0.37,0.83 0.55,1.7 0.55,2.6 0,0.95 -0.18,1.82 -0.55,2.63 -0.37,0.82 -0.86,1.52 -1.48,2.14 -0.62,0.62 -1.34,1.1 -2.15,1.46 -0.83,0.34 -1.7,0.53 -2.6,0.53 -0.95,0 -1.82,-0.19 -2.64,-0.53 -0.81,-0.36 -1.52,-0.84 -2.13,-1.46 -0.62,-0.62 -1.1,-1.32 -1.46,-2.14 -0.35,-0.81 -0.53,-1.68 -0.53,-2.63 0,-0.9 0.18,-1.77 0.53,-2.6 0.36,-0.81 0.84,-1.54 1.46,-2.15 0.61,-0.62 1.32,-1.12 2.13,-1.47 0.82,-0.38 1.69,-0.56 2.64,-0.56zm111.46 30.78l-21.75 0 0 -81.87 21.75 0 0 6.14 -14.44 0 0 69.59 14.44 0 0 6.14zm52.16 0l-3.27 0c-5.65,0 -9.87,-1.33 -12.64,-3.99 -2.75,-2.66 -4.13,-6.69 -4.13,-12.1l0 -15.14c0,-1.45 -0.17,-2.72 -0.48,-3.86 -0.34,-1.12 -0.89,-2.09 -1.7,-2.85 -0.82,-0.78 -1.9,-1.39 -3.24,-1.79 -1.34,-0.41 -3.02,-0.62 -5.05,-0.62l-1.9 0 0 -6.14 1.9 0c2.15,0 3.91,-0.18 5.26,-0.52 1.35,-0.37 2.41,-0.89 3.18,-1.61 0.76,-0.73 1.29,-1.64 1.59,-2.76 0.29,-1.11 0.44,-2.43 0.44,-3.97l0 -10.44c0,-2.46 0.3,-4.69 0.88,-6.67 0.59,-1.99 1.55,-3.68 2.88,-5.08 1.34,-1.38 3.07,-2.46 5.2,-3.2 2.13,-0.75 4.73,-1.13 7.81,-1.13l3.27 0 0 6.14 -2.61 0c-6.81,0 -10.21,3.31 -10.21,9.93l0 10.27c0,7.18 -3.1,11.22 -9.3,12.12 6.26,0.62 9.39,4.66 9.39,12.1l0 15.08c0,6.72 3.37,10.09 10.12,10.09l2.61 0 0 6.14zm-365.83 25.36l-1.23 20.66 -7.24 0 -1.27 -20.66 9.74 0zm17.15 0l-1.23 20.66 -7.24 0 -1.28 -20.66 9.75 0zm54.05 61.65c-1.73,0.45 -3.52,0.76 -5.37,0.96 -1.85,0.19 -3.73,0.3 -5.64,0.3 -5.55,0 -9.69,-1.26 -12.41,-3.78 -2.74,-2.51 -4.09,-6.36 -4.09,-11.57l0 -23.1 -12.38 0 0 -6.41 12.38 0 0 -12.18 7.67 -1.99 0 14.17 19.84 0 0 6.41 -19.84 0 0 22.47c0,3.18 0.84,5.55 2.53,7.12 1.69,1.58 4.17,2.36 7.46,2.36 1.4,0 2.95,-0.11 4.62,-0.33 1.67,-0.21 3.42,-0.56 5.23,-1.02l0 6.59zm51.35 -23.85c0,1.09 -0.02,2 -0.04,2.72 -0.03,0.74 -0.08,1.43 -0.14,2.08l-31.05 0c0,4.53 1.26,8.02 3.79,10.44 2.53,2.42 6.17,3.64 10.93,3.64 1.3,0 2.59,-0.04 3.89,-0.15 1.29,-0.11 2.54,-0.24 3.74,-0.42 1.21,-0.18 2.36,-0.38 3.46,-0.6 1.12,-0.21 2.13,-0.45 3.07,-0.72l0 6.31c-2.09,0.59 -4.45,1.07 -7.08,1.43 -2.62,0.38 -5.36,0.56 -8.17,0.56 -3.81,0 -7.07,-0.51 -9.79,-1.55 -2.74,-1.02 -4.98,-2.51 -6.73,-4.47 -1.76,-1.95 -3.05,-4.35 -3.88,-7.19 -0.84,-2.83 -1.27,-6.05 -1.27,-9.63 0,-3.11 0.46,-6.06 1.34,-8.84 0.91,-2.77 2.22,-5.22 3.93,-7.31 1.72,-2.11 3.82,-3.78 6.32,-5.01 2.5,-1.23 5.34,-1.85 8.51,-1.85 3.09,0 5.81,0.48 8.2,1.45 2.38,0.97 4.38,2.34 6,4.11 1.65,1.78 2.88,3.94 3.72,6.49 0.83,2.52 1.25,5.36 1.25,8.51zm-7.94 -1.07c0.09,-1.97 -0.11,-3.77 -0.58,-5.4 -0.46,-1.62 -1.2,-3.04 -2.18,-4.21 -0.99,-1.17 -2.21,-2.09 -3.68,-2.75 -1.48,-0.67 -3.17,-0.99 -5.12,-0.99 -1.68,0 -3.2,0.31 -4.58,0.96 -1.39,0.64 -2.58,1.56 -3.59,2.74 -0.99,1.17 -1.8,2.58 -2.42,4.24 -0.62,1.64 -0.99,3.44 -1.14,5.41l23.29 0zm60.09 25.55l-10.18 0 -11.93 -16.85 -11.84 16.85 -9.91 0 17.15 -22.24 -16.34 -21.99 9.82 0 11.61 17 11.43 -17 9.47 0 -16.63 22.14 17.35 22.09zm45.39 -0.63c-1.73,0.45 -3.52,0.76 -5.37,0.96 -1.85,0.19 -3.73,0.3 -5.64,0.3 -5.55,0 -9.69,-1.26 -12.41,-3.78 -2.74,-2.51 -4.09,-6.36 -4.09,-11.57l0 -23.1 -12.38 0 0 -6.41 12.38 0 0 -12.18 7.67 -1.99 0 14.17 19.84 0 0 6.41 -19.84 0 0 22.47c0,3.18 0.84,5.55 2.53,7.12 1.69,1.58 4.17,2.36 7.46,2.36 1.4,0 2.95,-0.11 4.62,-0.33 1.67,-0.21 3.42,-0.56 5.23,-1.02l0 6.59zm28.06 -61.65l-1.23 20.66 -7.24 0 -1.27 -20.66 9.74 0zm17.15 0l-1.23 20.66 -7.24 0 -1.28 -20.66 9.75 0zm36.17 17.24c0.9,0 1.77,0.18 2.6,0.55 0.81,0.36 1.53,0.86 2.15,1.48 0.62,0.62 1.11,1.34 1.48,2.15 0.37,0.83 0.55,1.7 0.55,2.6 0,0.95 -0.18,1.82 -0.55,2.63 -0.37,0.82 -0.86,1.52 -1.48,2.14 -0.62,0.61 -1.34,1.1 -2.15,1.46 -0.83,0.35 -1.7,0.53 -2.6,0.53 -0.95,0 -1.82,-0.18 -2.64,-0.53 -0.81,-0.36 -1.52,-0.85 -2.13,-1.46 -0.62,-0.62 -1.1,-1.32 -1.46,-2.14 -0.35,-0.81 -0.53,-1.68 -0.53,-2.63 0,-0.9 0.18,-1.77 0.53,-2.6 0.36,-0.81 0.84,-1.53 1.46,-2.15 0.61,-0.62 1.32,-1.12 2.13,-1.48 0.82,-0.37 1.69,-0.55 2.64,-0.55zm0 32.31c0.9,0 1.77,0.18 2.6,0.56 0.81,0.36 1.53,0.85 2.15,1.47 0.62,0.62 1.11,1.34 1.48,2.15 0.37,0.83 0.55,1.7 0.55,2.61 0,0.94 -0.18,1.81 -0.55,2.63 -0.37,0.81 -0.86,1.52 -1.48,2.13 -0.62,0.62 -1.34,1.1 -2.15,1.46 -0.83,0.35 -1.7,0.53 -2.6,0.53 -0.95,0 -1.82,-0.18 -2.64,-0.53 -0.81,-0.36 -1.52,-0.84 -2.13,-1.46 -0.62,-0.61 -1.1,-1.32 -1.46,-2.13 -0.35,-0.82 -0.53,-1.69 -0.53,-2.63 0,-0.91 0.18,-1.78 0.53,-2.61 0.36,-0.81 0.84,-1.53 1.46,-2.15 0.61,-0.62 1.32,-1.11 2.13,-1.47 0.82,-0.38 1.69,-0.56 2.64,-0.56zm-511 54.6l3.27 0c5.65,0 9.86,1.33 12.63,3.99 2.75,2.67 4.14,6.7 4.14,12.1l0 10.18c0,1.43 0.16,2.72 0.48,3.85 0.33,1.13 0.89,2.09 1.7,2.86 0.8,0.78 1.88,1.38 3.23,1.79 1.36,0.41 3.04,0.62 5.06,0.62l1.89 0 0 6.13 -1.89 0c-2.14,0 -3.9,0.18 -5.25,0.53 -1.37,0.36 -2.44,0.89 -3.19,1.61 -0.77,0.72 -1.3,1.64 -1.59,2.76 -0.29,1.11 -0.44,2.43 -0.44,3.97l0 15.4c0,2.46 -0.3,4.69 -0.89,6.68 -0.59,1.98 -1.53,3.67 -2.86,5.07 -1.32,1.38 -3.05,2.46 -5.19,3.2 -2.15,0.75 -4.75,1.13 -7.83,1.13l-3.27 0 0 -6.14 2.65 0c6.78,0 10.17,-3.3 10.17,-9.91l0 -15.25c0,-7.18 3.1,-11.21 9.29,-12.1 -6.25,-0.66 -9.38,-4.71 -9.38,-12.12l0 -10.1c0,-6.74 -3.36,-10.11 -10.08,-10.11l-2.65 0 0 -6.14zm49.99 72.84c1.51,0.07 2.95,-0.07 4.37,-0.39 1.41,-0.33 2.64,-0.79 3.73,-1.43 1.06,-0.63 1.92,-1.41 2.56,-2.34 0.65,-0.94 0.97,-2 0.97,-3.21 0,-1.22 -0.21,-2.21 -0.63,-2.98 -0.42,-0.76 -0.9,-1.47 -1.43,-2.12 -0.53,-0.65 -1.01,-1.34 -1.44,-2.07 -0.43,-0.74 -0.64,-1.72 -0.64,-2.97 0,-0.61 0.13,-1.26 0.35,-1.93 0.24,-0.69 0.6,-1.3 1.08,-1.86 0.5,-0.56 1.12,-1.01 1.85,-1.36 0.75,-0.35 1.64,-0.53 2.68,-0.53 1.02,0 2.01,0.21 2.98,0.63 0.95,0.43 1.79,1.08 2.51,1.97 0.72,0.87 1.29,1.97 1.72,3.29 0.43,1.33 0.64,2.9 0.64,4.68 0,2.44 -0.45,4.77 -1.34,7.03 -0.9,2.24 -2.24,4.22 -4.01,5.95 -1.78,1.74 -4.01,3.12 -6.67,4.16 -2.66,1.02 -5.74,1.53 -9.28,1.53l0 -6.05zm-20.56 114.72l-3.27 0c-5.65,0 -9.87,-1.32 -12.64,-3.98 -2.75,-2.67 -4.13,-6.7 -4.13,-12.1l0 -15.15c0,-1.44 -0.17,-2.72 -0.48,-3.85 -0.34,-1.12 -0.89,-2.09 -1.7,-2.85 -0.82,-0.79 -1.9,-1.39 -3.24,-1.8 -1.34,-0.4 -3.02,-0.61 -5.05,-0.61l-1.9 0 0 -6.14 1.9 0c2.15,0 3.91,-0.18 5.26,-0.53 1.35,-0.36 2.41,-0.89 3.18,-1.61 0.76,-0.72 1.29,-1.64 1.59,-2.75 0.29,-1.11 0.44,-2.44 0.44,-3.97l0 -10.44c0,-2.47 0.3,-4.69 0.88,-6.68 0.59,-1.98 1.55,-3.67 2.88,-5.07 1.34,-1.39 3.07,-2.47 5.2,-3.2 2.13,-0.76 4.73,-1.13 7.81,-1.13l3.27 0 0 6.14 -2.61 0c-6.81,0 -10.21,3.3 -10.21,9.92l0 10.28c0,7.17 -3.1,11.22 -9.3,12.12 6.26,0.62 9.39,4.65 9.39,12.1l0 15.07c0,6.73 3.37,10.09 10.12,10.09l2.61 0 0 6.14zm180.1 25.36l-1.23 20.67 -7.24 0 -1.27 -20.67 9.74 0zm17.15 0l-1.23 20.67 -7.24 0 -1.28 -20.67 9.75 0zm49.99 62.28l0 -31.75c0,-1.39 -0.04,-2.52 -0.15,-3.4 -0.09,-0.88 -0.24,-1.58 -0.45,-2.09 -0.21,-0.52 -0.46,-0.88 -0.78,-1.09 -0.32,-0.19 -0.71,-0.3 -1.17,-0.3 -0.56,0 -1.07,0.18 -1.54,0.53 -0.46,0.36 -0.96,0.93 -1.5,1.72 -0.53,0.79 -1.13,1.84 -1.78,3.15 -0.64,1.31 -1.4,2.9 -2.29,4.82l0 28.41 -7.67 0 0 -30.92c0,-1.62 -0.04,-2.93 -0.15,-3.92 -0.09,-1.01 -0.24,-1.77 -0.45,-2.33 -0.21,-0.56 -0.48,-0.95 -0.81,-1.16 -0.33,-0.19 -0.73,-0.3 -1.21,-0.3 -0.49,0 -0.96,0.15 -1.39,0.44 -0.45,0.3 -0.93,0.82 -1.48,1.59 -0.54,0.75 -1.14,1.81 -1.8,3.13 -0.66,1.31 -1.45,3.01 -2.37,5.06l0 28.41 -7.67 0 0 -44.22 6.38 0 0.38 8.4c0.76,-1.66 1.52,-3.09 2.24,-4.27 0.72,-1.19 1.46,-2.13 2.22,-2.85 0.77,-0.73 1.59,-1.25 2.45,-1.59 0.86,-0.34 1.83,-0.51 2.9,-0.51 2.37,0 4.19,0.79 5.43,2.35 1.23,1.55 1.85,3.97 1.85,7.24 0.7,-1.54 1.39,-2.89 2.07,-4.1 0.68,-1.18 1.42,-2.18 2.2,-2.99 0.78,-0.81 1.64,-1.43 2.58,-1.85 0.96,-0.44 2.04,-0.65 3.27,-0.65 5.58,0 8.37,4.28 8.37,12.82l0 32.22 -7.68 0zm46.49 0l-0.17 -5.94c-2.41,2.38 -4.86,4.11 -7.34,5.16 -2.48,1.07 -5.1,1.6 -7.82,1.6 -2.53,0 -4.69,-0.34 -6.49,-0.98 -1.79,-0.65 -3.28,-1.54 -4.43,-2.67 -1.16,-1.12 -2.02,-2.45 -2.56,-3.98 -0.54,-1.54 -0.81,-3.19 -0.81,-4.98 0,-4.44 1.65,-7.91 4.96,-10.43 3.31,-2.51 8.19,-3.77 14.65,-3.77l9.18 0 0 -3.89c0,-2.63 -0.84,-4.72 -2.51,-6.29 -1.69,-1.59 -4.25,-2.37 -7.67,-2.37 -2.5,0 -4.97,0.29 -7.39,0.85 -2.42,0.56 -4.94,1.36 -7.52,2.4l0 -6.95c0.96,-0.35 2.05,-0.69 3.23,-1.02 1.19,-0.35 2.46,-0.63 3.77,-0.9 1.32,-0.26 2.7,-0.47 4.15,-0.64 1.42,-0.16 2.89,-0.24 4.34,-0.24 2.68,0 5.09,0.3 7.24,0.89 2.13,0.59 3.96,1.48 5.43,2.68 1.49,1.2 2.62,2.72 3.41,4.54 0.8,1.82 1.19,3.97 1.19,6.44l0 30.49 -6.84 0zm-0.83 -20.12l-9.73 0c-1.91,0 -3.57,0.19 -4.95,0.57 -1.37,0.37 -2.51,0.93 -3.38,1.62 -0.89,0.71 -1.54,1.55 -1.97,2.55 -0.43,0.97 -0.64,2.08 -0.64,3.32 0,0.84 0.14,1.65 0.39,2.44 0.27,0.78 0.7,1.47 1.28,2.07 0.59,0.6 1.36,1.07 2.3,1.43 0.93,0.35 2.08,0.52 3.43,0.52 1.76,0 3.79,-0.53 6.06,-1.6 2.28,-1.07 4.68,-2.77 7.21,-5.09l0 -7.83z"/>
   <path class="fil1" d="M1625.44 673.49c0,1.09 -0.02,2 -0.04,2.72 -0.04,0.74 -0.08,1.43 -0.14,2.08l-31.05 0c0,4.53 1.26,8.02 3.79,10.44 2.53,2.42 6.16,3.64 10.93,3.64 1.3,0 2.59,-0.04 3.89,-0.15 1.29,-0.11 2.54,-0.24 3.74,-0.42 1.21,-0.18 2.36,-0.38 3.46,-0.6 1.12,-0.21 2.13,-0.45 3.07,-0.72l0 6.31c-2.09,0.59 -4.45,1.07 -7.08,1.43 -2.62,0.38 -5.36,0.56 -8.17,0.56 -3.81,0 -7.07,-0.51 -9.8,-1.55 -2.73,-1.02 -4.97,-2.51 -6.72,-4.47 -1.76,-1.95 -3.05,-4.35 -3.88,-7.19 -0.84,-2.83 -1.27,-6.05 -1.27,-9.63 0,-3.11 0.46,-6.06 1.34,-8.84 0.9,-2.77 2.21,-5.22 3.93,-7.31 1.72,-2.11 3.82,-3.78 6.32,-5.01 2.5,-1.23 5.34,-1.85 8.51,-1.85 3.09,0 5.81,0.48 8.2,1.45 2.38,0.97 4.38,2.34 6,4.11 1.65,1.78 2.88,3.94 3.72,6.49 0.83,2.52 1.25,5.36 1.25,8.51zm-7.95 -1.07c0.1,-1.97 -0.1,-3.77 -0.57,-5.4 -0.46,-1.62 -1.2,-3.04 -2.18,-4.21 -0.99,-1.17 -2.21,-2.09 -3.68,-2.75 -1.48,-0.67 -3.18,-0.99 -5.12,-0.99 -1.68,0 -3.2,0.31 -4.58,0.96 -1.39,0.64 -2.58,1.56 -3.59,2.74 -0.99,1.17 -1.8,2.58 -2.42,4.24 -0.62,1.64 -0.99,3.44 -1.14,5.41l23.28 0zm60.1 25.55l-10.18 0 -11.93 -16.85 -11.84 16.85 -9.91 0 17.15 -22.24 -16.34 -21.99 9.82 0 11.6 17 11.44 -17 9.47 0 -16.63 22.14 17.35 22.09zm45.39 -0.63c-1.73,0.45 -3.52,0.76 -5.37,0.96 -1.85,0.19 -3.73,0.3 -5.64,0.3 -5.55,0 -9.69,-1.26 -12.41,-3.78 -2.74,-2.51 -4.09,-6.36 -4.09,-11.57l0 -23.1 -12.38 0 0 -6.41 12.38 0 0 -12.18 7.67 -1.99 0 14.17 19.84 0 0 6.41 -19.84 0 0 22.47c0,3.18 0.84,5.55 2.53,7.12 1.68,1.58 4.17,2.36 7.46,2.36 1.4,0 2.95,-0.11 4.62,-0.33 1.67,-0.21 3.42,-0.56 5.23,-1.02l0 6.59zm78.69 -37.28l-13.09 0 0 -6.32 20.85 0 0 37.82 13.18 0 0 6.41 -35.48 0 0 -6.41 14.54 0 0 -31.5zm2.7 -24.92c0.86,0 1.66,0.16 2.38,0.47 0.73,0.3 1.38,0.74 1.93,1.3 0.53,0.57 0.97,1.2 1.27,1.92 0.32,0.73 0.47,1.5 0.47,2.36 0,0.83 -0.15,1.61 -0.47,2.34 -0.3,0.73 -0.74,1.38 -1.27,1.95 -0.55,0.56 -1.2,0.99 -1.93,1.3 -0.72,0.31 -1.52,0.46 -2.38,0.46 -0.86,0 -1.65,-0.15 -2.38,-0.46 -0.73,-0.31 -1.38,-0.74 -1.92,-1.3 -0.54,-0.57 -0.98,-1.22 -1.28,-1.95 -0.32,-0.73 -0.47,-1.51 -0.47,-2.34 0,-0.86 0.15,-1.63 0.47,-2.36 0.3,-0.72 0.74,-1.35 1.28,-1.92 0.54,-0.56 1.19,-1 1.92,-1.3 0.73,-0.31 1.52,-0.47 2.38,-0.47zm31.85 18.6l6.83 0 0.31 7.13c1.3,-1.52 2.55,-2.8 3.75,-3.82 1.2,-1.01 2.38,-1.82 3.55,-2.44 1.16,-0.63 2.34,-1.05 3.54,-1.3 1.2,-0.26 2.45,-0.38 3.74,-0.38 4.56,0 8.01,1.34 10.34,4.03 2.33,2.69 3.5,6.74 3.5,12.14l0 28.87 -7.67 0 0 -28.27c0,-3.47 -0.65,-6.03 -1.94,-7.69 -1.29,-1.67 -3.22,-2.49 -5.76,-2.49 -0.95,0 -1.86,0.13 -2.75,0.42 -0.91,0.27 -1.84,0.76 -2.8,1.46 -0.98,0.69 -2.04,1.62 -3.16,2.79 -1.13,1.18 -2.39,2.65 -3.81,4.41l0 29.37 -7.67 0 0 -44.23zm63.71 -18.05l-1.23 20.66 -7.24 0 -1.27 -20.66 9.74 0zm17.15 0l-1.23 20.66 -7.24 0 -1.28 -20.66 9.75 0zm-314.93 317.07l-1.23 20.67 -7.24 0 -1.27 -20.67 9.74 0zm17.15 0l-1.23 20.67 -7.24 0 -1.28 -20.67 9.75 0zm56.22 39.37c0,3.67 -0.51,6.97 -1.52,9.85 -1.02,2.89 -2.45,5.36 -4.32,7.36 -1.86,2.02 -4.14,3.57 -6.81,4.63 -2.68,1.07 -5.69,1.61 -9.04,1.61 -2.6,0 -5.29,-0.25 -8.02,-0.75 -2.74,-0.49 -5.43,-1.29 -8.11,-2.38l0 -59.69 7.67 0 0 17.15 -0.34 8.2c2.19,-2.96 4.55,-5.05 7.07,-6.27 2.51,-1.22 5.2,-1.84 8.08,-1.84 2.52,0 4.75,0.53 6.66,1.6 1.91,1.05 3.5,2.54 4.8,4.47 1.29,1.92 2.27,4.24 2.91,6.96 0.65,2.72 0.97,5.75 0.97,9.1zm-7.85 0.33c0,-2.31 -0.17,-4.45 -0.51,-6.39 -0.34,-1.94 -0.87,-3.6 -1.62,-4.98 -0.72,-1.39 -1.66,-2.47 -2.81,-3.23 -1.14,-0.79 -2.51,-1.18 -4.09,-1.18 -0.98,0 -1.95,0.15 -2.96,0.47 -0.99,0.3 -2.03,0.82 -3.1,1.53 -1.07,0.73 -2.21,1.69 -3.4,2.88 -1.19,1.18 -2.45,2.66 -3.81,4.42l0 21.48c1.51,0.59 3.03,1.05 4.59,1.39 1.55,0.34 3.04,0.51 4.44,0.51 1.77,0 3.44,-0.29 5.05,-0.85 1.6,-0.55 3.01,-1.49 4.23,-2.8 1.22,-1.3 2.18,-3.04 2.9,-5.2 0.72,-2.15 1.09,-4.85 1.09,-8.05zm58.2 0.12c0,3.43 -0.48,6.59 -1.46,9.45 -0.96,2.88 -2.36,5.33 -4.18,7.37 -1.82,2.03 -4.05,3.63 -6.65,4.76 -2.62,1.12 -5.6,1.7 -8.91,1.7 -3.17,0 -6.01,-0.5 -8.52,-1.48 -2.51,-0.99 -4.65,-2.44 -6.4,-4.35 -1.74,-1.91 -3.08,-4.27 -4.01,-7.1 -0.92,-2.81 -1.39,-6.06 -1.39,-9.73 0,-3.45 0.48,-6.59 1.46,-9.42 0.96,-2.84 2.36,-5.28 4.18,-7.33 1.82,-2.03 4.05,-3.62 6.65,-4.75 2.62,-1.12 5.6,-1.7 8.91,-1.7 3.17,0 6.02,0.5 8.53,1.48 2.51,0.99 4.64,2.42 6.39,4.31 1.74,1.9 3.08,4.26 4.02,7.09 0.92,2.81 1.38,6.05 1.38,9.7zm-7.85 0.32c0,-2.73 -0.3,-5.12 -0.9,-7.16 -0.61,-2.05 -1.46,-3.75 -2.58,-5.11 -1.12,-1.38 -2.48,-2.4 -4.07,-3.09 -1.61,-0.69 -3.39,-1.04 -5.36,-1.04 -2.28,0 -4.25,0.45 -5.88,1.34 -1.62,0.9 -2.96,2.1 -4,3.59 -1.06,1.51 -1.81,3.25 -2.31,5.24 -0.48,1.99 -0.72,4.06 -0.72,6.23 0,2.74 0.3,5.14 0.91,7.19 0.6,2.06 1.46,3.78 2.57,5.14 1.13,1.37 2.47,2.4 4.06,3.09 1.58,0.69 3.37,1.04 5.37,1.04 2.29,0 4.26,-0.45 5.88,-1.34 1.63,-0.9 2.97,-2.11 4,-3.6 1.06,-1.5 1.81,-3.25 2.31,-5.24 0.48,-1.98 0.72,-4.07 0.72,-6.28zm34.02 -33.82l-13.09 0 0 -6.32 20.85 0 0 55.88 13.18 0 0 6.4 -35.48 0 0 -6.4 14.54 0 0 -49.56zm32.29 34.78c0,-3.76 0.52,-7.11 1.56,-10.03 1.02,-2.92 2.48,-5.39 4.39,-7.41 1.89,-2.01 4.16,-3.54 6.83,-4.58 2.66,-1.04 5.62,-1.57 8.89,-1.57 1.41,0 2.81,0.1 4.18,0.27 1.37,0.17 2.71,0.46 4.03,0.83l0 -18.61 7.67 0 0 62.28 -6.84 0 -0.26 -8.36c-2.15,3.13 -4.47,5.43 -6.98,6.93 -2.5,1.49 -5.2,2.25 -8.11,2.25 -2.52,0 -4.76,-0.53 -6.69,-1.6 -1.93,-1.05 -3.52,-2.54 -4.8,-4.47 -1.28,-1.92 -2.24,-4.24 -2.89,-6.93 -0.64,-2.71 -0.98,-5.7 -0.98,-9zm7.85 -0.51c0,5.34 0.79,9.34 2.37,11.98 1.58,2.63 3.81,3.94 6.68,3.94 1.95,0 4,-0.87 6.17,-2.6 2.15,-1.74 4.43,-4.31 6.81,-7.73l0 -20.54c-1.27,-0.59 -2.66,-1.04 -4.2,-1.34 -1.52,-0.32 -3.04,-0.47 -4.54,-0.47 -4.18,0 -7.43,1.35 -9.78,4.07 -2.33,2.69 -3.51,6.93 -3.51,12.69zm58.12 -40.59l-1.23 20.67 -7.24 0 -1.27 -20.67 9.74 0zm17.15 0l-1.23 20.67 -7.24 0 -1.28 -20.67 9.75 0zm-860.86 105.7l-1.23 20.66 -7.24 0 -1.27 -20.66 9.74 0zm17.15 0l-1.23 20.66 -7.24 0 -1.28 -20.66 9.75 0zm56.22 39.37c0,3.94 -0.56,7.36 -1.66,10.31 -1.09,2.94 -2.61,5.37 -4.56,7.31 -1.93,1.94 -4.22,3.41 -6.87,4.37 -2.64,0.98 -5.5,1.46 -8.59,1.46 -1.41,0 -2.82,-0.08 -4.21,-0.23 -1.4,-0.15 -2.81,-0.41 -4.26,-0.75l0 18.49 -7.67 0 0 -62.28 6.83 0 0.5 7.4c2.19,-3.04 4.54,-5.16 7.04,-6.38 2.49,-1.22 5.2,-1.84 8.11,-1.84 2.52,0 4.75,0.53 6.66,1.6 1.91,1.06 3.5,2.54 4.8,4.47 1.29,1.92 2.27,4.24 2.91,6.96 0.65,2.72 0.97,5.75 0.97,9.11zm-7.85 0.32c0,-2.31 -0.17,-4.45 -0.51,-6.39 -0.34,-1.94 -0.87,-3.6 -1.62,-4.98 -0.72,-1.38 -1.66,-2.46 -2.81,-3.23 -1.14,-0.78 -2.51,-1.18 -4.09,-1.18 -0.98,0 -1.95,0.16 -2.96,0.47 -0.99,0.3 -2.03,0.83 -3.1,1.53 -1.07,0.73 -2.21,1.69 -3.4,2.88 -1.19,1.19 -2.45,2.66 -3.81,4.42l0 21.48c1.42,0.59 2.89,1.06 4.45,1.39 1.55,0.34 3.09,0.51 4.58,0.51 4.15,0 7.39,-1.4 9.75,-4.21 2.35,-2.82 3.52,-7.03 3.52,-12.69zm48.11 22.58l-0.17 -5.94c-2.41,2.38 -4.86,4.11 -7.34,5.16 -2.48,1.07 -5.1,1.6 -7.82,1.6 -2.53,0 -4.7,-0.33 -6.49,-0.98 -1.79,-0.65 -3.28,-1.53 -4.43,-2.67 -1.16,-1.12 -2.02,-2.45 -2.56,-3.98 -0.54,-1.54 -0.81,-3.19 -0.81,-4.98 0,-4.44 1.65,-7.91 4.96,-10.42 3.31,-2.52 8.19,-3.78 14.65,-3.78l9.18 0 0 -3.88c0,-2.63 -0.84,-4.73 -2.51,-6.3 -1.69,-1.58 -4.25,-2.37 -7.67,-2.37 -2.5,0 -4.97,0.29 -7.39,0.85 -2.42,0.57 -4.94,1.36 -7.52,2.4l0 -6.95c0.96,-0.34 2.05,-0.69 3.23,-1.02 1.19,-0.35 2.45,-0.63 3.76,-0.9 1.33,-0.26 2.71,-0.47 4.15,-0.64 1.43,-0.16 2.9,-0.24 4.35,-0.24 2.68,0 5.09,0.31 7.24,0.89 2.13,0.59 3.96,1.48 5.43,2.68 1.49,1.2 2.62,2.72 3.41,4.54 0.8,1.82 1.19,3.98 1.19,6.44l0 30.49 -6.84 0zm-0.83 -20.12l-9.73 0c-1.91,0 -3.57,0.19 -4.95,0.57 -1.37,0.38 -2.51,0.93 -3.38,1.62 -0.89,0.71 -1.54,1.55 -1.97,2.55 -0.43,0.97 -0.64,2.09 -0.64,3.32 0,0.84 0.14,1.66 0.39,2.44 0.27,0.78 0.7,1.47 1.28,2.07 0.59,0.61 1.36,1.07 2.3,1.43 0.93,0.35 2.08,0.53 3.43,0.53 1.76,0 3.79,-0.54 6.06,-1.61 2.28,-1.07 4.68,-2.77 7.21,-5.09l0 -7.83zm23.82 -24.1l7.01 0 0.22 8.15c2.62,-3.14 5.19,-5.43 7.74,-6.84 2.54,-1.42 5.11,-2.13 7.7,-2.13 4.57,0 8.05,1.49 10.42,4.46 2.36,2.97 3.46,7.39 3.28,13.23l-7.76 0c0.09,-3.89 -0.48,-6.7 -1.7,-8.46 -1.22,-1.76 -3.01,-2.63 -5.36,-2.63 -1.02,0 -2.06,0.17 -3.09,0.55 -1.06,0.36 -2.13,0.95 -3.22,1.76 -1.12,0.81 -2.28,1.85 -3.51,3.13 -1.23,1.26 -2.56,2.8 -3.97,4.6l0 28.4 -7.76 0 0 -44.22zm76.27 44.22l-0.17 -5.94c-2.41,2.38 -4.86,4.11 -7.34,5.16 -2.48,1.07 -5.1,1.6 -7.82,1.6 -2.53,0 -4.7,-0.33 -6.49,-0.98 -1.79,-0.65 -3.28,-1.53 -4.43,-2.67 -1.16,-1.12 -2.02,-2.45 -2.56,-3.98 -0.54,-1.54 -0.81,-3.19 -0.81,-4.98 0,-4.44 1.65,-7.91 4.96,-10.42 3.31,-2.52 8.19,-3.78 14.65,-3.78l9.18 0 0 -3.88c0,-2.63 -0.84,-4.73 -2.51,-6.3 -1.69,-1.58 -4.25,-2.37 -7.67,-2.37 -2.5,0 -4.97,0.29 -7.39,0.85 -2.42,0.57 -4.94,1.36 -7.52,2.4l0 -6.95c0.96,-0.34 2.05,-0.69 3.23,-1.02 1.19,-0.35 2.45,-0.63 3.76,-0.9 1.32,-0.26 2.71,-0.47 4.15,-0.64 1.43,-0.16 2.9,-0.24 4.35,-0.24 2.68,0 5.09,0.31 7.24,0.89 2.13,0.59 3.96,1.48 5.43,2.68 1.49,1.2 2.62,2.72 3.41,4.54 0.8,1.82 1.19,3.98 1.19,6.44l0 30.49 -6.84 0zm-0.83 -20.12l-9.73 0c-1.91,0 -3.57,0.19 -4.95,0.57 -1.37,0.38 -2.51,0.93 -3.38,1.62 -0.89,0.71 -1.54,1.55 -1.97,2.55 -0.43,0.97 -0.64,2.09 -0.64,3.32 0,0.84 0.14,1.66 0.39,2.44 0.27,0.78 0.7,1.47 1.28,2.07 0.59,0.61 1.36,1.07 2.3,1.43 0.93,0.35 2.08,0.53 3.43,0.53 1.76,0 3.79,-0.54 6.06,-1.61 2.28,-1.07 4.68,-2.77 7.21,-5.09l0 -7.83zm53.89 -17.87c0.82,1.02 1.46,2.22 1.93,3.59 0.45,1.37 0.67,2.86 0.67,4.44 0,2.3 -0.42,4.39 -1.26,6.29 -0.83,1.89 -2.02,3.52 -3.54,4.87 -1.53,1.36 -3.37,2.39 -5.49,3.15 -2.13,0.75 -4.48,1.12 -7.04,1.12 -1.85,0 -3.58,-0.19 -5.2,-0.6 -1.61,-0.39 -2.89,-0.89 -3.84,-1.48 -0.56,0.83 -1.02,1.62 -1.4,2.35 -0.37,0.72 -0.57,1.55 -0.57,2.45 0,1.14 0.54,2.05 1.61,2.79 1.07,0.73 2.5,1.13 4.26,1.19l11.64 0.44c2.19,0.05 4.24,0.34 6.11,0.83 1.86,0.5 3.46,1.22 4.8,2.16 1.33,0.95 2.37,2.1 3.12,3.49 0.76,1.36 1.13,2.98 1.13,4.79 0,1.98 -0.42,3.84 -1.27,5.6 -0.86,1.76 -2.17,3.31 -3.95,4.65 -1.77,1.32 -4.03,2.39 -6.76,3.19 -2.74,0.8 -5.99,1.19 -9.75,1.19 -3.58,0 -6.64,-0.29 -9.15,-0.86 -2.51,-0.57 -4.58,-1.37 -6.18,-2.38 -1.63,-1 -2.8,-2.21 -3.54,-3.61 -0.74,-1.4 -1.1,-2.92 -1.1,-4.58 0,-2.16 0.5,-4.04 1.49,-5.65 0.99,-1.6 2.54,-3.17 4.62,-4.66 -0.77,-0.35 -1.43,-0.8 -1.98,-1.32 -0.56,-0.53 -1.01,-1.12 -1.36,-1.75 -0.34,-0.63 -0.61,-1.29 -0.79,-2 -0.17,-0.71 -0.26,-1.4 -0.26,-2.07 0,-1.92 0.45,-3.66 1.34,-5.25 0.89,-1.6 1.95,-3.09 3.17,-4.5 -0.55,-0.68 -1.04,-1.34 -1.48,-1.99 -0.42,-0.65 -0.77,-1.34 -1.09,-2.09 -0.3,-0.75 -0.54,-1.56 -0.71,-2.42 -0.17,-0.87 -0.24,-1.87 -0.24,-2.98 0,-2.3 0.42,-4.39 1.27,-6.29 0.82,-1.89 2.01,-3.52 3.51,-4.87 1.52,-1.36 3.34,-2.39 5.48,-3.14 2.14,-0.76 4.49,-1.14 7.07,-1.14 1.1,0 2.14,0.08 3.15,0.23 0.99,0.15 1.87,0.35 2.64,0.59l16.05 0 0 6.23 -7.11 0zm-26.64 44.39c0,2.07 1.08,3.59 3.26,4.54 2.18,0.95 5.21,1.43 9.09,1.43 2.43,0 4.5,-0.23 6.15,-0.66 1.67,-0.44 2.99,-1.01 4.02,-1.73 1,-0.72 1.74,-1.54 2.18,-2.45 0.43,-0.93 0.66,-1.89 0.66,-2.85 0,-1.77 -0.74,-3.09 -2.21,-3.94 -1.46,-0.86 -3.72,-1.35 -6.74,-1.5l-11.56 -0.39c-0.97,0.64 -1.77,1.28 -2.4,1.88 -0.63,0.62 -1.13,1.24 -1.48,1.88 -0.36,0.61 -0.62,1.25 -0.75,1.88 -0.15,0.63 -0.22,1.26 -0.22,1.91zm2.35 -36.18c0,1.41 0.24,2.71 0.7,3.88 0.47,1.17 1.13,2.17 1.99,3 0.84,0.82 1.84,1.45 3.02,1.92 1.16,0.45 2.44,0.67 3.85,0.67 1.53,0 2.89,-0.25 4.08,-0.76 1.18,-0.51 2.19,-1.22 2.99,-2.09 0.81,-0.89 1.43,-1.9 1.85,-3.06 0.44,-1.14 0.65,-2.33 0.65,-3.56 0,-1.41 -0.24,-2.71 -0.71,-3.88 -0.46,-1.18 -1.13,-2.17 -1.98,-2.99 -0.85,-0.83 -1.86,-1.47 -3.03,-1.93 -1.16,-0.45 -2.43,-0.68 -3.85,-0.68 -1.54,0 -2.89,0.27 -4.07,0.8 -1.2,0.53 -2.2,1.22 -3,2.09 -0.81,0.87 -1.43,1.87 -1.85,3.02 -0.43,1.15 -0.64,2.34 -0.64,3.57zm43.85 -14.44l7.01 0 0.22 8.15c2.62,-3.14 5.19,-5.43 7.74,-6.84 2.54,-1.42 5.11,-2.13 7.7,-2.13 4.57,0 8.05,1.49 10.42,4.46 2.36,2.97 3.46,7.39 3.28,13.23l-7.76 0c0.09,-3.89 -0.48,-6.7 -1.7,-8.46 -1.22,-1.76 -3.01,-2.63 -5.36,-2.63 -1.02,0 -2.06,0.17 -3.09,0.55 -1.06,0.36 -2.13,0.95 -3.22,1.76 -1.12,0.81 -2.28,1.85 -3.51,3.13 -1.23,1.26 -2.56,2.8 -3.97,4.6l0 28.4 -7.76 0 0 -44.22zm76.27 44.22l-0.17 -5.94c-2.41,2.38 -4.86,4.11 -7.34,5.16 -2.48,1.07 -5.1,1.6 -7.82,1.6 -2.53,0 -4.7,-0.33 -6.49,-0.98 -1.79,-0.65 -3.28,-1.53 -4.43,-2.67 -1.16,-1.12 -2.02,-2.45 -2.56,-3.98 -0.54,-1.54 -0.81,-3.19 -0.81,-4.98 0,-4.44 1.65,-7.91 4.96,-10.42 3.31,-2.52 8.19,-3.78 14.65,-3.78l9.18 0 0 -3.88c0,-2.63 -0.84,-4.73 -2.51,-6.3 -1.69,-1.58 -4.25,-2.37 -7.67,-2.37 -2.5,0 -4.97,0.29 -7.39,0.85 -2.42,0.57 -4.94,1.36 -7.52,2.4l0 -6.95c0.96,-0.34 2.05,-0.69 3.23,-1.02 1.19,-0.35 2.45,-0.63 3.76,-0.9 1.32,-0.26 2.71,-0.47 4.15,-0.64 1.43,-0.16 2.9,-0.24 4.35,-0.24 2.68,0 5.09,0.31 7.24,0.89 2.13,0.59 3.95,1.48 5.43,2.68 1.49,1.2 2.62,2.72 3.41,4.54 0.8,1.82 1.19,3.98 1.19,6.44l0 30.49 -6.84 0zm-0.83 -20.12l-9.73 0c-1.91,0 -3.57,0.19 -4.95,0.57 -1.37,0.38 -2.51,0.93 -3.38,1.62 -0.89,0.71 -1.54,1.55 -1.97,2.55 -0.43,0.97 -0.64,2.09 -0.64,3.32 0,0.84 0.14,1.66 0.39,2.44 0.27,0.78 0.7,1.47 1.28,2.07 0.59,0.61 1.35,1.07 2.3,1.43 0.93,0.35 2.08,0.53 3.43,0.53 1.76,0 3.79,-0.54 6.06,-1.61 2.28,-1.07 4.68,-2.77 7.21,-5.09l0 -7.83zm59.83 -2.78c0,3.94 -0.56,7.36 -1.66,10.31 -1.09,2.94 -2.61,5.37 -4.56,7.31 -1.93,1.94 -4.22,3.41 -6.87,4.37 -2.64,0.98 -5.5,1.46 -8.59,1.46 -1.41,0 -2.82,-0.08 -4.21,-0.23 -1.4,-0.15 -2.81,-0.41 -4.26,-0.75l0 18.49 -7.67 0 0 -62.28 6.83 0 0.5 7.4c2.19,-3.04 4.54,-5.16 7.04,-6.38 2.49,-1.22 5.2,-1.84 8.11,-1.84 2.52,0 4.75,0.53 6.66,1.6 1.91,1.06 3.5,2.54 4.8,4.47 1.29,1.92 2.27,4.24 2.91,6.96 0.65,2.72 0.97,5.75 0.97,9.11zm-7.85 0.32c0,-2.31 -0.17,-4.45 -0.51,-6.39 -0.34,-1.94 -0.87,-3.6 -1.62,-4.98 -0.72,-1.38 -1.66,-2.46 -2.81,-3.23 -1.14,-0.78 -2.51,-1.18 -4.09,-1.18 -0.98,0 -1.95,0.16 -2.96,0.47 -0.99,0.3 -2.03,0.83 -3.1,1.53 -1.07,0.73 -2.21,1.69 -3.4,2.88 -1.19,1.19 -2.45,2.66 -3.81,4.42l0 21.48c1.42,0.59 2.89,1.06 4.45,1.39 1.55,0.34 3.09,0.51 4.58,0.51 4.15,0 7.39,-1.4 9.75,-4.21 2.35,-2.82 3.52,-7.03 3.52,-12.69zm55.23 22.58l-7.68 0 0 -28.26c0,-3.42 -0.63,-5.96 -1.91,-7.64 -1.28,-1.71 -3.12,-2.54 -5.49,-2.54 -1.02,0 -1.99,0.13 -2.89,0.41 -0.89,0.28 -1.82,0.77 -2.79,1.46 -0.97,0.69 -2.02,1.63 -3.17,2.8 -1.15,1.17 -2.46,2.65 -3.97,4.41l0 29.36 -7.67 0 0 -62.27 7.67 0 0 18.03 -0.27 6.97c1.2,-1.45 2.4,-2.66 3.55,-3.64 1.16,-0.99 2.34,-1.79 3.49,-2.41 1.16,-0.62 2.34,-1.06 3.54,-1.32 1.2,-0.26 2.45,-0.4 3.74,-0.4 4.41,0 7.83,1.35 10.23,4.04 2.41,2.69 3.62,6.74 3.62,12.13l0 28.87zm28.14 -62.27l-1.23 20.66 -7.24 0 -1.27 -20.66 9.74 0zm17.15 0l-1.23 20.66 -7.24 0 -1.28 -20.66 9.75 0z"/>
   <path class="fil0" d="M746.17 970.82l7.01 0 0.22 8.15c2.62,-3.14 5.19,-5.43 7.74,-6.84 2.54,-1.42 5.11,-2.13 7.7,-2.13 4.57,0 8.05,1.49 10.42,4.45 2.36,2.98 3.46,7.39 3.28,13.24l-7.76 0c0.09,-3.89 -0.48,-6.71 -1.7,-8.47 -1.22,-1.76 -3.01,-2.63 -5.36,-2.63 -1.02,0 -2.06,0.18 -3.09,0.56 -1.06,0.36 -2.13,0.95 -3.22,1.76 -1.12,0.81 -2.27,1.85 -3.51,3.13 -1.23,1.26 -2.56,2.8 -3.97,4.6l0 28.4 -7.76 0 0 -44.22zm87.63 44.22l-10.56 0 -20.58 -23.7 0 23.7 -7.67 0 0 -62.28 7.67 0 0 38.26 19.85 -20.2 10.11 0 -20.67 20.38 21.85 23.84zm44.93 -12.06c0,1.56 -0.27,2.96 -0.79,4.19 -0.53,1.24 -1.25,2.34 -2.17,3.28 -0.9,0.97 -1.97,1.78 -3.18,2.46 -1.2,0.67 -2.49,1.23 -3.86,1.67 -1.37,0.43 -2.77,0.76 -4.21,0.96 -1.45,0.21 -2.84,0.32 -4.23,0.32 -3.01,0 -5.76,-0.14 -8.29,-0.41 -2.51,-0.27 -4.98,-0.71 -7.38,-1.31l0 -7.04c2.58,0.74 5.15,1.3 7.71,1.68 2.58,0.38 5.12,0.58 7.64,0.58 3.69,0 6.41,-0.5 8.17,-1.49 1.76,-1.01 2.65,-2.43 2.65,-4.27 0,-0.8 -0.13,-1.51 -0.42,-2.14 -0.27,-0.63 -0.78,-1.24 -1.52,-1.8 -0.74,-0.58 -1.88,-1.18 -3.43,-1.8 -1.55,-0.61 -3.66,-1.32 -6.35,-2.1 -2,-0.6 -3.85,-1.27 -5.54,-2.02 -1.69,-0.75 -3.15,-1.64 -4.4,-2.66 -1.23,-1.02 -2.2,-2.24 -2.91,-3.61 -0.7,-1.38 -1.06,-3.03 -1.06,-4.91 0,-1.23 0.28,-2.58 0.85,-4.04 0.59,-1.48 1.57,-2.85 2.95,-4.11 1.39,-1.26 3.25,-2.31 5.61,-3.14 2.37,-0.85 5.31,-1.27 8.85,-1.27 1.74,0 3.67,0.09 5.79,0.29 2.12,0.18 4.33,0.51 6.63,0.98l0 6.86c-2.42,-0.59 -4.7,-1.03 -6.87,-1.3 -2.18,-0.28 -4.06,-0.42 -5.64,-0.42 -1.93,0 -3.54,0.15 -4.86,0.44 -1.31,0.3 -2.38,0.71 -3.18,1.22 -0.81,0.51 -1.39,1.11 -1.76,1.79 -0.34,0.69 -0.52,1.43 -0.52,2.22 0,0.8 0.15,1.52 0.46,2.17 0.3,0.65 0.89,1.26 1.72,1.87 0.84,0.59 2.02,1.2 3.52,1.8 1.5,0.6 3.46,1.26 5.88,1.97 2.62,0.77 4.83,1.56 6.63,2.41 1.79,0.83 3.25,1.76 4.37,2.8 1.12,1.02 1.92,2.18 2.42,3.47 0.48,1.3 0.72,2.77 0.72,4.41zm28.6 -50.22l-1.23 20.67 -7.24 0 -1.27 -20.67 9.74 0zm17.15 0l-1.23 20.67 -7.24 0 -1.28 -20.67 9.75 0zm36.17 17.24c0.9,0 1.77,0.18 2.6,0.56 0.81,0.36 1.53,0.85 2.15,1.47 0.62,0.62 1.11,1.34 1.48,2.15 0.37,0.83 0.55,1.71 0.55,2.61 0,0.94 -0.18,1.82 -0.55,2.63 -0.37,0.81 -0.86,1.52 -1.48,2.14 -0.62,0.61 -1.34,1.1 -2.15,1.46 -0.83,0.34 -1.7,0.52 -2.6,0.52 -0.95,0 -1.82,-0.18 -2.64,-0.52 -0.81,-0.36 -1.52,-0.85 -2.13,-1.46 -0.62,-0.62 -1.1,-1.33 -1.46,-2.14 -0.35,-0.81 -0.53,-1.69 -0.53,-2.63 0,-0.9 0.18,-1.78 0.53,-2.61 0.36,-0.81 0.84,-1.53 1.46,-2.15 0.61,-0.62 1.32,-1.11 2.13,-1.47 0.82,-0.38 1.69,-0.56 2.64,-0.56zm0 32.32c0.9,0 1.77,0.18 2.6,0.55 0.81,0.36 1.53,0.86 2.15,1.48 0.62,0.61 1.11,1.33 1.48,2.15 0.37,0.83 0.55,1.7 0.55,2.6 0,0.95 -0.18,1.82 -0.55,2.63 -0.37,0.82 -0.86,1.52 -1.48,2.14 -0.62,0.61 -1.34,1.1 -2.15,1.46 -0.83,0.34 -1.7,0.53 -2.6,0.53 -0.95,0 -1.82,-0.19 -2.64,-0.53 -0.81,-0.36 -1.52,-0.85 -2.13,-1.46 -0.62,-0.62 -1.1,-1.32 -1.46,-2.14 -0.35,-0.81 -0.53,-1.68 -0.53,-2.63 0,-0.9 0.18,-1.77 0.53,-2.6 0.36,-0.82 0.84,-1.54 1.46,-2.15 0.61,-0.62 1.32,-1.12 2.13,-1.48 0.82,-0.37 1.69,-0.55 2.64,-0.55zm111.46 30.78l-21.76 0 0 -81.87 21.76 0 0 6.14 -14.44 0 0 69.58 14.44 0 0 6.15zm52.16 0l-3.27 0c-5.65,0 -9.87,-1.33 -12.64,-3.99 -2.75,-2.67 -4.13,-6.69 -4.13,-12.1l0 -15.14c0,-1.45 -0.17,-2.73 -0.48,-3.86 -0.34,-1.12 -0.89,-2.09 -1.7,-2.85 -0.82,-0.79 -1.9,-1.39 -3.24,-1.79 -1.34,-0.41 -3.02,-0.62 -5.05,-0.62l-1.9 0 0 -6.14 1.9 0c2.15,0 3.91,-0.18 5.26,-0.52 1.35,-0.37 2.41,-0.9 3.18,-1.62 0.76,-0.72 1.29,-1.63 1.59,-2.75 0.29,-1.11 0.44,-2.44 0.44,-3.97l0 -10.44c0,-2.47 0.3,-4.69 0.88,-6.68 0.59,-1.98 1.55,-3.67 2.88,-5.07 1.34,-1.38 3.07,-2.46 5.2,-3.2 2.13,-0.75 4.72,-1.13 7.81,-1.13l3.27 0 0 6.14 -2.61 0c-6.81,0 -10.21,3.3 -10.21,9.93l0 10.27c0,7.17 -3.1,11.22 -9.3,12.12 6.26,0.62 9.39,4.65 9.39,12.1l0 15.07c0,6.73 3.37,10.09 10.12,10.09l2.61 0 0 6.15zm80.84 -80.34l-1.23 20.67 -7.24 0 -1.27 -20.67 9.74 0zm17.15 0l-1.23 20.67 -7.24 0 -1.28 -20.67 9.75 0zm54.05 61.65c-1.73,0.45 -3.52,0.77 -5.37,0.97 -1.85,0.19 -3.73,0.29 -5.64,0.29 -5.55,0 -9.69,-1.26 -12.41,-3.77 -2.74,-2.51 -4.09,-6.37 -4.09,-11.57l0 -23.11 -12.38 0 0 -6.4 12.38 0 0 -12.19 7.67 -1.98 0 14.17 19.84 0 0 6.4 -19.84 0 0 22.48c0,3.17 0.84,5.55 2.53,7.11 1.68,1.59 4.17,2.36 7.46,2.36 1.4,0 2.95,-0.1 4.62,-0.32 1.67,-0.21 3.42,-0.56 5.23,-1.03l0 6.59zm53.29 -43.59l-15.04 39.48c-1.55,4.04 -3.17,7.51 -4.83,10.43 -1.66,2.92 -3.48,5.31 -5.45,7.19 -1.95,1.86 -4.12,3.25 -6.47,4.12 -2.34,0.89 -4.97,1.33 -7.9,1.33 -0.75,0 -1.44,-0.02 -2.05,-0.05 -0.62,-0.03 -1.3,-0.08 -2.04,-0.14l0 -6.95c0.65,0.1 1.36,0.17 2.12,0.24 0.76,0.08 1.57,0.13 2.43,0.13 1.4,0 2.72,-0.21 3.94,-0.62 1.22,-0.41 2.37,-1.08 3.46,-2 1.08,-0.93 2.12,-2.14 3.12,-3.6 1,-1.47 1.98,-3.24 2.91,-5.34l-17.7 -44.22 8.72 0 11.22 29.29 2.26 6.82 2.56 -7.03 10.33 -29.08 8.41 0zm48.14 21.31c0,3.94 -0.56,7.37 -1.66,10.32 -1.09,2.94 -2.61,5.37 -4.56,7.31 -1.93,1.94 -4.22,3.4 -6.87,4.37 -2.64,0.97 -5.5,1.45 -8.59,1.45 -1.41,0 -2.82,-0.07 -4.21,-0.22 -1.4,-0.15 -2.81,-0.41 -4.26,-0.75l0 18.49 -7.67 0 0 -62.28 6.83 0 0.5 7.4c2.19,-3.04 4.54,-5.16 7.04,-6.38 2.49,-1.22 5.2,-1.84 8.11,-1.84 2.52,0 4.75,0.53 6.66,1.6 1.91,1.05 3.5,2.54 4.8,4.47 1.29,1.92 2.27,4.24 2.91,6.96 0.65,2.72 0.97,5.75 0.97,9.1zm-7.85 0.33c0,-2.31 -0.17,-4.45 -0.51,-6.39 -0.34,-1.94 -0.87,-3.6 -1.62,-4.98 -0.72,-1.39 -1.66,-2.47 -2.81,-3.23 -1.14,-0.79 -2.51,-1.18 -4.09,-1.18 -0.98,0 -1.95,0.15 -2.96,0.47 -0.99,0.3 -2.03,0.82 -3.1,1.53 -1.07,0.73 -2.21,1.69 -3.4,2.88 -1.19,1.18 -2.45,2.66 -3.81,4.42l0 21.48c1.42,0.59 2.89,1.05 4.45,1.39 1.55,0.34 3.09,0.51 4.58,0.51 4.15,0 7.39,-1.4 9.75,-4.21 2.35,-2.82 3.52,-7.03 3.52,-12.69zm57.03 -1.89c0,1.08 -0.02,2 -0.04,2.72 -0.04,0.74 -0.08,1.43 -0.14,2.08l-31.05 0c0,4.53 1.26,8.02 3.79,10.44 2.53,2.42 6.16,3.63 10.93,3.63 1.3,0 2.59,-0.04 3.89,-0.14 1.29,-0.11 2.54,-0.24 3.74,-0.42 1.21,-0.19 2.36,-0.38 3.46,-0.61 1.12,-0.21 2.13,-0.45 3.07,-0.72l0 6.32c-2.09,0.58 -4.45,1.06 -7.08,1.43 -2.62,0.37 -5.36,0.56 -8.17,0.56 -3.81,0 -7.07,-0.52 -9.8,-1.55 -2.73,-1.03 -4.97,-2.52 -6.72,-4.47 -1.76,-1.96 -3.05,-4.35 -3.88,-7.19 -0.84,-2.83 -1.27,-6.05 -1.27,-9.63 0,-3.11 0.46,-6.06 1.34,-8.85 0.9,-2.76 2.21,-5.22 3.93,-7.31 1.72,-2.1 3.82,-3.77 6.32,-5.01 2.5,-1.23 5.34,-1.85 8.51,-1.85 3.09,0 5.81,0.48 8.2,1.46 2.38,0.96 4.38,2.33 6,4.11 1.65,1.78 2.88,3.94 3.72,6.48 0.83,2.53 1.25,5.37 1.25,8.52zm-7.95 -1.07c0.1,-1.97 -0.1,-3.78 -0.57,-5.4 -0.46,-1.63 -1.2,-3.04 -2.18,-4.21 -0.99,-1.18 -2.21,-2.09 -3.68,-2.75 -1.48,-0.67 -3.18,-1 -5.12,-1 -1.68,0 -3.2,0.31 -4.58,0.96 -1.39,0.65 -2.58,1.57 -3.59,2.74 -0.99,1.17 -1.8,2.59 -2.42,4.24 -0.62,1.64 -0.99,3.45 -1.14,5.42l23.28 0zm34.29 -36.74l-1.23 20.67 -7.24 0 -1.27 -20.67 9.74 0zm17.15 0l-1.23 20.67 -7.24 0 -1.28 -20.67 9.75 0zm36.17 17.24c0.9,0 1.77,0.18 2.6,0.56 0.81,0.36 1.53,0.85 2.15,1.47 0.62,0.62 1.11,1.34 1.48,2.15 0.37,0.83 0.55,1.71 0.55,2.61 0,0.94 -0.18,1.82 -0.55,2.63 -0.37,0.81 -0.86,1.52 -1.48,2.14 -0.62,0.61 -1.34,1.1 -2.15,1.46 -0.83,0.34 -1.7,0.52 -2.6,0.52 -0.95,0 -1.82,-0.18 -2.64,-0.52 -0.81,-0.36 -1.52,-0.85 -2.13,-1.46 -0.62,-0.62 -1.1,-1.33 -1.46,-2.14 -0.35,-0.81 -0.53,-1.69 -0.53,-2.63 0,-0.9 0.18,-1.78 0.53,-2.61 0.36,-0.81 0.84,-1.53 1.46,-2.15 0.61,-0.62 1.32,-1.11 2.13,-1.47 0.82,-0.38 1.69,-0.56 2.64,-0.56zm0 32.32c0.9,0 1.77,0.18 2.6,0.55 0.81,0.36 1.53,0.86 2.15,1.48 0.62,0.61 1.11,1.33 1.48,2.15 0.37,0.83 0.55,1.7 0.55,2.6 0,0.95 -0.18,1.82 -0.55,2.63 -0.37,0.82 -0.86,1.52 -1.48,2.14 -0.62,0.61 -1.34,1.1 -2.15,1.46 -0.83,0.34 -1.7,0.53 -2.6,0.53 -0.95,0 -1.82,-0.19 -2.64,-0.53 -0.81,-0.36 -1.52,-0.85 -2.13,-1.46 -0.62,-0.62 -1.1,-1.32 -1.46,-2.14 -0.35,-0.81 -0.53,-1.68 -0.53,-2.63 0,-0.9 0.18,-1.77 0.53,-2.6 0.36,-0.82 0.84,-1.54 1.46,-2.15 0.61,-0.62 1.32,-1.12 2.13,-1.48 0.82,-0.37 1.69,-0.55 2.64,-0.55zm431.97 -51.09l3.27 0c5.65,0 9.86,1.32 12.63,3.98 2.75,2.67 4.13,6.7 4.13,12.1l0 10.18c0,1.43 0.17,2.73 0.49,3.86 0.33,1.12 0.89,2.08 1.7,2.85 0.8,0.79 1.88,1.39 3.23,1.79 1.35,0.41 3.04,0.62 5.06,0.62l1.89 0 0 6.14 -1.89 0c-2.14,0 -3.9,0.18 -5.25,0.52 -1.37,0.37 -2.44,0.89 -3.19,1.62 -0.77,0.72 -1.3,1.63 -1.6,2.75 -0.28,1.11 -0.44,2.44 -0.44,3.97l0 15.4c0,2.47 -0.29,4.69 -0.88,6.68 -0.59,1.99 -1.54,3.67 -2.86,5.07 -1.32,1.39 -3.05,2.47 -5.19,3.2 -2.15,0.76 -4.75,1.14 -7.83,1.14l-3.27 0 0 -6.15 2.65 0c6.78,0 10.16,-3.3 10.16,-9.91l0 -15.25c0,-7.17 3.11,-11.21 9.3,-12.1 -6.26,-0.66 -9.38,-4.7 -9.38,-12.12l0 -10.1c0,-6.73 -3.36,-10.1 -10.08,-10.1l-2.65 0 0 -6.14zm73.91 81.87l-21.76 0 0 -6.15 14.36 0 0 -69.58 -14.36 0 0 -6.14 21.76 0 0 81.87zm25.71 -9.03c1.5,0.06 2.95,-0.08 4.36,-0.4 1.42,-0.32 2.65,-0.79 3.73,-1.42 1.07,-0.63 1.93,-1.42 2.57,-2.35 0.65,-0.93 0.97,-2 0.97,-3.2 0,-1.22 -0.21,-2.22 -0.63,-2.98 -0.42,-0.77 -0.9,-1.48 -1.43,-2.12 -0.53,-0.65 -1.01,-1.34 -1.44,-2.08 -0.43,-0.74 -0.64,-1.71 -0.64,-2.96 0,-0.62 0.12,-1.27 0.35,-1.94 0.24,-0.68 0.6,-1.3 1.08,-1.85 0.5,-0.56 1.11,-1.01 1.85,-1.37 0.75,-0.35 1.64,-0.53 2.68,-0.53 1.02,0 2.01,0.21 2.98,0.63 0.95,0.44 1.79,1.09 2.51,1.97 0.72,0.88 1.29,1.97 1.72,3.3 0.43,1.32 0.64,2.89 0.64,4.68 0,2.44 -0.45,4.76 -1.34,7.02 -0.9,2.24 -2.24,4.23 -4.02,5.96 -1.77,1.73 -4,3.11 -6.66,4.15 -2.66,1.03 -5.74,1.54 -9.28,1.54l0 -6.05zm-1428.62 34.39l-1.23 20.66 -7.24 0 -1.27 -20.66 9.74 0zm17.15 0l-1.23 20.66 -7.24 0 -1.28 -20.66 9.75 0zm54.05 61.65c-1.73,0.45 -3.52,0.76 -5.37,0.96 -1.85,0.19 -3.73,0.29 -5.64,0.29 -5.55,0 -9.69,-1.25 -12.41,-3.77 -2.74,-2.51 -4.09,-6.36 -4.09,-11.57l0 -23.11 -12.38 0 0 -6.4 12.38 0 0 -12.19 7.67 -1.98 0 14.17 19.84 0 0 6.4 -19.84 0 0 22.48c0,3.18 0.84,5.55 2.53,7.12 1.69,1.58 4.17,2.36 7.46,2.36 1.4,0 2.95,-0.11 4.62,-0.33 1.67,-0.21 3.42,-0.56 5.23,-1.03l0 6.6zm51.35 -23.85c0,1.08 -0.02,2 -0.04,2.72 -0.03,0.74 -0.08,1.43 -0.14,2.08l-31.05 0c0,4.53 1.26,8.02 3.79,10.44 2.53,2.42 6.17,3.64 10.93,3.64 1.3,0 2.59,-0.04 3.89,-0.15 1.29,-0.11 2.54,-0.24 3.74,-0.42 1.21,-0.19 2.36,-0.38 3.46,-0.61 1.12,-0.21 2.13,-0.45 3.07,-0.72l0 6.32c-2.09,0.59 -4.45,1.07 -7.08,1.43 -2.62,0.37 -5.36,0.56 -8.17,0.56 -3.81,0 -7.07,-0.51 -9.79,-1.55 -2.74,-1.03 -4.98,-2.51 -6.73,-4.47 -1.76,-1.95 -3.05,-4.35 -3.88,-7.19 -0.84,-2.83 -1.27,-6.05 -1.27,-9.63 0,-3.11 0.46,-6.06 1.34,-8.85 0.91,-2.76 2.22,-5.22 3.93,-7.3 1.72,-2.11 3.82,-3.78 6.32,-5.01 2.5,-1.24 5.34,-1.86 8.51,-1.86 3.09,0 5.81,0.49 8.2,1.46 2.38,0.96 4.38,2.34 6,4.11 1.65,1.78 2.88,3.94 3.72,6.49 0.83,2.52 1.25,5.36 1.25,8.51zm-7.94 -1.07c0.09,-1.97 -0.11,-3.78 -0.58,-5.4 -0.46,-1.63 -1.2,-3.04 -2.18,-4.21 -0.99,-1.18 -2.21,-2.09 -3.68,-2.75 -1.48,-0.67 -3.17,-1 -5.12,-1 -1.68,0 -3.2,0.32 -4.58,0.97 -1.39,0.64 -2.58,1.56 -3.59,2.73 -0.99,1.18 -1.8,2.59 -2.42,4.25 -0.62,1.63 -0.99,3.44 -1.14,5.41l23.29 0zm60.09 25.54l-10.18 0 -11.93 -16.85 -11.84 16.85 -9.91 0 17.15 -22.23 -16.34 -21.99 9.82 0 11.61 17 11.43 -17 9.47 0 -16.63 22.14 17.35 22.08zm45.39 -0.62c-1.73,0.45 -3.52,0.76 -5.37,0.96 -1.85,0.19 -3.73,0.29 -5.64,0.29 -5.55,0 -9.69,-1.25 -12.41,-3.77 -2.74,-2.51 -4.09,-6.36 -4.09,-11.57l0 -23.11 -12.38 0 0 -6.4 12.38 0 0 -12.19 7.67 -1.98 0 14.17 19.84 0 0 6.4 -19.84 0 0 22.48c0,3.18 0.84,5.55 2.53,7.12 1.69,1.58 4.17,2.36 7.46,2.36 1.4,0 2.95,-0.11 4.62,-0.33 1.67,-0.21 3.42,-0.56 5.23,-1.03l0 6.6zm28.06 -61.65l-1.23 20.66 -7.24 0 -1.27 -20.66 9.74 0zm17.15 0l-1.23 20.66 -7.24 0 -1.28 -20.66 9.75 0zm36.17 17.23c0.9,0 1.77,0.18 2.6,0.56 0.81,0.36 1.53,0.86 2.15,1.48 0.62,0.62 1.11,1.34 1.48,2.15 0.37,0.82 0.55,1.7 0.55,2.6 0,0.95 -0.18,1.82 -0.55,2.63 -0.37,0.81 -0.86,1.52 -1.48,2.14 -0.62,0.61 -1.34,1.1 -2.15,1.46 -0.83,0.34 -1.7,0.52 -2.6,0.52 -0.95,0 -1.82,-0.18 -2.64,-0.52 -0.81,-0.36 -1.52,-0.85 -2.13,-1.46 -0.62,-0.62 -1.1,-1.33 -1.46,-2.14 -0.35,-0.81 -0.53,-1.68 -0.53,-2.63 0,-0.9 0.18,-1.78 0.53,-2.6 0.36,-0.81 0.84,-1.53 1.46,-2.15 0.61,-0.62 1.32,-1.12 2.13,-1.48 0.82,-0.38 1.69,-0.56 2.64,-0.56zm0 32.32c0.9,0 1.77,0.18 2.6,0.56 0.81,0.35 1.53,0.85 2.15,1.47 0.62,0.61 1.11,1.34 1.48,2.15 0.37,0.83 0.55,1.7 0.55,2.6 0,0.95 -0.18,1.82 -0.55,2.63 -0.37,0.82 -0.86,1.52 -1.48,2.14 -0.62,0.62 -1.34,1.1 -2.15,1.46 -0.83,0.34 -1.7,0.53 -2.6,0.53 -0.95,0 -1.82,-0.19 -2.64,-0.53 -0.81,-0.36 -1.52,-0.84 -2.13,-1.46 -0.62,-0.62 -1.1,-1.32 -1.46,-2.14 -0.35,-0.81 -0.53,-1.68 -0.53,-2.63 0,-0.9 0.18,-1.77 0.53,-2.6 0.36,-0.81 0.84,-1.54 1.46,-2.15 0.61,-0.62 1.32,-1.12 2.13,-1.47 0.82,-0.38 1.69,-0.56 2.64,-0.56zm-511 54.6l3.27 0c5.65,0 9.86,1.33 12.63,3.99 2.75,2.66 4.14,6.7 4.14,12.09l0 10.19c0,1.43 0.16,2.72 0.48,3.85 0.33,1.13 0.89,2.09 1.7,2.86 0.8,0.78 1.88,1.38 3.23,1.79 1.36,0.41 3.04,0.62 5.06,0.62l1.89 0 0 6.13 -1.89 0c-2.14,0 -3.9,0.18 -5.25,0.53 -1.37,0.36 -2.44,0.89 -3.19,1.61 -0.77,0.72 -1.3,1.64 -1.59,2.75 -0.29,1.11 -0.44,2.44 -0.44,3.97l0 15.41c0,2.46 -0.3,4.69 -0.89,6.67 -0.59,1.99 -1.53,3.68 -2.86,5.08 -1.32,1.38 -3.05,2.46 -5.19,3.2 -2.15,0.75 -4.75,1.13 -7.83,1.13l-3.27 0 0 -6.14 2.65 0c6.78,0 10.17,-3.31 10.17,-9.91l0 -15.26c0,-7.17 3.1,-11.2 9.29,-12.09 -6.25,-0.66 -9.38,-4.71 -9.38,-12.13l0 -10.09c0,-6.74 -3.36,-10.11 -10.08,-10.11l-2.65 0 0 -6.14zm73.91 81.87l-21.75 0 0 -6.14 14.35 0 0 -69.59 -14.35 0 0 -6.14 21.75 0 0 81.87zm-272.43 23.82l3.27 0c5.65,0 9.86,1.33 12.63,3.99 2.75,2.67 4.14,6.7 4.14,12.1l0 10.18c0,1.43 0.17,2.72 0.48,3.85 0.33,1.13 0.89,2.09 1.7,2.86 0.8,0.78 1.88,1.38 3.24,1.79 1.35,0.41 3.03,0.62 5.05,0.62l1.89 0 0 6.13 -1.89 0c-2.14,0 -3.9,0.18 -5.25,0.53 -1.37,0.36 -2.44,0.89 -3.19,1.61 -0.77,0.72 -1.3,1.64 -1.59,2.76 -0.29,1.11 -0.44,2.43 -0.44,3.97l0 15.4c0,2.46 -0.3,4.69 -0.89,6.68 -0.59,1.98 -1.53,3.67 -2.86,5.07 -1.32,1.38 -3.05,2.46 -5.19,3.2 -2.15,0.75 -4.75,1.13 -7.83,1.13l-3.27 0 0 -6.14 2.65 0c6.78,0 10.17,-3.3 10.17,-9.91l0 -15.25c0,-7.18 3.1,-11.21 9.29,-12.1 -6.25,-0.66 -9.38,-4.71 -9.38,-12.12l0 -10.1c0,-6.74 -3.36,-10.11 -10.08,-10.11l-2.65 0 0 -6.14zm73.91 81.87l-21.75 0 0 -6.14 14.35 0 0 -69.59 -14.35 0 0 -6.14 21.75 0 0 81.87zm-272.43 23.83l3.27 0c5.65,0 9.86,1.32 12.63,3.98 2.75,2.67 4.14,6.7 4.14,12.1l0 10.18c0,1.43 0.17,2.72 0.48,3.85 0.33,1.13 0.89,2.09 1.7,2.86 0.8,0.78 1.88,1.39 3.24,1.79 1.35,0.41 3.03,0.62 5.05,0.62l1.89 0 0 6.14 -1.89 0c-2.14,0 -3.9,0.17 -5.25,0.52 -1.37,0.37 -2.44,0.89 -3.19,1.61 -0.77,0.73 -1.3,1.64 -1.59,2.76 -0.29,1.11 -0.44,2.43 -0.44,3.97l0 15.4c0,2.47 -0.3,4.69 -0.89,6.68 -0.59,1.98 -1.53,3.67 -2.86,5.07 -1.32,1.39 -3.05,2.47 -5.19,3.2 -2.15,0.75 -4.75,1.13 -7.83,1.13l-3.27 0 0 -6.14 2.65 0c6.78,0 10.17,-3.3 10.17,-9.91l0 -15.25c0,-7.18 3.1,-11.21 9.29,-12.1 -6.25,-0.66 -9.38,-4.71 -9.38,-12.12l0 -10.1c0,-6.74 -3.36,-10.1 -10.08,-10.1l-2.65 0 0 -6.14z"/>
  </g>
 </g>
</svg>
