<?xml version="1.0" encoding="UTF-8"?>
<!DOCTYPE svg PUBLIC "-//W3C//DTD SVG 1.1//EN" "http://www.w3.org/Graphics/SVG/1.1/DTD/svg11.dtd">
<!-- Creator: CorelDRAW 2017 -->
<svg xmlns="http://www.w3.org/2000/svg" xml:space="preserve" width="140px" height="43px" version="1.1" style="shape-rendering:geometricPrecision; text-rendering:geometricPrecision; image-rendering:optimizeQuality; fill-rule:evenodd; clip-rule:evenodd"
viewBox="0 0 18.31 5.62"
 xmlns:xlink="http://www.w3.org/1999/xlink">
 <defs>
  <style type="text/css">
   <![CDATA[
    .fil1 {fill:#5B5F61}
    .fil0 {fill:#5B5F61;fill-rule:nonzero}
   ]]>
  </style>
 </defs>
 <g id="Layer_x0020_1">
  <metadata id="CorelCorpID_0Corel-Layer"/>
  <path class="fil0" d="M5.48 2.14c0.11,0 0.21,0.01 0.3,0.05 0.08,0.03 0.16,0.08 0.21,0.13 0.06,0.05 0.1,0.11 0.14,0.18 0.04,0.06 0.06,0.13 0.08,0.19 0.01,0.06 0.02,0.12 0.02,0.18 0,0.11 -0.02,0.21 -0.06,0.31 -0.05,0.1 -0.11,0.19 -0.18,0.26 -0.08,0.07 -0.17,0.13 -0.28,0.17 -0.11,0.05 -0.23,0.07 -0.35,0.07 -0.12,0 -0.23,-0.02 -0.31,-0.06l0 0.25c0,0.04 0,0.1 0,0.18 0,0.08 0,0.13 0,0.17 0,0.04 0,0.07 0,0.09 0,0.02 0,0.05 -0.01,0.07 0,0.03 -0.01,0.05 -0.02,0.06 -0.01,0.02 -0.03,0.03 -0.04,0.04 -0.02,0.01 -0.05,0.01 -0.07,0.01 -0.06,0 -0.1,-0.01 -0.12,-0.05 -0.03,-0.03 -0.04,-0.07 -0.04,-0.11l0 -0.02c0.02,-0.24 0.02,-0.44 0.02,-0.62l0 -0.16 -0.01 -0.47 -0.01 -0.62c-0.01,-0.04 -0.01,-0.08 -0.01,-0.12 0,-0.05 0.02,-0.09 0.05,-0.13 0.03,-0.04 0.07,-0.05 0.11,-0.05 0.07,0 0.12,0.03 0.15,0.1 0.07,-0.04 0.13,-0.06 0.18,-0.07 0.09,-0.02 0.17,-0.03 0.25,-0.03zm-0.12 1.26c0.19,0 0.34,-0.05 0.44,-0.15 0.11,-0.1 0.16,-0.23 0.16,-0.38 0,-0.06 -0.01,-0.11 -0.03,-0.16 -0.02,-0.05 -0.04,-0.1 -0.08,-0.14 -0.03,-0.04 -0.08,-0.07 -0.14,-0.1 -0.06,-0.02 -0.12,-0.04 -0.2,-0.04 -0.06,0 -0.12,0.01 -0.19,0.03 -0.07,0.02 -0.12,0.04 -0.16,0.06 -0.02,0.01 -0.05,0.04 -0.11,0.09l0 0c-0.01,0.15 -0.01,0.25 -0.01,0.31l0 0.32 0 0.02 0.02 0.01c0.08,0.09 0.18,0.13 0.3,0.13zm2.61 -0.03c0,0.03 0.01,0.06 0.03,0.09 0.03,0.03 0.04,0.05 0.04,0.07 0,0.05 -0.02,0.09 -0.05,0.12 -0.04,0.03 -0.07,0.05 -0.11,0.05 -0.03,0 -0.06,-0.01 -0.09,-0.04 -0.02,-0.03 -0.05,-0.06 -0.07,-0.1 -0.07,0.06 -0.15,0.1 -0.24,0.12 -0.09,0.03 -0.18,0.04 -0.27,0.04 -0.13,0 -0.25,-0.03 -0.36,-0.08 -0.11,-0.06 -0.2,-0.15 -0.27,-0.26 -0.08,-0.12 -0.11,-0.25 -0.11,-0.4 0,-0.18 0.05,-0.33 0.15,-0.47 0.08,-0.12 0.18,-0.2 0.31,-0.26 0.13,-0.06 0.26,-0.09 0.39,-0.09 0.13,0 0.26,0.03 0.38,0.09 0.02,-0.06 0.04,-0.09 0.08,-0.11 0.04,-0.02 0.07,-0.03 0.11,-0.03 0.03,0 0.05,0.01 0.07,0.03 0.02,0.02 0.03,0.04 0.03,0.06 0.01,0.02 0.01,0.04 0.01,0.06 0,0.01 0,0.03 -0.01,0.05 0,0.02 0,0.03 0,0.04 -0.01,0.05 -0.02,0.15 -0.02,0.28 -0.01,0.13 -0.01,0.23 -0.01,0.3 0,0.03 0,0.11 0.01,0.23 0,0.11 0,0.19 0,0.21zm-0.76 0.08c0.09,0 0.18,-0.02 0.27,-0.07 0.09,-0.04 0.15,-0.1 0.18,-0.18 0,-0.01 0.01,-0.02 0.01,-0.03 0.01,-0.01 0.01,-0.02 0.02,-0.02l0 -0.48 0 -0.06c-0.01,0 -0.01,-0.01 -0.02,-0.02 -0.01,0 -0.02,-0.01 -0.02,-0.01 -0.09,-0.09 -0.21,-0.13 -0.36,-0.13 -0.09,0 -0.18,0.02 -0.27,0.07 -0.08,0.04 -0.15,0.1 -0.2,0.19 -0.06,0.08 -0.09,0.18 -0.09,0.29 0,0.05 0.01,0.1 0.03,0.15 0.02,0.05 0.05,0.1 0.09,0.15 0.03,0.04 0.08,0.08 0.14,0.11 0.07,0.02 0.14,0.04 0.22,0.04zm1.86 -1.31c0.11,0 0.21,0.01 0.3,0.05 0.09,0.03 0.16,0.08 0.22,0.13 0.05,0.05 0.1,0.11 0.13,0.18 0.04,0.06 0.07,0.13 0.08,0.19 0.02,0.06 0.02,0.12 0.02,0.18 0,0.11 -0.02,0.21 -0.06,0.31 -0.04,0.1 -0.1,0.19 -0.18,0.26 -0.07,0.07 -0.17,0.13 -0.28,0.17 -0.11,0.05 -0.22,0.07 -0.35,0.07 -0.12,0 -0.22,-0.02 -0.31,-0.06l0 0.25c0,0.04 0,0.1 0,0.18 0,0.08 0,0.13 0,0.17 0,0.04 0,0.07 0,0.09 0,0.02 0,0.05 -0.01,0.07 0,0.03 -0.01,0.05 -0.02,0.06 -0.01,0.02 -0.02,0.03 -0.04,0.04 -0.02,0.01 -0.04,0.01 -0.07,0.01 -0.05,0 -0.09,-0.01 -0.12,-0.05 -0.02,-0.03 -0.04,-0.07 -0.04,-0.11l0 -0.02c0.02,-0.24 0.03,-0.44 0.03,-0.62l0 -0.16 -0.01 -0.47 -0.02 -0.62c0,-0.04 0,-0.08 0,-0.12 0,-0.05 0.01,-0.09 0.04,-0.13 0.03,-0.04 0.07,-0.05 0.12,-0.05 0.07,0 0.11,0.03 0.14,0.1 0.07,-0.04 0.13,-0.06 0.18,-0.07 0.09,-0.02 0.17,-0.03 0.25,-0.03zm-0.12 1.26c0.19,0 0.34,-0.05 0.45,-0.15 0.1,-0.1 0.15,-0.23 0.15,-0.38 0,-0.06 -0.01,-0.11 -0.02,-0.16 -0.02,-0.05 -0.05,-0.1 -0.09,-0.14 -0.03,-0.04 -0.08,-0.07 -0.14,-0.1 -0.06,-0.02 -0.12,-0.04 -0.2,-0.04 -0.05,0 -0.12,0.01 -0.19,0.03 -0.06,0.02 -0.12,0.04 -0.15,0.06 -0.03,0.01 -0.06,0.04 -0.12,0.09l0 0c0,0.15 -0.01,0.25 -0.01,0.31l0 0.32 0 0.02 0.02 0.01c0.08,0.09 0.18,0.13 0.3,0.13zm2.63 -0.56c0,0.03 -0.01,0.06 -0.02,0.08 -0.02,0.03 -0.04,0.06 -0.07,0.07 0,0 -0.01,0.01 -0.01,0.01 -0.01,0 -0.02,0 -0.02,0 -0.01,0.01 -0.01,0.01 -0.02,0.01 -0.01,0 -0.02,0 -0.02,0 -0.01,0 -0.01,0 -0.03,0 -0.01,0 -0.02,0.01 -0.02,0.01 -0.01,0 -0.02,0 -0.03,0 -0.02,0 -0.03,0 -0.04,0 -0.2,0.01 -0.36,0.02 -0.48,0.03 -0.12,0.01 -0.19,0.01 -0.22,0.01 -0.03,0.01 -0.06,0.01 -0.09,0.01 -0.03,0.01 -0.07,0.01 -0.11,0.01l-0.07 0.01c0.03,0.11 0.08,0.19 0.16,0.26 0.09,0.06 0.19,0.09 0.3,0.09 0.08,0 0.15,-0.02 0.21,-0.05 0.02,-0.01 0.05,-0.02 0.07,-0.04 0.03,-0.03 0.06,-0.04 0.08,-0.06 0.02,-0.01 0.04,-0.02 0.06,-0.02 0.04,0 0.08,0.02 0.13,0.05 0.04,0.03 0.07,0.07 0.07,0.11 0,0.05 -0.03,0.1 -0.08,0.13 -0.16,0.12 -0.33,0.17 -0.53,0.17 -0.07,0 -0.15,-0.01 -0.24,-0.04 -0.09,-0.03 -0.18,-0.08 -0.25,-0.14 -0.17,-0.14 -0.25,-0.32 -0.25,-0.55 0,-0.13 0.03,-0.25 0.08,-0.37 0.05,-0.12 0.12,-0.22 0.22,-0.31 0.1,-0.09 0.21,-0.16 0.33,-0.19 0.08,-0.02 0.15,-0.03 0.21,-0.03 0.08,0 0.17,0.02 0.25,0.06 0.08,0.04 0.14,0.09 0.19,0.14 0.05,0.06 0.1,0.12 0.13,0.19 0.04,0.07 0.07,0.14 0.08,0.2 0.02,0.06 0.03,0.11 0.03,0.15zm-1.22 -0.06l0.16 0c0.28,0 0.52,-0.01 0.71,-0.04l0.01 -0.01c-0.06,-0.23 -0.18,-0.35 -0.37,-0.35 -0.11,0 -0.21,0.03 -0.31,0.11 -0.1,0.07 -0.17,0.17 -0.2,0.29zm2.37 -0.61c0.02,0 0.05,0.01 0.09,0.02 0.03,0.01 0.06,0.03 0.1,0.04 0.04,0.02 0.08,0.04 0.1,0.07 0.03,0.03 0.04,0.06 0.04,0.09 0,0.04 -0.02,0.08 -0.05,0.11 -0.04,0.03 -0.08,0.04 -0.12,0.04 -0.04,0 -0.08,-0.01 -0.11,-0.04 -0.06,-0.04 -0.14,-0.06 -0.21,-0.06 -0.09,0 -0.17,0.02 -0.24,0.07 -0.06,0.05 -0.11,0.12 -0.13,0.21 -0.01,0.04 -0.03,0.07 -0.03,0.08l0 0.04 0 0.06c0,0.08 0,0.16 0.01,0.25l0.01 0.31c0,0.01 0,0.02 0,0.04 0,0.02 0,0.03 0,0.04 0,0.04 -0.01,0.08 -0.04,0.11 -0.02,0.03 -0.06,0.04 -0.1,0.04 -0.04,0 -0.08,-0.01 -0.11,-0.03 -0.03,-0.02 -0.05,-0.06 -0.05,-0.1 0,-0.01 0,-0.02 0,-0.02 0,-0.01 0,-0.01 0,-0.02l0 -0.37c0,-0.03 0,-0.07 0,-0.13 0.01,-0.05 0.01,-0.09 0.01,-0.12 0,-0.07 -0.01,-0.17 -0.02,-0.31l0 -0.15c0,-0.01 -0.01,-0.03 -0.01,-0.05 0,-0.01 0,-0.03 0,-0.05 0,-0.03 0.01,-0.05 0.01,-0.07 0.03,-0.09 0.08,-0.13 0.16,-0.13 0.01,0 0.02,0 0.04,0 0.07,0.02 0.1,0.07 0.11,0.14 0.13,-0.08 0.26,-0.12 0.42,-0.12 0.05,0 0.09,0 0.12,0.01zm1.37 -0.03c0.13,0 0.26,0.04 0.37,0.11 0.11,0.07 0.19,0.16 0.25,0.28 0.06,0.11 0.09,0.24 0.09,0.37 0,0.11 -0.02,0.21 -0.06,0.31 -0.04,0.1 -0.1,0.19 -0.17,0.26 -0.1,0.09 -0.2,0.16 -0.33,0.21 -0.12,0.04 -0.24,0.07 -0.34,0.07 -0.05,0 -0.11,-0.01 -0.18,-0.02 -0.05,-0.01 -0.11,-0.03 -0.16,-0.05 -0.02,0.02 -0.04,0.03 -0.08,0.03 -0.04,0 -0.08,-0.02 -0.12,-0.04 -0.03,-0.02 -0.05,-0.06 -0.05,-0.12 0,-0.02 0.01,-0.03 0.02,-0.04 0,-0.05 0,-0.15 0,-0.3 0,-0.1 0.01,-0.17 0.01,-0.2 0,-0.03 0,-0.07 0,-0.11l0 -0.18c0,-0.19 0,-0.34 0,-0.44l-0.02 -0.77c-0.01,-0.07 0,-0.12 0.02,-0.15 0.03,-0.05 0.07,-0.07 0.12,-0.07 0.04,0 0.07,0.01 0.09,0.03 0.03,0.01 0.05,0.03 0.06,0.06 0.01,0.02 0.02,0.05 0.02,0.07 0,0.02 0.01,0.04 0.01,0.06 0,0.03 -0.01,0.07 -0.01,0.13 0,0.05 0,0.09 0,0.11l-0.01 0.46 0 0.02c0.06,-0.03 0.12,-0.05 0.17,-0.06 0.09,-0.02 0.19,-0.03 0.3,-0.03zm-0.17 1.32c0.1,0 0.2,-0.02 0.29,-0.07 0.09,-0.05 0.17,-0.12 0.23,-0.2 0.06,-0.09 0.09,-0.18 0.09,-0.28 0,-0.14 -0.04,-0.25 -0.13,-0.35 -0.09,-0.09 -0.2,-0.14 -0.34,-0.14 -0.07,0 -0.14,0.01 -0.19,0.03 -0.06,0.02 -0.12,0.04 -0.17,0.07 -0.05,0.03 -0.08,0.04 -0.09,0.05l0 0.09 0 0.16c0,0.06 0,0.16 0.01,0.29 0,0.14 0.01,0.23 0.01,0.28l0 0c0.01,0 0.02,0.01 0.05,0.02 0.02,0.01 0.04,0.02 0.06,0.03 0.02,0 0.04,0.01 0.07,0.02 0.04,0 0.07,0 0.11,0zm1.37 -1.99c0.03,0 0.06,0.01 0.09,0.03 0.03,0.02 0.04,0.04 0.05,0.07 0.01,0.02 0.02,0.04 0.02,0.07 0,0.03 -0.01,0.06 -0.03,0.08 -0.02,0.03 -0.04,0.05 -0.07,0.06 -0.02,0.01 -0.04,0.01 -0.07,0.01 -0.03,0 -0.07,-0.01 -0.1,-0.03 -0.03,-0.02 -0.04,-0.05 -0.05,-0.09 0,0 0,-0.02 0,-0.04 0,-0.07 0.03,-0.12 0.08,-0.15 0.02,-0.01 0.05,-0.01 0.08,-0.01zm-0.01 0.67c0.04,0 0.07,0.01 0.1,0.04 0.02,0.03 0.03,0.07 0.03,0.12 0,0.02 0,0.04 0,0.05l-0.01 0.6c0,0.05 0,0.12 0,0.22l0 0.24c0,0.02 0,0.05 0,0.09l0 0.04c0,0.01 0,0.02 0,0.03 0,0.04 -0.01,0.07 -0.04,0.09 -0.02,0.02 -0.05,0.03 -0.09,0.03l-0.01 0c-0.06,0 -0.1,-0.01 -0.12,-0.04 -0.03,-0.04 -0.04,-0.08 -0.04,-0.12 0,0 0,-0.04 0.01,-0.1l0.01 -0.14c0,-0.1 0,-0.21 0,-0.31l0 -0.08c0,-0.07 0,-0.16 0,-0.28 0,-0.12 -0.01,-0.2 -0.01,-0.24l0 -0.04c0,-0.07 0.02,-0.12 0.05,-0.15 0.03,-0.04 0.07,-0.05 0.12,-0.05zm1.31 0.01c0.06,0 0.11,0.01 0.14,0.04 0.04,0.03 0.06,0.07 0.06,0.13 0,0.04 -0.02,0.07 -0.05,0.09 -0.03,0.03 -0.07,0.04 -0.11,0.04 -0.02,0 -0.03,0 -0.05,-0.01l-0.22 0 -0.01 0 0 0.35c0,0.12 0.01,0.33 0.02,0.63l0.01 0.15c0,0.06 -0.02,0.11 -0.04,0.13 -0.02,0.02 -0.05,0.04 -0.09,0.04 -0.06,0 -0.1,-0.02 -0.13,-0.06 -0.03,-0.03 -0.05,-0.07 -0.05,-0.11 0,-0.08 0.01,-0.19 0.01,-0.3 0,-0.11 0,-0.2 0,-0.26 0,-0.16 0,-0.35 -0.01,-0.55l-0.09 0.01c-0.11,0.01 -0.16,0.02 -0.17,0.02 -0.03,0 -0.06,-0.02 -0.07,-0.04 -0.02,-0.03 -0.03,-0.07 -0.03,-0.11 0,-0.03 0.01,-0.06 0.01,-0.08 0.01,-0.01 0.02,-0.03 0.04,-0.04 0.01,-0.01 0.03,-0.02 0.06,-0.03 0.03,0 0.06,-0.01 0.09,-0.01 0.03,0 0.07,0 0.12,0 0.01,0 0.02,0 0.03,0 -0.01,-0.18 -0.02,-0.28 -0.02,-0.32 0,-0.06 0.02,-0.11 0.07,-0.13 0.01,-0.01 0.04,-0.01 0.07,-0.01 0.04,0 0.06,0.01 0.09,0.02 0.02,0.02 0.04,0.04 0.05,0.07 0.01,0.02 0.02,0.05 0.02,0.08 0,0.03 0.01,0.06 0.01,0.11 0,0.02 0,0.04 -0.01,0.08 0,0.04 0,0.07 0,0.08 0.12,-0.01 0.2,-0.01 0.25,-0.01zm1.02 -0.04c0.04,0 0.08,0 0.11,0.01 0.03,0 0.07,0 0.11,0.01 0.04,0.01 0.08,0.02 0.1,0.03 0.03,0.01 0.05,0.03 0.07,0.05 0.02,0.03 0.03,0.05 0.03,0.09 0,0.04 -0.02,0.07 -0.06,0.1 -0.04,0.03 -0.08,0.04 -0.11,0.04 -0.02,0 -0.05,-0.01 -0.08,-0.02 -0.06,-0.01 -0.12,-0.02 -0.19,-0.02 -0.07,0 -0.13,0.01 -0.19,0.02 -0.06,0.01 -0.11,0.03 -0.15,0.06 -0.04,0.03 -0.06,0.06 -0.06,0.1 0,0.01 0,0.02 0.01,0.03 0,0.01 0.01,0.02 0.02,0.02 0.02,0.01 0.03,0.02 0.04,0.02 0.01,0 0.03,0.01 0.05,0.01 0.03,0 0.05,0.01 0.06,0.01 0.02,0 0.04,0 0.07,0 0.02,0 0.04,0 0.06,0 0.02,0 0.04,0 0.07,0.01 0.03,0 0.05,0 0.06,0 0.04,0 0.08,0 0.11,0 0.03,0 0.07,0.01 0.12,0.02 0.05,0 0.09,0.01 0.13,0.03 0.04,0.01 0.08,0.03 0.12,0.05 0.04,0.03 0.07,0.05 0.1,0.09 0.02,0.03 0.05,0.07 0.06,0.12 0.02,0.05 0.03,0.1 0.03,0.16 0,0.08 -0.02,0.15 -0.05,0.21 -0.03,0.06 -0.07,0.12 -0.12,0.16 -0.05,0.05 -0.11,0.08 -0.18,0.12 -0.07,0.03 -0.14,0.05 -0.22,0.07 -0.07,0.01 -0.15,0.02 -0.22,0.02 -0.15,0 -0.28,-0.03 -0.39,-0.09 -0.07,-0.03 -0.12,-0.07 -0.16,-0.11 -0.04,-0.05 -0.06,-0.09 -0.06,-0.12 0,-0.03 0.02,-0.06 0.05,-0.08 0.03,-0.03 0.07,-0.04 0.11,-0.04 0.02,0 0.05,0.01 0.07,0.02 0.03,0.01 0.05,0.02 0.07,0.04 0.02,0.01 0.03,0.02 0.04,0.03 0.08,0.04 0.17,0.06 0.28,0.06 0.04,0 0.07,0 0.11,0 0.04,-0.01 0.08,-0.02 0.13,-0.03 0.05,-0.01 0.09,-0.03 0.13,-0.05 0.04,-0.02 0.07,-0.05 0.09,-0.09 0.03,-0.03 0.04,-0.07 0.04,-0.12 0,-0.04 -0.01,-0.07 -0.02,-0.09 -0.02,-0.03 -0.04,-0.05 -0.06,-0.06 -0.03,-0.02 -0.06,-0.03 -0.1,-0.04 -0.04,0 -0.07,-0.01 -0.11,-0.01 -0.03,0 -0.07,0 -0.11,0 -0.06,0 -0.11,0 -0.15,0 -0.05,0 -0.1,-0.01 -0.15,-0.01 -0.05,-0.01 -0.1,-0.02 -0.13,-0.03 -0.04,-0.01 -0.08,-0.02 -0.11,-0.04 -0.04,-0.02 -0.07,-0.04 -0.1,-0.07 -0.02,-0.03 -0.04,-0.06 -0.05,-0.1 -0.01,-0.04 -0.02,-0.08 -0.02,-0.13 0,-0.12 0.05,-0.22 0.15,-0.3 0.13,-0.11 0.31,-0.16 0.55,-0.16z"/>
  <g id="_1282898990496">
   <path class="fil1" d="M3.72 3.84c-0.5,0.11 -0.99,0.3 -1.46,0.53 -0.23,0.12 -0.46,0.25 -0.67,0.42 -0.11,0.08 -0.21,0.18 -0.3,0.28 -0.04,0.04 -0.08,0.09 -0.13,0.14 -0.01,0.03 -0.05,0.09 -0.08,0.13 -0.21,-0.2 -0.39,-0.45 -0.55,-0.72 -0.18,-0.29 -0.34,-0.61 -0.49,-0.93 -0.01,-0.02 -0.03,0 -0.03,0.02 0.2,0.7 0.53,1.4 1.01,1.88 0.05,0.04 0.11,0.04 0.15,-0.01 0.17,-0.22 0.34,-0.42 0.55,-0.6 0.2,-0.16 0.41,-0.3 0.63,-0.42 0.46,-0.25 0.94,-0.39 1.39,-0.64 0.04,-0.02 0.02,-0.09 -0.02,-0.08z"/>
   <path class="fil1" d="M3.79 3.77c-0.11,-0.27 -0.24,-0.53 -0.36,-0.79 0,-0.01 0,-0.02 -0.01,-0.04 -0.01,-0.12 -0.02,-0.24 -0.02,-0.37 -0.01,-0.26 0.01,-0.52 0.03,-0.78 0.04,-0.49 0.14,-0.97 0.21,-1.46 0.01,-0.04 0,-0.06 -0.02,-0.08 0,-0.02 0,-0.04 -0.01,-0.06 0,0.01 0,0.01 0,0.01 0,-0.03 -0.04,-0.05 -0.07,-0.06 0,0 0,0 -0.01,0 -0.28,-0.05 -0.57,-0.08 -0.85,-0.11 -0.15,-0.02 -0.29,-0.03 -0.44,-0.03 -0.14,0 -0.28,0.01 -0.43,0.03 -0.02,0.01 -0.02,0.04 0,0.04 0.56,0.03 1.1,0.14 1.64,0.26 -0.12,0.46 -0.17,0.95 -0.21,1.42 -0.02,0.25 -0.03,0.5 -0.03,0.74 -0.13,-0.3 -0.25,-0.61 -0.34,-0.92 -0.03,-0.08 -0.12,-0.14 -0.2,-0.09 -0.1,0.07 -0.23,0.11 -0.35,0.16 -0.13,0.06 -0.27,0.13 -0.41,0.2 -0.18,0.09 -0.36,0.19 -0.54,0.3 0,-0.02 -0.01,-0.04 -0.02,-0.05 -0.02,-0.04 -0.02,-0.09 -0.03,-0.13 -0.01,-0.13 -0.01,-0.26 0,-0.38 0,-0.31 0.04,-0.61 0.09,-0.91 0.03,-0.19 0.05,-0.4 0.11,-0.58 0.01,-0.03 -0.02,-0.05 -0.04,-0.02 -0.12,0.19 -0.16,0.45 -0.21,0.67 -0.07,0.33 -0.12,0.66 -0.14,0.99 -0.01,0.12 -0.01,0.25 0.01,0.37 0,0.04 0.01,0.08 0.03,0.12 0.01,0.01 0.02,0.02 0.03,0.03 -0.02,0.01 -0.04,0.02 -0.06,0.03 -0.44,0.3 -0.91,0.68 -1.14,1.17 0,0.01 0.01,0.02 0.02,0.01 0.32,-0.44 0.71,-0.79 1.19,-1.07 0.24,-0.14 0.49,-0.26 0.74,-0.37 0.12,-0.05 0.25,-0.1 0.37,-0.15 0.1,-0.04 0.21,-0.09 0.33,-0.12 0.1,0.35 0.23,0.68 0.39,1 0.08,0.15 0.15,0.29 0.24,0.44 0.01,0.04 0.02,0.07 0.04,0.11 0.01,0.02 0.03,0.03 0.05,0.03 0.1,0.17 0.22,0.34 0.35,0.49 0.03,0.03 0.09,0 0.07,-0.05z"/>
  </g>
 </g>
</svg>
