<?xml version="1.0" encoding="UTF-8"?>
<!DOCTYPE svg PUBLIC "-//W3C//DTD SVG 1.1//EN" "http://www.w3.org/Graphics/SVG/1.1/DTD/svg11.dtd">
<!-- Creator: CorelDRAW 2017 -->
<svg xmlns="http://www.w3.org/2000/svg" xml:space="preserve" width="280px" height="300px" version="1.1" style="shape-rendering:geometricPrecision; text-rendering:geometricPrecision; image-rendering:optimizeQuality; fill-rule:evenodd; clip-rule:evenodd"
viewBox="0 0 275.33 292.07"
 xmlns:xlink="http://www.w3.org/1999/xlink">
 <defs>
  <style type="text/css">
   <![CDATA[
    .fil0 {fill:#F79740}
    .fil3 {fill:#DEC6AA}
    .fil2 {fill:#5B5F61}
    .fil1 {fill:#45C2CD}
   ]]>
  </style>
 </defs>
 <g id="Layer_x0020_1">
  <metadata id="CorelCorpID_0Corel-Layer"/>
  <g id="_1954037505728">
   <path class="fil0" d="M42.86 146.04c-1.23,1.26 -2.36,2.59 -3.43,3.97 1.87,-4.7 3.8,-9.38 5.08,-14.29 0.76,-2.92 -2.76,-4.25 -4.55,-2.13 -0.94,1.12 -1.82,2.28 -2.68,3.47 2.17,-4.87 4.14,-9.81 5.41,-15 0.66,-2.73 -2.43,-4.49 -4.33,-2.32 -1.51,1.74 -2.85,3.62 -4.13,5.55 2.82,-5.94 5.52,-11.94 7.55,-18.23 0.69,-2.12 -2.62,-3.95 -3.96,-2.1 -4.08,5.6 -7.46,11.68 -11.16,17.53 3.6,-9.61 8.58,-18.75 12.45,-28.23 1.04,-2.56 -2.7,-3.63 -4.12,-1.79 -3.92,5.08 -7.27,10.55 -10.77,15.91 2.47,-9.63 7.87,-18.68 10.49,-28.18 0.59,-2.14 -2.46,-3.12 -3.72,-1.66 -0.27,0.31 -0.54,0.63 -0.81,0.95 1.82,-5.43 3.44,-10.92 4.57,-16.57 0.43,-2.16 -2.59,-3.18 -3.83,-1.56 -2.01,2.62 -4.07,5.2 -6.11,7.79 2.87,-5.52 6.22,-10.88 7.38,-17.03 0.47,-2.48 -2.48,-3.95 -4.04,-1.85 -2.37,3.17 -4.62,6.49 -7.01,9.68 2.76,-5.08 5.77,-10.03 8.9,-14.93 1.49,-2.34 -1.64,-4.72 -3.44,-2.59 -4.13,4.87 -7.55,10.5 -12.26,14.82 1.58,-8.46 8.89,-16.19 13.86,-22.51 1.66,-2.11 -1.43,-4.74 -3.2,-2.7 -3.4,3.95 -6.81,7.97 -10.78,11.33 2.08,-4.4 5.4,-8.32 8.21,-12.2 1.46,-2.02 -1.54,-4.66 -3.32,-2.89 -1.67,1.65 -3.34,3.3 -5.07,4.87 0.83,-2.13 -2.47,-3.84 -3.81,-1.91 -1.94,2.82 -3.53,5.86 -5.39,8.74 -1.27,1.96 1.13,4.17 3.06,3.15 0.8,-0.42 1.56,-0.87 2.32,-1.34 -1,2.15 -1.76,4.42 -2.12,6.86 -0.31,2.04 1.99,2.82 3.47,1.94 0.31,-0.19 0.62,-0.39 0.93,-0.59 -1.79,3.82 -2.88,7.82 -2.64,12.02 0.1,1.66 2.06,2.32 3.33,1.5 0.67,-0.43 1.31,-0.9 1.93,-1.37 -1.58,3.05 -3.07,6.14 -4.42,9.31 -0.95,2.21 2.03,3.54 3.61,2.33 2.49,-1.89 4.67,-4.08 6.7,-6.42 -2.47,4.75 -4.74,9.57 -5.29,15.06 -0.24,2.37 3.09,2.97 4.22,1.19 2.52,-3.95 5.31,-7.71 8.15,-11.44 -2.16,7.27 -5,14.34 -7.69,21.45 -1.26,2.57 -2.28,5.26 -2.94,8.09 -0.53,2.29 1.95,3.35 3.5,2.38 -1.53,4.43 -2.63,8.98 -2.74,13.81 -0.05,2.02 2.9,2.96 4.11,1.41 0.52,-0.66 1.02,-1.33 1.51,-2 -2.37,5.59 -4.43,11.3 -5.65,17.29 -0.5,2.46 2.74,3.56 4.25,1.88 0.92,-1.03 1.79,-2.09 2.63,-3.17 -1.81,3.67 -3.57,7.37 -5.13,11.15 -1,2.41 2.13,4.19 3.98,2.72 2.5,-1.99 4.57,-4.34 6.44,-6.86 -2.14,4.51 -4.32,9.01 -6.15,13.64 -0.93,2.37 2.23,4.28 4.04,2.68 2.02,-1.77 3.79,-3.76 5.43,-5.85 -1.86,4.71 -3.56,9.46 -4.42,14.49 -0.49,2.92 3.02,4.38 4.74,1.96 0.22,-0.31 0.44,-0.63 0.66,-0.95 -0.81,2.23 -1.51,4.5 -2.02,6.84 -0.47,2.14 2.06,3.96 3.82,2.93 -0.13,0.47 -0.26,0.93 -0.39,1.39 -0.25,0.85 0.14,1.94 0.81,2.5 0.85,0.72 1.86,1.52 3.06,1.43 0.87,-0.07 1.51,-0.64 2.3,-0.76 3.27,-0.46 3.08,-5.51 -0.09,-5.28 1.42,-4.97 2.85,-9.95 4.28,-14.92 0.53,-1.85 -1.04,-3.06 -2.61,-3.07 1.22,-2.9 2.4,-5.82 3.34,-8.81 0.78,-2.47 -2.54,-4.31 -4.3,-2.51z"/>
   <path class="fil1" d="M216.73 164.78c-0.22,0.23 -0.39,0.51 -0.48,0.85 -0.25,0.93 -0.49,1.86 -0.74,2.79 -0.3,1.09 0.2,1.93 0.95,2.39 -0.09,7.02 0.49,14.1 0.5,21.06 0.01,2.47 3.76,2.22 4.15,-0.01 1.33,-7.73 0.97,-15.41 -0.12,-23.1 0.06,-1.4 0.16,-2.8 0.3,-4.2 2.23,8.12 3.38,16.54 5.01,24.8 0.44,2.23 4.24,1.58 3.92,-0.67 -1.56,-10.75 -2.29,-22.42 -0.28,-33.34 0.18,0.61 0.36,1.23 0.53,1.84 0.34,5.94 1.35,11.88 2.64,17.64 0.46,2.05 3.98,2.69 4.07,0.14 0.01,-0.18 0.01,-0.35 0.01,-0.53 0.01,0 0.01,0 0.01,0 0,0 0,-0.02 -0.01,-0.03 0.17,-6.27 -0.96,-12.29 -2.54,-18.24 -0.11,-3.04 -0.04,-6.07 0.27,-9.07 1.12,6.23 2.19,12.46 4.3,18.47 0.61,1.77 3.64,1.19 3.6,-0.66 -0.28,-11.02 -1.47,-22.2 0.34,-33.08 0.16,0.67 0.31,1.34 0.45,2.02 -0.66,6.61 -0.48,13.24 1.26,19.43 0.51,1.85 3.38,1.24 3.54,-0.5 0.59,-6.18 0.29,-12.47 -0.8,-18.61 0.02,-0.2 0.04,-0.4 0.06,-0.6 0.34,-3.16 0.84,-6.3 1.45,-9.43 0.83,6.97 1.73,13.92 4.2,20.52 0.71,1.88 3.26,1.47 3.41,-0.51 0.7,-9.32 -1.56,-19.06 -0.69,-28.41 1.67,7.74 2.51,15.67 3.35,23.52 0.2,1.84 3.31,1.69 3.26,-0.17 -0.13,-5.41 -0.68,-10.93 -0.91,-16.43 0.25,1.59 0.54,3.18 0.91,4.76 0.47,2.01 3.5,1.32 3.44,-0.62 -0.04,-1.83 -0.14,-3.69 -0.23,-5.57 0.78,0.14 1.71,-0.23 1.98,-1.21 1.71,-6.12 1.7,-12.36 -0.37,-18.4 -0.59,-1.7 -2.74,-1.6 -3.34,0.02 -0.33,0.9 -0.6,1.8 -0.83,2.72 -0.02,-0.17 -0.04,-0.34 -0.07,-0.5 -0.28,-1.96 -2.96,-2.3 -3.49,-0.29 -0.62,2.37 -1,4.76 -1.22,7.15 -0.3,-1.2 -0.63,-2.4 -0.98,-3.59 -0.43,-1.44 -2.84,-1.65 -3.34,-0.14 -1.41,4.3 -1.83,8.67 -1.83,13.06 -0.25,-2.25 -0.53,-4.49 -0.88,-6.72 -0.29,-1.83 -3.14,-2.12 -3.66,-0.27 -0.99,3.58 -1.94,7.33 -2.72,11.16 -0.09,-0.25 -0.16,-0.5 -0.25,-0.74 -0.68,-2.02 -3.26,-1.71 -3.87,0.15 -2.02,6.18 -2.64,12.49 -2.69,18.85 -0.36,-2.19 -0.74,-4.36 -1.22,-6.51 -0.45,-2.07 -3.45,-2.35 -4.14,-0.26 -1.04,3.14 -1.73,6.34 -2.13,9.56 -1.13,-0.62 -2.73,-0.16 -3.23,1.33 -1.51,4.56 -2.37,9.31 -2.78,14.13 -0.59,-2.04 -1.27,-4.06 -2.06,-6.07 -0.83,-2.13 -3.76,-1.99 -4.36,0.23 -0.87,3.26 -1.38,6.56 -1.65,9.89z"/>
   <path class="fil2" d="M163.6 182.12c-0.85,-10.53 -2.97,-20.85 -5.79,-31.01 -0.53,-1.94 -3.81,-1.36 -3.49,0.66 1.7,10.51 3.44,21.11 3.8,31.77 0.31,9.12 0.4,18.88 -1.91,27.78 -0.14,0.51 -0.15,0.97 -0.08,1.38 -7.78,-1.27 -15.91,-0.85 -23.74,-1.24 -8.85,-0.43 -17.36,-1.83 -25.94,-3.9 0.17,-2.69 -0.05,-5.56 0.16,-8.06 0.41,-4.84 1.13,-9.66 1.86,-14.46 1.64,-10.65 3.57,-21.19 4.42,-31.95 0.18,-2.29 -3.77,-2.72 -4.01,-0.42 -1.09,10.07 -3.26,20.02 -5.18,29.96 -0.93,4.78 -1.76,9.58 -2.4,14.41 -0.32,2.35 -0.56,4.7 -0.74,7.07 -0.19,2.37 -0.69,5.17 0.2,7.43 0.48,1.22 2,1.98 3.25,1.75 8.4,2.95 17.46,3.88 26.3,4.41 4.45,0.27 8.92,0.33 13.39,0.32 5.15,-0.02 10.29,0.07 15.38,-0.9 1.16,-0.23 1.66,-1.43 1.44,-2.44 1.02,-0.36 1.89,-1.15 2.23,-2.43 2.54,-9.6 1.64,-20.33 0.85,-30.13z"/>
   <path class="fil2" d="M157.04 157.78c8.06,4.57 16.3,9.4 26.18,11.15 4.95,0.87 10.08,0.3 15.33,-0.86 3.65,-0.81 7.22,-2.15 10.84,-3.17 3.58,-1.02 6.98,-1.12 9.93,-3.69 2.46,-2.13 1.57,-4.93 -0.52,-6.09 -4.86,-2.7 -14.93,3.18 -20.33,5.08 -4.48,1.57 -9.44,2.66 -13.92,2.43 -9.37,-0.48 -17.05,-5.25 -25.27,-8.07 -1.94,-0.66 -3.96,2.25 -2.24,3.22z"/>
   <path class="fil2" d="M50.24 132.7c1.19,0.09 2.44,0.63 3.45,1.49 0.66,0.57 1.18,1.23 1.54,1.97 0.37,0.77 0.53,1.53 0.47,2.27 0.28,-0.04 0.56,-0.07 0.84,-0.11 0.37,0.61 0.75,1.22 1.13,1.83 0.58,0.92 1.19,1.82 1.81,2.72 1.4,2.05 2.96,3.99 4.59,5.91 2.34,2.76 4.92,5.45 7.99,7.49 3.97,2.64 8.45,3.01 12.56,3.29 5.8,0.42 11.64,-0.04 17.3,-0.16 1.99,-0.04 2.85,2.86 1.15,3.27 -5.68,1.38 -10.74,2.89 -17.09,2.8 -4.78,-0.07 -9.64,-0.86 -14.52,-2.87 -10.2,-4.19 -19.6,-15.96 -24.45,-24.8 -1.5,-2.73 0.43,-5.3 3.23,-5.1z"/>
   <path class="fil3" d="M131.69 194.77c1.96,-1.07 3.92,-2.16 5.82,-3.31 -1.98,1.03 -3.92,2.15 -5.82,3.31zm24.51 4.65c-1.31,1.63 -2.64,3.24 -3.98,4.85 1.03,1.01 1.29,2.98 -0.26,3.76 -1.75,0.88 -3.46,1.85 -5.24,2.69 -2.11,1 -5.05,-1.47 -3.35,-3.62 0.67,-0.85 1.36,-1.7 2.04,-2.55 -4.13,1.96 -8.29,3.85 -12.68,5.22 -2.78,0.87 -5.07,-3.28 -2.32,-4.73 5.09,-2.67 9.9,-5.74 14.4,-9.25 -2.71,0.94 -5.33,2.36 -7.6,3.55 -4.42,2.3 -8.71,4.95 -13.37,6.76 -2.56,1 -5.41,-2.03 -3.66,-4.12 -2.26,-0.01 -4.03,-2.86 -1.9,-4.84 4.56,-4.23 10.37,-6.94 15.68,-10.09 3.17,-1.88 6.95,-3.99 9.62,-6.86 -1.97,0.64 -3.9,1.38 -5.81,2.2 -6.5,4.57 -13.41,8.58 -20.44,12.16 -3.05,1.55 -5.24,-2.51 -2.61,-4.48 1.78,-1.34 3.61,-2.65 5.49,-3.91 -1.03,0.56 -2.06,1.09 -3.1,1.57 -2.89,1.35 -4.53,-3.07 -1.81,-4.51 0.41,-0.22 0.83,-0.43 1.24,-0.64 8.21,-4.29 16.07,-10.61 24.97,-13.48 0.9,-0.96 1.61,-2.03 2.01,-3.19 -8.47,2.65 -16.2,7.31 -24.21,11.1 0,0 0,0 -0.01,0l0 0c-0.16,0.07 -0.32,0.15 -0.48,0.23 -2.16,1.01 -3.73,-2.51 -1.76,-3.72 6.47,-3.97 13.66,-6.78 19.88,-11.1 -2.82,0.52 -5.61,1.76 -8.1,2.87 -3.79,1.68 -7.5,3.59 -11.48,4.83 -1.86,0.58 -3.79,-2.04 -1.86,-3.21 4.16,-2.53 8.72,-4.53 12.7,-7.35 -3.96,-0.24 -7.91,1.01 -11.62,2.57 -1.88,0.8 -2.97,-2.03 -1.17,-2.91 5.34,-2.62 11.41,-4.27 17.27,-2.41 0.92,0.3 1.64,1.36 1.34,2.28 2.95,-0.8 5.96,-1.11 9.05,-0.46 1.32,0.27 1.7,1.91 1.08,2.94 0.41,-0.12 0.81,-0.23 1.22,-0.34 1.36,-0.36 2.34,0.72 2.48,1.96 0.18,1.66 -0.1,3.2 -0.71,4.64 0.53,-0.07 1.05,-0.13 1.59,-0.17 2.54,-0.18 3.69,2.67 1.87,4.37 -0.54,0.51 -1.09,1.01 -1.65,1.51 1.62,0.04 2.95,1.59 2.43,3.27 -0.56,1.8 -1.44,3.42 -2.53,4.91 0.42,-0.11 0.84,-0.23 1.26,-0.34 2.15,-0.54 3.5,2.37 2.26,3.93 -1.29,1.62 -2.71,3.08 -4.2,4.43 1.73,-0.21 3.48,-0.2 5.24,0.14 1.91,0.37 2.65,3.03 1.24,4.36 -0.29,0.28 -0.6,0.54 -0.9,0.81 2.62,-0.98 3.85,2.62 2.45,4.37z"/>
   <path class="fil2" d="M76.35 260.9c-2.02,-2.81 -5.49,-6.29 -4.66,-10.84 0.37,-2 1.33,-4.02 2.38,-5.8 3.07,-5.18 7.45,-9.57 11.56,-13.63 4.59,-4.53 9.48,-8.69 13.94,-13.41 1.68,-1.77 4.36,-4.23 5.41,-6.55 1.24,-2.7 -1.49,-3.99 -3.2,-1.98 -2.93,3.45 -6.66,6.33 -9.96,9.22 -3.81,3.33 -7.59,6.69 -11.27,10.21 -6.3,6.03 -13.9,13.23 -16.12,22.2 -1.7,6.92 1.47,12.4 4.35,17.02 2.9,4.66 10.66,-2.12 7.57,-6.44z"/>
   <path class="fil2" d="M176.32 263.36c-2.98,-0.58 -5.38,2.2 -8.46,1.85 -1.68,-0.19 -3.15,-1.37 -4.35,-2.91 -2.85,-3.65 -4.19,-9.54 -5.26,-14.3 -2.27,-10.12 -2.83,-20.63 -4.72,-30.84 -0.57,-3.11 -4.15,-2.44 -3.71,0.71 0.77,5.48 0.84,11.07 1.4,16.58 0.66,6.46 1.52,12.91 2.95,19.21 1.32,5.83 3.4,11.49 6.86,15.82 1.92,2.42 4.45,3.88 7.02,4.49 3.64,0.86 10,0.29 11.05,-5.09 0.5,-2.54 -0.66,-5.1 -2.78,-5.52z"/>
   <path class="fil0" d="M36.5 281.49c4.57,0.54 9.45,0.53 14.09,-0.04 -1.88,-1.98 -3.67,-3.89 -6.58,-5.41 -1.53,-0.81 -0.62,-2.92 1.56,-2.33 6.31,1.7 12.37,3.74 18.64,5.49 4.88,1.38 9.93,2.78 15.2,3.33 -2.16,-2.37 -4.13,-4.85 -7.05,-6.8 -1.59,-1.06 -0.26,-3.41 2.26,-2.84 11.67,2.63 22.51,7.14 34.48,9.13 -4.86,-2.87 -10.2,-5.38 -15.27,-8.09 -2.37,-1.26 -0.16,-3.86 2.71,-3.08 16.42,4.46 32.39,10.08 49.48,13.37 -6.93,-3.1 -14.03,-6.03 -21.39,-8.64 -3.33,-1.18 -1.37,-4.64 2.32,-3.71 12.72,3.2 24.96,7.29 37.73,10.38 -4.9,-1.85 -9.88,-3.62 -14.87,-5.38 -3.39,-1.19 -1.12,-4.77 2.49,-3.7 15.5,4.58 30.82,9.96 47.18,13.12 -10.38,-5.34 -22.5,-9.52 -35.17,-11.34 -3.5,-0.51 -2.33,-4.03 1.2,-3.63 13.75,1.56 26.43,5.19 39.25,8.59 -6.37,-2.98 -13,-5.72 -19.86,-8.15 -2.99,-1.06 -0.09,-3.86 2.85,-2.92 7.32,2.34 14.24,5.17 21.46,7.65 5.66,1.94 11.83,3.88 18.24,4.63 -1.06,-1.01 -2.25,-1.96 -3.56,-2.84 -1.79,-1.2 0.74,-3.21 2.87,-2.31 4.47,1.9 9.22,3.8 14.29,4.98 -0.08,-0.07 -0.16,-0.14 -0.23,-0.21 -0.91,-0.98 0.26,-1.91 1.55,-2.37 1.56,-0.55 2.85,0.36 2.76,1.25 0.34,0.1 0.68,0.2 1.01,0.3 2.23,0.72 4.25,1.62 6.24,2.6 1.53,0.75 0.37,2.5 -1.41,2.5 -6.06,0.02 -11.7,-1.16 -17.03,-2.87 0.73,0.94 0.22,2.41 -1.73,2.46 -3.87,0.09 -7.61,-0.35 -11.25,-1.08 0.48,0.26 0.96,0.51 1.42,0.77 2.54,1.41 -0.08,3.66 -2.9,3.07 -5.26,-1.09 -10.42,-2.38 -15.54,-3.73 2.95,1.52 5.78,3.13 8.45,4.81 1.93,1.22 1.12,3.95 -2.15,3.58 -7.91,-0.87 -15.53,-2.37 -22.98,-4.21 -0.07,1.17 -1.91,2.36 -3.86,2.14 -8.63,-0.97 -16.86,-2.76 -24.92,-4.88 1.14,0.54 2.28,1.07 3.41,1.62 2.37,1.13 0.81,3.89 -2.18,3.58 -16.24,-1.67 -31.18,-5.93 -45.99,-10.4 1.99,1.2 3.91,2.47 5.7,3.83 1.79,1.36 -0.79,2.96 -2.86,2.86 -12.78,-0.67 -23.82,-4.94 -35.28,-8.35 1.67,1.78 3.25,3.61 5.12,5.3 1.09,0.98 -0.2,2.55 -2.02,2.54 -11.71,-0.06 -21.51,-4.19 -31.7,-7.51 1.01,0.95 1.98,1.96 3,2.99 0.66,0.66 0.4,1.88 -0.97,2.11 -6.03,0.98 -12.58,1.05 -18.59,0.1 -2.08,-0.33 -1.83,-2.53 0.38,-2.26z"/>
   <path class="fil2" d="M249.96 166.75c-5.58,11.21 -11.21,22.41 -17.04,33.48 -0.93,1.77 1.85,2.97 2.8,1.26 6.09,-10.97 11.81,-22.11 17.5,-33.29 5.83,-11.49 12.1,-22.75 17.98,-34.21 1.06,-2.07 -2.38,-4.02 -3.56,-2 -6.56,11.18 -11.91,23.16 -17.68,34.76z"/>
   <path class="fil2" d="M244.01 110.95c1.51,3.1 4.96,5.76 7.43,7.59 3.98,2.98 8.91,5.05 13.58,6.69 1.65,0.58 2.31,-1.66 1.14,-2.58 -3.46,-2.7 -7.45,-4.6 -10.95,-7.23 -1.65,-1.23 -3.08,-2.71 -4.41,-4.27 -0.53,-0.62 -0.96,-1.29 -1.38,-1.96 1.29,-0.88 2.52,-1.88 3.73,-2.74 2.49,-1.79 4.91,-3.68 7.3,-5.61 0.24,0.51 0.66,0.97 1.29,1.29 2.36,1.19 4.88,2.11 7.31,3.13 0.23,0.09 0.47,0.19 0.7,0.28 0.36,5.05 0.98,10.11 1.56,15.1 0.22,1.86 3.07,1.81 2.94,-0.1 -0.56,-8.27 -0.78,-16.63 -0.07,-24.9 0.04,-0.06 0.08,-0.13 0.12,-0.2 -0.03,-0.01 -0.07,-0.03 -0.1,-0.04 0.25,-2.84 0.6,-5.68 1.1,-8.49 0.34,-1.98 -2.3,-3.97 -3.97,-2.44 -4.31,3.96 -8.67,7.89 -13.19,11.63 -2.2,1.82 -4.45,3.57 -6.74,5.27 -2.07,1.55 -4.4,2.9 -6.46,4.49 -0.7,0.19 -1.34,0.67 -1.58,1.33 -1.38,1.34 -0.69,3.1 0.65,3.76z"/>
   <path class="fil2" d="M218.89 150.88c-3.7,6.93 -7.39,13.87 -11.03,20.84 -2.1,4.02 -4.37,8.05 -6.17,12.22 -0.42,0.96 -0.37,1.77 -0.05,2.39 -0.06,0.08 -0.11,0.17 -0.16,0.27 -5.04,10.15 -2.81,23.56 7.67,29.13 8.14,4.34 18.67,1.08 22.58,-7.42 0.61,-1.32 -1.2,-2.46 -2.13,-1.35 -2.49,2.96 -5.07,5.56 -8.85,6.71 -3.15,0.97 -6.7,0.42 -9.57,-1.11 -7.67,-4.07 -8.62,-13.93 -5.74,-21.34 1.8,1.53 3.86,2.81 5.49,3.91 3.97,2.69 8.27,4.67 13.12,5.29 1.92,0.25 2.68,-2.78 0.79,-3.21 -3.84,-0.88 -7.33,-2.85 -10.45,-5.19 -1.79,-1.34 -3.45,-2.84 -5.07,-4.39 -0.87,-0.83 -1.65,-1.72 -2.52,-2.49 0.2,-0.35 0.4,-0.72 0.6,-1.07 0.5,0.53 1.02,1.04 1.5,1.54 1.94,2.01 4.08,3.79 6.39,5.38 4.17,2.86 9.36,4.59 14.41,4.83 1.6,0.08 2.09,-2.22 0.42,-2.51 -5.09,-0.9 -9.54,-3.3 -13.47,-6.63 -1.67,-1.41 -3.21,-2.95 -4.68,-4.57 -0.72,-0.8 -1.37,-1.69 -2.06,-2.54 5.15,-9.44 9.86,-19.2 14.71,-28.77 3.06,-6.01 6.13,-12.02 9.15,-18.04 1.21,-2.42 2.42,-4.84 3.67,-7.24 1.55,-2.98 3.13,-5.94 4.71,-8.91 1.44,-2.71 3.1,-5.37 3.94,-8.32 0.52,-1.8 -1.73,-2.35 -2.75,-1.17 -2.36,2.72 -3.92,6.35 -5.65,9.5 -1.8,3.26 -3.61,6.5 -5.46,9.73 -0.98,1.7 -1.93,3.42 -2.87,5.15 -3.55,6.43 -7.01,12.9 -10.47,19.38z"/>
   <path class="fil2" d="M223.67 162.51c-0.96,1.8 1.65,3.65 2.66,1.81 4.9,-8.9 10.28,-17.89 14.16,-27.29 0.65,-1.58 -1.6,-3.06 -2.62,-1.58 -5.78,8.31 -9.47,18.13 -14.2,27.06z"/>
   <path class="fil2" d="M195.8 72.41c-1.74,-8.06 -4.67,-15.73 -9.98,-22.18 -5.27,-6.39 -12.14,-11.3 -19.63,-14.77 -15.16,-7.03 -33.35,-8.76 -49.42,-3.91 -19.22,5.8 -34.42,22.66 -39.88,41.77 -5.01,17.55 -2.74,37.14 7.08,52.66 10.27,16.23 27.7,25.81 46.86,26.33 12.71,0.34 25.42,-2.1 35.95,-9.57 9.53,-6.76 15.91,-16.15 21.04,-26.37 -15,0.01 -30.69,-7.68 -35.22,-22.68 -1.1,-0.62 -1.01,-2.39 0.09,-3.06 3.1,-1.9 7.85,-1.95 11.39,-2.76 3.54,-0.8 7.06,-1.68 10.49,-2.89 7.84,-2.76 14.58,-7.09 20.93,-12.37 0.1,-0.08 0.2,-0.14 0.3,-0.2zm3.29 1.09c0,0.1 0,0.19 -0.02,0.28 0.29,0.77 0.26,1.66 -0.33,2.4 -2.66,3.29 -6.44,5.39 -10.05,7.46 -3.55,2.03 -7.27,3.78 -11.12,5.16 -4.12,1.47 -8.34,2.63 -12.63,3.5 -2.63,0.54 -5.75,1.51 -8.66,1.72 6.96,12.66 20.55,17.73 34.74,16.1 2.33,-2.4 7,0.73 5.43,4.39 -5.12,11.95 -12.96,23.41 -23.25,31.48 -10,7.84 -22.23,12.01 -34.89,12.52 -19.65,0.79 -39.04,-5.14 -52.37,-20.21 -12.51,-14.14 -18.46,-33.16 -16.86,-51.93 1.69,-19.88 11.91,-38.51 28,-50.39 6.05,-4.47 12.84,-7.66 19.98,-9.63 0.02,-0.01 0.02,-0.02 0.04,-0.03 9.06,-5.54 17.15,-12.76 19.85,-23.49 0.5,-1.98 3.63,-1.62 3.2,0.45 -1.27,6.12 -4.16,12.11 -8.21,17.14 2.12,-1.46 4.18,-3.01 6.13,-4.67 4.94,-4.21 9.68,-9.23 12.65,-15.05 0.75,-1.47 3.28,-0.39 2.65,1.15 -2.61,6.42 -6.71,11.89 -11.87,16.51 -2.18,1.96 -4.43,3.82 -6.81,5.52 8.19,-0.11 16.42,1.15 24.18,3.68 20.12,6.56 39.83,23.21 40.22,45.94z"/>
   <path class="fil2" d="M148.48 71.26c-1.08,-3.19 -4.52,-7.07 -7.81,-7.98 -1.37,-0.38 -3.1,1.79 -1.86,2.86 2.35,2.04 3.62,4.99 5.4,7.44 1.68,2.31 5.14,0.28 4.27,-2.32z"/>
   <path class="fil2" d="M168.49 61.15c-0.33,-0.54 -0.67,-1.08 -1.04,-1.61 -0.55,-0.81 -1.21,-1.51 -1.86,-2.24 -1.36,-1.54 -2.98,-2.85 -4.63,-4.06 -1.03,-0.78 -2.37,0.35 -2.16,1.49 0.63,3.4 2.92,5.9 4.61,8.8 1.82,3.13 6.99,0.64 5.08,-2.38z"/>
   <path class="fil2" d="M58.03 183.88c-7.31,-52.69 -16.95,-105.05 -22.48,-157.98 -0.13,-1.23 -0.99,-1.87 -1.93,-1.99 1.33,-0.67 1.22,-2.69 0.02,-3.4 -2.21,-1.31 -4.76,-0.86 -7.23,-0.61 -2.72,0.28 -5.41,0.85 -8.07,1.47 -5.06,1.17 -10.06,2.67 -15.23,3.29 -2.4,0.29 -1.88,3.89 0.49,3.69 4.85,-0.42 9.57,-1.56 14.32,-2.53 2.89,-0.58 5.78,-1.04 8.71,-1.25 1.7,-0.12 3.37,0.11 4.99,-0.1 -0.49,0.42 -0.81,1.06 -0.72,1.91 0.88,8.46 1.78,16.93 2.68,25.39 -1.08,-0.34 -2.3,-0.16 -3.46,0.05 -1.19,0.21 -3.26,0.49 -4.08,1.53 -0.08,0.1 -0.13,0.18 -0.19,0.24 -0.39,0.25 -0.69,0.58 -0.77,1.08 -0.19,1.2 0.89,1.89 1.93,1.7 -0.25,0.07 -0.15,0.17 0.3,0.31 0.63,0.18 1.27,0.2 1.93,0.06 0.69,-0.03 1.38,-0.08 2.07,-0.09 1.03,-0.02 1.92,-0.11 2.73,-0.53 1.09,10.13 2.19,20.25 3.34,30.38 -4.12,-0.51 -9.1,1.99 -10.91,5.37 -0.79,1.48 0.83,3.62 2.49,2.88 1.9,-0.86 3.58,-1.96 5.59,-2.58 1.12,-0.34 2.27,-0.39 3.41,-0.52 1.36,11.88 2.76,23.75 4.25,35.61 -0.16,-0.05 -0.34,-0.08 -0.52,-0.1 -3.14,-0.27 -6.44,0.13 -9.29,1.51 -1.95,0.95 -1.25,4.48 1.05,4.25 2.69,-0.26 5.35,-0.27 8.04,-0.45 0.53,-0.04 0.96,-0.22 1.31,-0.5 1.35,10.56 2.75,21.11 4.24,31.64 -0.88,0.03 -1.76,0.22 -2.89,0.45 -2.63,0.54 -5.3,0.81 -7.91,1.39 -2.29,0.5 -2.05,4.13 0.19,4.5 2.61,0.44 5.17,0.25 7.78,-0.06 1.35,-0.17 2.54,-0.34 3.62,-0.75 0.66,4.56 1.33,9.12 2.02,13.68 -3.32,0.28 -6.89,1.78 -9.83,2.48 -4.52,1.09 -8.92,2.4 -13.23,4.15 -0.05,0.01 -0.08,0.04 -0.13,0.06 -0.54,-0.34 -1.08,-0.69 -1.62,-1.03 0.7,0.16 1.4,0.31 2.1,0.47 1.5,1.06 0.4,-3.02 0.31,-3.55 -0.32,-1.7 -0.61,-3.42 -0.89,-5.13 -0.67,-4.07 -1.55,-8.06 -2.44,-12.08 -2.97,-13.28 -5.47,-26.65 -7.73,-40.07 -4.51,-26.79 -8.05,-53.73 -13.14,-80.43 -0.4,-2.1 -3.52,-1.42 -3.23,0.67 3.81,27.69 7,55.47 11.25,83.11 2.09,13.58 4.41,27.12 7.23,40.57 0.78,3.73 1.4,7.42 1.92,11.2 0.45,3.27 0.51,7.27 2.9,9.8 1.13,1.2 2.73,1.08 3.78,0.24 0.31,0.11 0.65,0.16 1.02,0.1 4.85,-0.83 9.77,-1.28 14.64,-2.04 3.53,-0.55 8.24,-0.48 11.2,-2.73 2.19,-0.11 4.46,-1.9 4.07,-4.73z"/>
  </g>
 </g>
</svg>
