<?xml version="1.0" encoding="UTF-8"?>
<!DOCTYPE svg PUBLIC "-//W3C//DTD SVG 1.1//EN" "http://www.w3.org/Graphics/SVG/1.1/DTD/svg11.dtd">
<!-- Creator: CorelDRAW 2017 -->
<svg xmlns="http://www.w3.org/2000/svg" xml:space="preserve" width="330px" height="265px" version="1.1" style="shape-rendering:geometricPrecision; text-rendering:geometricPrecision; image-rendering:optimizeQuality; fill-rule:evenodd; clip-rule:evenodd"
viewBox="0 0 96.18 77.14"
 xmlns:xlink="http://www.w3.org/1999/xlink">
 <defs>
  <style type="text/css">
   <![CDATA[
    .fil0 {fill:#E6D94D}
    .fil1 {fill:#A2B747}
    .fil2 {fill:#5B5F61}
    .fil3 {fill:#45C2CD}
   ]]>
  </style>
 </defs>
 <g id="Layer_x0020_1">
  <metadata id="CorelCorpID_0Corel-Layer"/>
  <g id="_1952289617552">
   <path class="fil0" d="M89.44 74.09c-1.59,0.16 -3.28,0.16 -4.88,-0.02 0.64,-0.59 1.27,-1.16 2.27,-1.62 0.53,-0.24 0.22,-0.87 -0.54,-0.69 -2.18,0.5 -4.28,1.11 -6.45,1.63 -1.69,0.41 -3.44,0.83 -5.26,0.99 0.75,-0.71 1.43,-1.45 2.44,-2.04 0.55,-0.32 0.08,-1.02 -0.79,-0.85 -4.04,0.78 -7.79,2.12 -11.93,2.71 1.68,-0.85 3.53,-1.6 5.28,-2.41 0.82,-0.38 0.05,-1.16 -0.94,-0.93 -5.68,1.33 -11.21,3 -17.12,3.97 2.39,-0.92 4.85,-1.79 7.4,-2.57 1.15,-0.35 0.47,-1.39 -0.81,-1.11 -4.4,0.95 -8.64,2.17 -13.06,3.08 1.7,-0.55 3.42,-1.08 5.15,-1.6 1.17,-0.36 0.38,-1.43 -0.86,-1.11 -5.37,1.36 -10.67,2.96 -16.33,3.9 3.59,-1.59 7.78,-2.84 12.17,-3.38 1.21,-0.14 0.8,-1.2 -0.42,-1.08 -4.76,0.46 -9.15,1.53 -13.59,2.54 2.21,-0.89 4.5,-1.7 6.87,-2.43 1.04,-0.31 0.03,-1.15 -0.98,-0.87 -2.53,0.69 -4.93,1.54 -7.43,2.27 -1.96,0.58 -4.09,1.16 -6.31,1.38 0.37,-0.3 0.78,-0.58 1.23,-0.85 0.62,-0.36 -0.26,-0.96 -0.99,-0.69 -1.55,0.56 -3.19,1.13 -4.95,1.48 0.03,-0.02 0.06,-0.04 0.08,-0.06 0.31,-0.3 -0.09,-0.58 -0.54,-0.71 -0.54,-0.17 -0.98,0.1 -0.95,0.37 -0.12,0.03 -0.24,0.06 -0.35,0.09 -0.77,0.21 -1.47,0.48 -2.16,0.77 -0.53,0.23 -0.13,0.75 0.49,0.75 2.1,0.01 4.05,-0.34 5.89,-0.85 -0.25,0.29 -0.07,0.73 0.6,0.74 1.34,0.03 2.64,-0.1 3.9,-0.31 -0.17,0.07 -0.33,0.15 -0.49,0.23 -0.88,0.42 0.03,1.09 1,0.92 1.83,-0.32 3.61,-0.71 5.38,-1.11 -1.02,0.46 -2,0.94 -2.92,1.44 -0.67,0.36 -0.39,1.18 0.75,1.07 2.73,-0.25 5.37,-0.7 7.95,-1.24 0.02,0.35 0.66,0.71 1.34,0.64 2.98,-0.28 5.83,-0.81 8.62,-1.44 -0.39,0.16 -0.78,0.32 -1.18,0.48 -0.82,0.34 -0.27,1.16 0.76,1.07 5.62,-0.49 10.79,-1.75 15.92,-3.08 -0.69,0.36 -1.35,0.73 -1.97,1.14 -0.62,0.41 0.27,0.89 0.99,0.86 4.42,-0.19 8.24,-1.46 12.21,-2.48 -0.58,0.54 -1.12,1.08 -1.77,1.59 -0.38,0.29 0.07,0.76 0.7,0.76 4.05,-0.01 7.45,-1.24 10.97,-2.23 -0.35,0.29 -0.68,0.59 -1.03,0.9 -0.23,0.19 -0.14,0.56 0.33,0.63 2.09,0.3 4.36,0.32 6.44,0.04 0.72,-0.09 0.63,-0.75 -0.13,-0.68z"/>
   <path class="fil1" d="M31.2 51.75c0.49,-0.34 1,-0.67 1.51,-0.97 -0.49,0.33 -1,0.65 -1.51,0.97zm5.66 2.26c0.3,-0.41 0.6,-0.82 0.9,-1.23 0.03,-0.11 0.07,-0.21 0.1,-0.32 0.02,-0.04 0.03,-0.08 0.05,-0.13 -0.01,-0.18 -0.02,-0.36 -0.02,-0.55 -0.14,-0.26 -0.41,-0.43 -0.76,-0.28 0.08,-0.07 0.16,-0.15 0.24,-0.23 0.36,-0.38 0.11,-1.08 -0.4,-1.15 -0.48,-0.07 -0.95,-0.05 -1.41,0.04 0.38,-0.39 0.74,-0.8 1.06,-1.26 0.31,-0.44 -0.09,-1.2 -0.66,-1.02 -0.11,0.03 -0.23,0.07 -0.34,0.11 0.27,-0.42 0.49,-0.87 0.61,-1.36 0.12,-0.46 -0.26,-0.85 -0.7,-0.84 0.14,-0.14 0.28,-0.29 0.42,-0.43 0.46,-0.49 0.11,-1.24 -0.57,-1.15 -0.14,0.02 -0.28,0.04 -0.42,0.07 0.14,-0.4 0.2,-0.82 0.12,-1.26 -0.05,-0.33 -0.33,-0.61 -0.69,-0.49 -0.11,0.03 -0.22,0.07 -0.33,0.11 0.16,-0.29 0.03,-0.72 -0.33,-0.78 -0.84,-0.12 -1.65,0 -2.43,0.26 0.07,-0.25 -0.14,-0.53 -0.39,-0.59 -1.6,-0.42 -3.21,0.11 -4.61,0.9 -0.47,0.26 -0.14,1 0.36,0.76 0.97,-0.47 2.02,-0.87 3.09,-0.86 -1.03,0.82 -2.23,1.42 -3.31,2.16 -0.51,0.35 0.05,1.02 0.54,0.84 1.05,-0.39 2.03,-0.96 3.02,-1.47 0.65,-0.33 1.39,-0.71 2.14,-0.89 -1.61,1.26 -3.51,2.12 -5.19,3.28 -0.51,0.35 -0.04,1.27 0.53,0.97 0.04,-0.02 0.08,-0.04 0.13,-0.07l0 0c0,0 0,0 0,0 2.1,-1.13 4.11,-2.5 6.35,-3.34 -0.09,0.32 -0.27,0.62 -0.49,0.89 -2.36,0.9 -4.38,2.72 -6.52,3.99 -0.11,0.07 -0.22,0.13 -0.33,0.19 -0.71,0.43 -0.21,1.59 0.55,1.19 0.28,-0.15 0.55,-0.3 0.81,-0.47 -0.48,0.37 -0.96,0.75 -1.42,1.13 -0.67,0.57 -0.02,1.63 0.77,1.17 1.84,-1.07 3.64,-2.24 5.32,-3.57 0.5,-0.25 1.01,-0.48 1.53,-0.68 -0.67,0.82 -1.66,1.44 -2.49,1.99 -1.38,0.92 -2.9,1.74 -4.06,2.94 -0.55,0.57 -0.03,1.31 0.58,1.28 -0.44,0.58 0.37,1.36 1.04,1.05 1.23,-0.55 2.35,-1.33 3.5,-2.01 0.59,-0.36 1.28,-0.78 1.99,-1.07 -1.16,1.01 -2.41,1.91 -3.74,2.7 -0.72,0.43 -0.04,1.51 0.7,1.24 1.16,-0.43 2.25,-1 3.33,-1.59 -0.17,0.24 -0.34,0.48 -0.51,0.71 -0.43,0.61 0.4,1.23 0.95,0.93 0.47,-0.25 0.92,-0.54 1.37,-0.8 0.41,-0.23 0.31,-0.76 0.02,-1.01z"/>
   <path class="fil2" d="M38.93 56.68c-0.07,-0.12 -0.15,-0.24 -0.25,-0.34 -0.28,0.07 -0.6,0.09 -0.98,0.03 -0.13,-0.02 -0.23,-0.07 -0.3,-0.15 -1.93,-0.16 -3.91,0.04 -5.83,0.05 -2.29,0.01 -4.51,-0.23 -6.76,-0.65 0,-0.7 -0.09,-1.44 -0.07,-2.09 0.03,-1.25 0.15,-2.51 0.28,-3.76 0.27,-2.78 0.62,-5.53 0.69,-8.33 0.01,-0.59 -1.01,-0.65 -1.05,-0.05 -0.13,2.62 -0.56,5.22 -0.91,7.82 -0.18,1.25 -0.33,2.5 -0.42,3.76 -0.05,0.61 -0.08,1.23 -0.1,1.84 -0.01,0.62 -0.1,1.35 0.16,1.92 0.14,0.31 0.55,0.49 0.87,0.41 2.21,0.64 4.57,0.76 6.86,0.77 1.16,0.01 2.31,-0.04 3.47,-0.11 1.33,-0.07 2.66,-0.12 3.96,-0.45 0.3,-0.07 0.42,-0.39 0.34,-0.65 0.02,0 0.03,-0.01 0.04,-0.02z"/>
   <path class="fil2" d="M37.79 45.38l0.81 0c0.04,0 0.08,0.01 0.13,0.01 -0.38,-1.72 -0.87,-3.42 -1.43,-5.09 -0.17,-0.5 -1.01,-0.3 -0.89,0.22 0.36,1.65 0.72,3.31 1,4.98 0.1,-0.08 0.23,-0.12 0.38,-0.12z"/>
   <path class="fil2" d="M37.06 41.41c2.24,-0.15 4.55,-0.26 6.78,-1.21 1.12,-0.48 2.08,-1.28 2.99,-2.21 0.63,-0.65 1.17,-1.39 1.77,-2.08 0.59,-0.68 1.26,-1.15 1.52,-2.06 0.22,-0.75 -0.33,-1.2 -0.91,-1.16 -1.34,0.1 -2.6,2.62 -3.44,3.72 -0.7,0.91 -1.56,1.79 -2.5,2.33 -1.96,1.15 -4.14,1.2 -6.18,1.72 -0.48,0.12 -0.5,0.98 -0.03,0.95z"/>
   <path class="fil2" d="M10.19 40.02c0.3,-0.1 0.65,-0.1 0.97,0.01 0.22,0.07 0.41,0.17 0.57,0.31 0.17,0.15 0.28,0.31 0.34,0.5 0.07,-0.04 0.13,-0.08 0.19,-0.11 0.15,0.11 0.3,0.22 0.45,0.32 0.23,0.16 0.47,0.32 0.71,0.47 0.54,0.35 1.1,0.66 1.69,0.95 0.83,0.43 1.72,0.81 2.66,0.99 1.21,0.24 2.32,-0.13 3.33,-0.47 1.42,-0.48 2.77,-1.17 4.11,-1.77 0.48,-0.21 0.97,0.4 0.6,0.67 -1.21,0.9 -2.27,1.76 -3.8,2.38 -1.15,0.46 -2.39,0.76 -3.75,0.77 -2.86,0.02 -6.29,-1.86 -8.33,-3.48 -0.63,-0.5 -0.43,-1.31 0.26,-1.54z"/>
   <path class="fil2" d="M19.21 68.6c0.84,-0.07 2.03,0.02 2.74,-0.85 0.32,-0.38 0.54,-0.87 0.7,-1.35 0.48,-1.38 0.6,-2.89 0.71,-4.29 0.11,-1.56 0.11,-3.12 0.28,-4.69 0.07,-0.59 0.1,-1.48 0.36,-2.04 0.31,-0.65 0.98,-0.35 0.88,0.29 -0.18,1.08 -0.13,2.23 -0.14,3.29 -0.02,1.23 -0.05,2.46 -0.12,3.7 -0.12,2.12 -0.26,4.66 -1.57,6.48 -1.01,1.41 -2.53,1.68 -3.84,1.88 -1.32,0.19 -1.28,-2.31 0,-2.42z"/>
   <path class="fil2" d="M43.45 68.16c-0.71,-0.21 -1.35,0.41 -2.09,0.26 -0.4,-0.08 -0.73,-0.4 -0.99,-0.8 -0.61,-0.95 -0.8,-2.4 -0.96,-3.58 -0.31,-2.4 -0.24,-4.86 -0.44,-7.27 -0.07,-0.17 -0.17,-0.31 -0.29,-0.43 -0.19,0.05 -0.4,0.07 -0.64,0.06 0,0.05 -0.01,0.1 0,0.16 0.06,1.34 -0.05,2.7 -0.03,4.05 0.02,1.57 0.08,3.16 0.29,4.71 0.19,1.44 0.57,2.86 1.31,3.98 0.41,0.63 0.99,1.04 1.6,1.24 0.86,0.29 2.42,0.3 2.79,-0.98 0.17,-0.61 -0.05,-1.25 -0.55,-1.4z"/>
   <path class="fil2" d="M44.03 17.05c-1.4,1.66 -2.94,3.09 -4.83,4.17 -0.83,0.47 -1.7,0.86 -2.58,1.23 -0.87,0.38 -2.1,0.61 -2.81,1.25 -0.25,0.22 -0.19,0.68 0.12,0.79 1.87,3.66 6.28,4.92 10.15,4.22 -0.85,2.88 -2.06,5.6 -4.21,7.79 -2.37,2.42 -5.54,3.64 -8.83,4.14 -4.98,0.76 -9.92,-0.9 -13.33,-4.62 -3.26,-3.55 -4.76,-8.5 -4.28,-13.27 0.52,-5.19 3.66,-10.25 8.35,-12.64 3.93,-2 8.71,-2.4 12.95,-1.29 2.09,0.55 4.1,1.49 5.76,2.9 1.67,1.42 2.78,3.26 3.61,5.26 -0.03,0.02 -0.05,0.04 -0.07,0.07zm-33.89 3.13c-0.51,-0.62 -1.18,-1.11 -1.74,-1.67 -0.27,-0.27 -0.69,-0.66 -0.72,-1.06 -0.03,-0.36 0.48,-0.48 0.74,-0.59 0.85,-0.36 1.79,-0.47 2.67,-0.78 1.16,-0.4 2.4,-0.71 3.53,-1.22 -0.44,0.76 -0.89,1.51 -1.39,2.23 -0.79,1.14 -1.79,2.47 -3.09,3.09zm1.51 -10.71c-0.15,-0.13 -0.5,-0.39 -0.5,-0.61 0.02,-0.52 0.66,-0.94 1.03,-1.2 0.75,-0.53 1.57,-0.93 2.38,-1.37 0.57,1.96 0.83,3.97 1.28,5.95 -1.5,-0.67 -2.99,-1.71 -4.19,-2.77zm33.35 7.71c0,-0.02 0,-0.04 0,-0.07 -1.16,-5.85 -7.03,-9.23 -12.53,-9.99 -2.12,-0.29 -4.31,-0.24 -6.42,0.17 0.54,-0.55 1.03,-1.13 1.5,-1.74 1.12,-1.43 1.93,-3.04 2.3,-4.82 0.1,-0.42 -0.61,-0.59 -0.74,-0.17 -0.49,1.64 -1.48,3.16 -2.56,4.48 -0.43,0.52 -0.89,1.01 -1.36,1.49 0.8,-1.49 1.27,-3.17 1.32,-4.81 0.01,-0.55 -0.82,-0.5 -0.85,0.03 -0.2,2.9 -1.95,5.14 -4.04,6.99 0,0.01 0,0.01 0,0.01 -1.75,0.84 -3.35,1.97 -4.7,3.4 -0.28,-2.32 -0.69,-4.71 -1.34,-6.93 -0.11,-0.37 -0.52,-0.7 -0.92,-0.47 -1.54,0.87 -6.2,2.55 -4.63,5.07 0.61,0.97 1.84,1.68 2.76,2.28 0.04,0.03 0.08,0.05 0.11,0.07 -1.63,-0.12 -3.24,-0.33 -4.86,-0.81 -2.95,-0.89 -5.61,-2.58 -7.19,-5.28 -0.26,-0.45 -1.04,-0.03 -0.81,0.44 1.35,2.72 3.84,4.48 6.61,5.58 0.4,0.15 0.79,0.29 1.19,0.42 -0.01,0 -0.03,0 -0.04,0 -2.31,-0.09 -4.66,-0.48 -6.83,-1.32 -0.55,-0.21 -0.9,0.58 -0.37,0.84 2.26,1.11 4.7,1.58 7.21,1.73 -2.01,0.33 -4.05,0.58 -6.09,0.51 -0.65,-0.03 -0.67,0.94 -0.03,1 2.11,0.18 4.18,-0.01 6.28,-0.32 1.06,-0.15 2.11,-0.33 3.17,-0.51 0.32,-0.05 0.65,-0.09 0.98,-0.14 -0.58,0.18 -1.18,0.35 -1.77,0.51 -1.15,0.31 -2.5,0.43 -3.47,1.19 -0.93,0.72 -0.82,1.92 -0.19,2.81 0.69,0.98 1.93,1.58 2.52,2.62 0.15,0.27 0.5,0.49 0.82,0.38 0.95,-0.33 1.76,-0.89 2.47,-1.57 -0.51,2.02 -0.68,4.13 -0.48,6.23 0.46,4.93 2.88,9.56 6.77,12.63 4.14,3.27 9.43,3.91 14.47,2.79 3.24,-0.73 6.21,-2.37 8.42,-4.86 2.29,-2.56 3.78,-5.89 4.54,-9.22 0.24,-1.01 -1.11,-1.6 -1.6,-0.88 -3.59,1.09 -7.34,0.41 -9.72,-2.54 0.74,-0.19 1.5,-0.58 2.15,-0.84 1.07,-0.43 2.1,-0.92 3.1,-1.5 0.93,-0.53 1.81,-1.16 2.63,-1.85 0.84,-0.7 1.72,-1.42 2.25,-2.39 0.12,-0.22 0.09,-0.45 -0.03,-0.64z"/>
   <path class="fil2" d="M31.82 18.89c-0.42,-0.78 -1.5,-1.62 -2.39,-1.7 -0.37,-0.03 -0.72,0.61 -0.35,0.83 0.71,0.41 1.17,1.12 1.75,1.67 0.54,0.52 1.34,-0.17 0.99,-0.8z"/>
   <path class="fil2" d="M36.52 15.35c-0.11,-0.13 -0.23,-0.25 -0.35,-0.37 -0.17,-0.18 -0.38,-0.34 -0.58,-0.49 -0.42,-0.34 -0.9,-0.6 -1.38,-0.84 -0.31,-0.15 -0.6,0.2 -0.49,0.49 0.32,0.85 1.03,1.39 1.6,2.06 0.61,0.72 1.83,-0.16 1.2,-0.85z"/>
   <path class="fil1" d="M15.12 10.62c-0.53,-0.6 -0.59,-1.36 -0.39,-2.12 0.07,-0.3 -0.09,-0.5 -0.32,-0.58 0.01,-0.04 0.02,-0.08 0.04,-0.13 0.15,-0.71 -0.9,-1.08 -1.1,-0.35 -0.03,0.12 -0.07,0.23 -0.12,0.34 -0.14,-0.14 -0.37,-0.18 -0.56,-0.14 -0.25,0.06 -0.45,0.15 -0.65,0.3 -0.4,0.3 -0.05,0.85 0.37,0.86 0.02,0.13 0.04,0.27 0.06,0.41 0.05,0.27 0.28,0.44 0.51,0.46 0,0.1 -0.01,0.19 -0.01,0.29 -0.01,0.49 0.48,0.73 0.83,0.55 0.08,0.29 0.23,0.56 0.47,0.8 0.49,0.51 1.36,-0.15 0.87,-0.69z"/>
   <path class="fil1" d="M12.89 15.31c-1.09,0.61 -2.03,1.14 -2.6,2.07 -0.07,-0.12 -0.15,-0.24 -0.21,-0.36 -0.31,-0.57 -1.26,-0.45 -1.23,0.23 -0.17,0.07 -0.3,0.24 -0.27,0.48 -0.02,-0.12 -0.03,-0.1 -0.02,0.06 0.01,0.15 0.09,0.29 0.17,0.42 0.16,0.29 0.36,0.57 0.59,0.8 0.17,0.17 0.4,0.19 0.6,0.12 0,0 0.01,0 0.01,0 0.31,0.54 1.04,0.17 1.14,-0.3 0.29,-1.43 1.41,-1.68 2.51,-2.35 0.75,-0.45 0.07,-1.6 -0.69,-1.17z"/>
   <path class="fil3" d="M75.52 50.76c-0.52,-0.28 -1.04,-0.56 -1.54,-0.86 0.52,0.27 1.03,0.56 1.54,0.86zm-6.44 1.28c0.35,0.42 0.71,0.84 1.06,1.26 -0.27,0.27 -0.33,0.79 0.08,0.99 0.46,0.23 0.91,0.48 1.38,0.7 0.56,0.25 1.33,-0.4 0.88,-0.96 -0.18,-0.23 -0.37,-0.45 -0.55,-0.67 1.09,0.51 2.19,0.99 3.35,1.34 0.73,0.22 1.32,-0.87 0.6,-1.25 -1.35,-0.69 -2.62,-1.48 -3.81,-2.39 0.71,0.24 1.41,0.6 2.01,0.91 1.16,0.6 2.3,1.28 3.53,1.75 0.67,0.25 1.42,-0.55 0.95,-1.09 0.59,-0.01 1.05,-0.77 0.49,-1.28 -1.21,-1.1 -2.75,-1.8 -4.15,-2.62 -0.84,-0.48 -1.84,-1.03 -2.54,-1.78 0.51,0.17 1.02,0.36 1.53,0.57 1.72,1.18 3.54,2.22 5.4,3.15 0.81,0.4 1.37,-0.67 0.68,-1.19 -0.47,-0.35 -0.96,-0.69 -1.46,-1.01 0.28,0.14 0.55,0.28 0.82,0.4 0.77,0.35 1.19,-0.82 0.47,-1.19 -0.11,-0.05 -0.22,-0.11 -0.33,-0.16 -2.17,-1.11 -4.25,-2.75 -6.6,-3.49 -0.23,-0.25 -0.42,-0.53 -0.53,-0.83 2.23,0.67 4.28,1.88 6.39,2.86 0,0 0,0 0,0l0 0c0.04,0.02 0.09,0.04 0.13,0.06 0.57,0.26 0.97,-0.67 0.45,-0.98 -1.71,-1.03 -3.61,-1.75 -5.25,-2.87 0.74,0.13 1.48,0.44 2.14,0.73 1,0.43 1.98,0.93 3.02,1.24 0.5,0.15 1,-0.54 0.49,-0.85 -1.1,-0.65 -2.31,-1.16 -3.36,-1.9 1.04,-0.07 2.08,0.25 3.06,0.65 0.5,0.21 0.78,-0.54 0.3,-0.77 -1.41,-0.67 -3.01,-1.09 -4.55,-0.59 -0.24,0.08 -0.42,0.36 -0.34,0.6 -0.78,-0.2 -1.57,-0.27 -2.38,-0.1 -0.35,0.08 -0.44,0.51 -0.28,0.78 -0.11,-0.03 -0.21,-0.06 -0.32,-0.09 -0.36,-0.09 -0.61,0.2 -0.65,0.52 -0.04,0.44 0.04,0.84 0.2,1.22 -0.14,-0.02 -0.28,-0.03 -0.42,-0.04 -0.66,-0.04 -0.96,0.71 -0.48,1.15 0.15,0.14 0.29,0.27 0.44,0.4 -0.43,0.01 -0.77,0.42 -0.63,0.86 0.15,0.47 0.38,0.9 0.67,1.29 -0.11,-0.03 -0.22,-0.06 -0.33,-0.09 -0.56,-0.13 -0.91,0.63 -0.58,1.04 0.34,0.42 0.72,0.8 1.11,1.15 -0.45,-0.05 -0.91,-0.04 -1.37,0.05 -0.5,0.11 -0.69,0.81 -0.32,1.15 0.08,0.07 0.16,0.14 0.24,0.21 -0.69,-0.25 -1.01,0.7 -0.64,1.16z"/>
   <path class="fil2" d="M90.49 16.18c-1.98,-4.93 -6.04,-8.87 -11.07,-10.64 -1.89,-0.67 -3.87,-0.94 -5.84,-0.89 0,0 -0.01,0 -0.01,0 -2.74,-0.7 -5.37,-1.91 -6.89,-4.43 -0.29,-0.46 -1.05,-0.13 -0.78,0.37 0.8,1.46 2,2.75 3.43,3.72 -0.66,-0.21 -1.3,-0.44 -1.93,-0.71 -1.59,-0.69 -3.18,-1.59 -4.4,-2.84 -0.3,-0.32 -0.86,0.16 -0.58,0.5 1.17,1.43 2.64,2.5 4.31,3.27 0.71,0.33 1.43,0.63 2.17,0.87 -2.09,0.62 -4.09,1.58 -5.87,2.83 -0.47,0.34 -0.94,0.7 -1.39,1.08 0.12,0.05 0.22,0.14 0.28,0.26 0.32,0 0.65,0.23 0.7,0.54 3.21,-2.56 7.34,-4.13 11.44,-4.16 5.35,-0.02 10.54,3.08 13.42,7.52 2.65,4.07 3.61,9.24 2.32,13.96 -1.34,4.93 -5.03,8.74 -9.87,10.37 -3.21,1.08 -6.63,1.45 -9.9,0.38 -2.95,-0.98 -5.31,-2.87 -7.42,-5.07 3.82,-1.17 7.21,-4.36 7.19,-8.53 0.23,-0.25 0.07,-0.69 -0.26,-0.77 -0.94,-0.24 -2.15,0.12 -3.12,0.19 -0.96,0.07 -1.93,0.12 -2.89,0.08 -2.22,-0.09 -4.27,-0.66 -6.3,-1.51 -0.03,-0.01 -0.06,-0.02 -0.09,-0.03 -0.02,-0.23 -0.04,-0.46 -0.05,-0.7 -0.07,-0.01 -0.14,-0.04 -0.22,-0.08 -0.05,-0.03 -0.1,-0.06 -0.14,-0.11 -0.14,0.22 -0.38,0.29 -0.61,0.26 0.07,0.39 0.15,0.78 0.27,1.17 0,0.02 0.01,0.05 0.02,0.07 -0.01,0.21 0.07,0.44 0.28,0.58 0.93,0.63 2.06,0.87 3.14,1.11 1.06,0.24 2.14,0.4 3.23,0.45 1.17,0.05 2.33,0.01 3.49,-0.1 0.71,-0.07 1.58,-0.07 2.34,-0.24 -0.78,3.77 -3.84,6.12 -7.58,6.82 -0.78,-0.43 -1.73,0.73 -1.04,1.54 2.24,2.64 5.13,4.95 8.38,6.2 3.16,1.21 6.6,1.31 9.86,0.45 5.07,-1.33 9.54,-4.36 11.75,-9.24 2.08,-4.58 2.11,-9.89 0.23,-14.54z"/>
   <path class="fil2" d="M69.1 18.54c0.02,-0.89 0.59,-2.15 1.36,-2.64 0.32,-0.2 0.93,0.22 0.7,0.59 -0.44,0.7 -0.53,1.55 -0.8,2.31 -0.24,0.72 -1.28,0.48 -1.26,-0.26z"/>
   <path class="fil2" d="M63.21 17.54c0.04,-0.17 0.09,-0.33 0.14,-0.49 0.08,-0.25 0.19,-0.48 0.3,-0.72 0.22,-0.5 0.53,-0.96 0.86,-1.4 0.2,-0.27 0.63,-0.09 0.67,0.21 0.1,0.92 -0.29,1.74 -0.49,2.6 -0.22,0.94 -1.73,0.71 -1.48,-0.2z"/>
   <path class="fil2" d="M66.89 47.72c0.2,-2.78 0.73,-5.49 1.45,-8.17 0.14,-0.51 1,-0.37 0.92,0.16 -0.42,2.77 -0.85,5.56 -0.92,8.36 -0.06,2.41 -0.06,4.97 0.57,7.3 0.03,0.14 0.04,0.26 0.02,0.37 2.04,-0.36 4.18,-0.27 6.24,-0.38 2.32,-0.14 4.56,-0.53 6.81,-1.09 -0.05,-0.71 0,-1.46 -0.06,-2.12 -0.12,-1.27 -0.32,-2.54 -0.53,-3.8 -0.45,-2.79 -0.98,-5.56 -1.23,-8.39 -0.06,-0.6 0.98,-0.72 1.05,-0.12 0.31,2.65 0.9,5.26 1.43,7.87 0.26,1.25 0.49,2.51 0.67,3.78 0.09,0.62 0.15,1.23 0.21,1.86 0.05,0.62 0.19,1.35 -0.04,1.95 -0.12,0.32 -0.52,0.53 -0.85,0.47 -2.2,0.79 -4.58,1.06 -6.9,1.22 -1.17,0.08 -2.34,0.11 -3.52,0.12 -1.35,0 -2.71,0.04 -4.04,-0.21 -0.31,-0.05 -0.45,-0.37 -0.39,-0.63 -0.27,-0.09 -0.5,-0.3 -0.59,-0.63 -0.69,-2.52 -0.48,-5.35 -0.3,-7.92z"/>
   <path class="fil2" d="M68.63 40.74c-1.17,1.96 -2.34,3.99 -4.23,5.56 -0.95,0.79 -2.12,1.29 -3.38,1.68 -0.87,0.27 -1.8,0.42 -2.69,0.64 -0.89,0.22 -1.63,0.61 -2.57,0.43 -0.78,-0.16 -0.93,-0.87 -0.63,-1.37 0.71,-1.16 3.57,-1.13 4.95,-1.39 1.15,-0.21 2.34,-0.58 3.27,-1.17 1.94,-1.24 3,-3.19 4.41,-4.79 0.33,-0.38 1.11,0 0.87,0.41z"/>
   <path class="fil2" d="M95.38 35.03c-0.31,-0.05 -0.66,0.01 -0.97,0.17 -0.2,0.11 -0.38,0.24 -0.51,0.41 -0.14,0.18 -0.23,0.36 -0.26,0.56 -0.07,-0.03 -0.14,-0.06 -0.21,-0.08 -0.13,0.13 -0.26,0.27 -0.4,0.4 -0.2,0.2 -0.41,0.39 -0.62,0.59 -0.48,0.44 -1,0.84 -1.53,1.23 -0.77,0.57 -1.59,1.1 -2.5,1.44 -1.17,0.44 -2.34,0.26 -3.41,0.09 -1.51,-0.24 -2.97,-0.71 -4.42,-1.08 -0.5,-0.13 -0.9,0.56 -0.49,0.77 1.37,0.7 2.58,1.39 4.21,1.74 1.23,0.27 2.52,0.36 3.89,0.14 2.86,-0.46 5.97,-2.91 7.75,-4.88 0.54,-0.61 0.2,-1.39 -0.53,-1.5z"/>
   <path class="fil2" d="M85.25 69.2c0.68,-0.53 1.74,-1.11 1.85,-2.25 0.05,-0.5 -0.03,-1.04 -0.16,-1.54 -0.37,-1.44 -1.1,-2.78 -1.8,-4.02 -0.78,-1.39 -1.65,-2.72 -2.38,-4.14 -0.27,-0.54 -0.74,-1.31 -0.83,-1.93 -0.11,-0.72 0.63,-0.84 0.89,-0.24 0.46,1.01 1.15,1.95 1.73,2.87 0.67,1.05 1.34,2.1 1.97,3.19 1.07,1.86 2.38,4.09 2.29,6.37 -0.08,1.76 -1.21,2.84 -2.21,3.73 -1,0.91 -2.38,-1.23 -1.35,-2.04z"/>
   <path class="fil2" d="M62.1 68.9c0.73,-0.17 1.33,0.54 2.09,0.43 0.42,-0.06 0.78,-0.37 1.08,-0.78 0.7,-0.96 1.03,-2.49 1.29,-3.72 0.56,-2.63 0.7,-5.36 1.16,-8.01 0.14,-0.8 1.03,-0.65 0.92,0.17 -0.19,1.42 -0.2,2.87 -0.34,4.29 -0.16,1.68 -0.37,3.35 -0.73,4.99 -0.32,1.52 -0.83,2.99 -1.69,4.13 -0.47,0.63 -1.1,1.03 -1.73,1.2 -0.9,0.24 -2.48,0.12 -2.74,-1.26 -0.12,-0.66 0.17,-1.32 0.69,-1.44z"/>
   <path class="fil1" d="M56.88 49.86c-0.27,0.25 -0.54,0.53 -0.83,0.75 0.04,-0.07 0.09,-0.15 0.14,-0.23 0.33,-0.5 -0.4,-1 -0.81,-0.62 -0.09,0.08 -0.17,0.16 -0.26,0.23 0.1,-0.32 -0.25,-0.72 -0.57,-0.47 -0.24,0.2 -0.49,0.38 -0.75,0.54 0.07,-0.19 0.16,-0.38 0.26,-0.6 0.2,-0.42 -0.48,-0.85 -0.79,-0.5 -0.22,0.24 -0.49,0.5 -0.8,0.71 0.14,-0.25 0.31,-0.49 0.49,-0.72 0.35,-0.45 -0.4,-1.02 -0.79,-0.62 -0.25,0.25 -0.54,0.55 -0.87,0.79 0.15,-0.24 0.32,-0.47 0.47,-0.69 0.2,-0.3 -0.22,-0.72 -0.51,-0.51 -0.44,0.33 -0.9,0.71 -1.42,0.94 0.18,-0.42 0.45,-0.81 0.63,-1.22 0.11,-0.23 -0.17,-0.5 -0.4,-0.39 -0.64,0.32 -1.34,0.95 -2.07,1.17 0.15,-0.4 0.33,-0.78 0.51,-1.17 0.18,-0.36 -0.29,-0.78 -0.62,-0.51 -0.57,0.47 -1.38,1.4 -2.21,1.61 0.17,-0.53 0.52,-1 0.85,-1.45 0.29,-0.4 -0.28,-0.99 -0.65,-0.62 -0.31,0.31 -0.63,0.72 -1.01,0.99 0,-0.01 0.01,-0.01 0.01,-0.01 0.18,-0.27 -0.16,-0.63 -0.42,-0.41 -0.32,0.26 -0.6,0.57 -0.75,0.96 -0.09,0.24 0.04,0.58 0.33,0.59 0.23,0.01 0.45,-0.02 0.64,-0.08 -0.05,0.18 -0.08,0.36 -0.1,0.55 -0.02,0.22 0.17,0.45 0.38,0.5 0.73,0.15 1.36,-0.11 1.92,-0.53 -0.07,0.28 0.12,0.54 0.41,0.58 0.64,0.09 1.16,-0.15 1.65,-0.49 -0.07,0.13 -0.13,0.26 -0.17,0.42 -0.08,0.25 0.08,0.63 0.4,0.61 0.22,-0.01 0.42,-0.04 0.6,-0.09 -0.11,0.36 0.16,0.69 0.54,0.71 0.24,0.01 0.46,-0.02 0.68,-0.08 -0.01,0.03 -0.02,0.05 -0.03,0.08 -0.08,0.4 0.3,0.67 0.64,0.66 0.38,-0.02 0.71,-0.13 1.01,-0.31 0,0.01 0,0.02 0,0.03 0.02,0.33 0.37,0.61 0.7,0.48 0.13,-0.05 0.26,-0.11 0.38,-0.17 0,0.01 0,0.02 0,0.04 0.03,0.4 0.43,0.6 0.77,0.45 0.05,0.27 0.35,0.46 0.63,0.45 0.38,-0.01 0.71,-0.13 1.01,-0.31 0,0.02 0,0.03 0,0.05 0.01,0.47 0.65,0.69 0.94,0.33 0.11,-0.12 0.22,-0.24 0.32,-0.36 0.18,-0.22 0.07,-0.51 -0.13,-0.65 0.09,-0.31 0.24,-0.62 0.39,-0.9 0.21,-0.42 -0.42,-0.81 -0.74,-0.51z"/>
   <path class="fil2" d="M43.91 44.78c-0.07,-0.07 -0.17,-0.12 -0.28,-0.12 -1.46,-0.04 -2.8,0.38 -4.22,0.63 -0.01,0 -0.01,0 -0.02,0 -0.02,-0.02 -0.04,-0.03 -0.06,-0.05 -0.09,-0.08 -0.24,0.03 -0.16,0.14 0.42,0.6 0.77,1.21 1.27,1.77 0.47,0.52 0.97,1.03 1.48,1.51 0.4,0.38 0.97,-0.3 0.55,-0.65 -0.58,-0.49 -1.13,-1.01 -1.67,-1.55 -0.37,-0.37 -0.8,-0.67 -1.21,-1 1.2,0.02 2.48,-0.18 3.65,0.07 0.02,0.98 -0.02,1.81 -0.42,2.78 -0.05,0.11 0.08,0.25 0.18,0.16 0.72,-0.6 1.17,-1.72 1.12,-2.71 0.94,0.39 1.95,0.63 2.91,0.92 1.25,0.38 2.51,0.72 3.77,1.08 1.26,0.35 2.52,0.72 3.79,1.08 0.7,0.2 1.41,0.4 2.12,0.6 0.38,0.11 0.79,0.25 1.2,0.32 0.01,0.25 0.13,0.46 0.16,0.71 0.04,0.33 -0.05,0.68 -0.15,0.99 -0.12,0.35 -0.3,0.69 -0.57,0.93 -0.07,0.07 -0.15,0.11 -0.23,0.15 -0.05,-0.04 -0.11,-0.07 -0.18,-0.09 -4.2,-1.2 -8.35,-2.55 -12.6,-3.58 -0.31,-0.08 -0.47,0.42 -0.17,0.52 4.12,1.47 8.3,2.75 12.49,4.04 0.12,0.04 0.23,0.03 0.32,-0.01 0.89,0.08 1.55,-0.84 1.84,-1.64 0.19,-0.55 0.35,-1.59 -0.05,-2.14 0.06,-0.09 0.06,-0.2 -0.05,-0.29 -0.85,-0.68 -2.26,-0.89 -3.29,-1.21 -1.35,-0.42 -2.71,-0.83 -4.07,-1.24 -1.27,-0.39 -2.54,-0.81 -3.82,-1.18 -1.18,-0.34 -2.4,-0.81 -3.63,-0.94z"/>
   <path class="fil1" d="M49.14 31.84c-0.14,-0.34 -0.31,-0.69 -0.43,-1.04 0.06,0.07 0.11,0.14 0.17,0.21 0.37,0.49 1.07,-0.04 0.86,-0.55 -0.05,-0.11 -0.09,-0.22 -0.13,-0.32 0.27,0.2 0.76,0 0.63,-0.39 -0.1,-0.29 -0.19,-0.58 -0.25,-0.88 0.15,0.13 0.3,0.28 0.47,0.44 0.34,0.34 0.96,-0.16 0.74,-0.57 -0.16,-0.29 -0.3,-0.63 -0.4,-0.99 0.19,0.22 0.36,0.45 0.51,0.7 0.31,0.48 1.1,-0.03 0.85,-0.54 -0.15,-0.32 -0.34,-0.69 -0.45,-1.08 0.18,0.22 0.34,0.46 0.5,0.68 0.21,0.28 0.75,0.03 0.64,-0.32 -0.16,-0.52 -0.37,-1.08 -0.4,-1.64 0.33,0.3 0.61,0.69 0.93,1 0.19,0.17 0.53,0.01 0.5,-0.25 -0.08,-0.71 -0.44,-1.58 -0.4,-2.35 0.32,0.28 0.62,0.58 0.92,0.88 0.29,0.28 0.84,-0.01 0.7,-0.41 -0.25,-0.7 -0.86,-1.78 -0.78,-2.62 0.45,0.33 0.77,0.82 1.08,1.28 0.28,0.41 1.03,0.07 0.8,-0.4 -0.19,-0.4 -0.46,-0.83 -0.59,-1.28 0,0 0.01,0 0.01,0 0.19,0.26 0.64,0.07 0.53,-0.25 -0.15,-0.39 -0.34,-0.76 -0.66,-1.03 -0.19,-0.17 -0.56,-0.15 -0.67,0.11 -0.08,0.22 -0.13,0.43 -0.14,0.64 -0.15,-0.11 -0.31,-0.21 -0.48,-0.29 -0.2,-0.09 -0.48,0.01 -0.59,0.19 -0.4,0.64 -0.36,1.32 -0.15,2 -0.24,-0.17 -0.56,-0.08 -0.69,0.18 -0.3,0.57 -0.25,1.15 -0.09,1.72 -0.1,-0.11 -0.21,-0.21 -0.33,-0.3 -0.22,-0.16 -0.63,-0.14 -0.72,0.17 -0.06,0.21 -0.1,0.41 -0.11,0.6 -0.31,-0.23 -0.7,-0.09 -0.85,0.27 -0.09,0.22 -0.14,0.44 -0.15,0.66 -0.03,-0.01 -0.05,-0.03 -0.08,-0.05 -0.34,-0.21 -0.72,0.06 -0.83,0.39 -0.11,0.35 -0.11,0.7 -0.04,1.05 -0.01,-0.01 -0.02,-0.01 -0.03,-0.01 -0.32,-0.1 -0.71,0.14 -0.69,0.49 0,0.15 0.02,0.29 0.04,0.42 -0.02,0 -0.03,-0.01 -0.05,-0.01 -0.38,-0.11 -0.71,0.2 -0.68,0.57 -0.27,-0.04 -0.55,0.18 -0.64,0.44 -0.11,0.37 -0.11,0.72 -0.04,1.06 -0.01,-0.01 -0.03,-0.02 -0.05,-0.02 -0.44,-0.15 -0.87,0.38 -0.63,0.78 0.09,0.14 0.16,0.28 0.24,0.42 0.15,0.24 0.46,0.24 0.65,0.1 0.27,0.18 0.5,0.43 0.72,0.66 0.33,0.34 0.9,-0.12 0.73,-0.52z"/>
   <path class="fil2" d="M58.36 18.71l0 -0.05c0.01,-0.07 0.03,-0.13 0.05,-0.2 0.05,-0.65 0.07,-1.31 0.14,-1.98 0,-0.01 -0.01,-0.01 -0.01,-0.01 0.03,-0.02 0.05,-0.03 0.07,-0.05 0.1,-0.07 0.03,-0.24 -0.09,-0.2 -0.7,0.26 -1.38,0.43 -2.05,0.77 -0.63,0.32 -1.24,0.66 -1.84,1.03 -0.47,0.28 0.03,1.01 0.48,0.7 0.63,-0.43 1.27,-0.83 1.93,-1.2 0.46,-0.27 0.86,-0.6 1.29,-0.9 -0.34,1.15 -0.48,2.43 -1.03,3.5 -0.95,-0.25 -1.74,-0.5 -2.57,-1.15 -0.09,-0.07 -0.26,0.02 -0.2,0.14 0.39,0.85 1.35,1.58 2.32,1.8 -0.63,0.79 -1.12,1.71 -1.65,2.55 -0.7,1.11 -1.36,2.24 -2.04,3.36 -0.68,1.13 -1.36,2.25 -2.04,3.37 -0.38,0.63 -0.76,1.26 -1.14,1.89 -0.21,0.34 -0.45,0.7 -0.62,1.07 -0.24,-0.06 -0.48,0.01 -0.73,-0.03 -0.33,-0.05 -0.64,-0.23 -0.92,-0.41 -0.3,-0.2 -0.58,-0.47 -0.75,-0.79 -0.04,-0.09 -0.06,-0.17 -0.08,-0.26 0.05,-0.04 0.1,-0.08 0.14,-0.15 2.26,-3.74 4.66,-7.39 6.77,-11.21 0.15,-0.28 -0.28,-0.57 -0.46,-0.31 -2.51,3.59 -4.84,7.29 -7.19,10.99 -0.06,0.11 -0.08,0.21 -0.07,0.31 -0.31,0.84 0.4,1.72 1.1,2.21 0.47,0.33 1.44,0.76 2.07,0.52 0.08,0.07 0.19,0.1 0.29,0.03 0.89,-0.65 1.46,-1.95 2.04,-2.86 0.76,-1.2 1.51,-2.4 2.27,-3.6 0.72,-1.13 1.45,-2.24 2.15,-3.38 0.63,-1.05 1.4,-2.1 1.85,-3.25 0.09,-0.05 0.17,-0.13 0.2,-0.24 0.19,-0.61 0.28,-1.23 0.34,-1.85 -0.01,-0.05 -0.02,-0.11 -0.02,-0.16z"/>
  </g>
 </g>
</svg>
