<?xml version="1.0" encoding="UTF-8"?>
<!DOCTYPE svg PUBLIC "-//W3C//DTD SVG 1.1//EN" "http://www.w3.org/Graphics/SVG/1.1/DTD/svg11.dtd">
<!-- Creator: CorelDRAW 2017 -->
<svg xmlns="http://www.w3.org/2000/svg" xml:space="preserve" width="266px" height="256px" version="1.1" style="shape-rendering:geometricPrecision; text-rendering:geometricPrecision; image-rendering:optimizeQuality; fill-rule:evenodd; clip-rule:evenodd"
viewBox="0 0 43.83 42.14"
 xmlns:xlink="http://www.w3.org/1999/xlink">
 <defs>
  <style type="text/css">
   <![CDATA[
    .fil2 {fill:#F79740}
    .fil3 {fill:#80C1BF}
    .fil1 {fill:#5B5F61}
    .fil0 {fill:#67B7B5}
   ]]>
  </style>
 </defs>
 <g id="Layer_x0020_1">
  <metadata id="CorelCorpID_0Corel-Layer"/>
  <g id="_1952294655552">
   <path class="fil0" d="M0.33 40.52c0.85,0.08 1.75,0.08 2.61,-0.01 -0.35,-0.32 -0.68,-0.63 -1.21,-0.87 -0.29,-0.13 -0.12,-0.47 0.28,-0.37 1.17,0.27 2.29,0.59 3.45,0.87 0.9,0.22 1.83,0.44 2.8,0.53 -0.39,-0.38 -0.76,-0.78 -1.3,-1.09 -0.29,-0.17 -0.04,-0.54 0.42,-0.45 2.16,0.41 4.16,1.13 6.37,1.44 -0.9,-0.45 -1.88,-0.85 -2.82,-1.28 -0.44,-0.2 -0.03,-0.62 0.5,-0.5 3.04,0.71 5.98,1.6 9.14,2.12 -1.28,-0.49 -2.59,-0.96 -3.95,-1.37 -0.61,-0.19 -0.25,-0.74 0.43,-0.6 2.35,0.51 4.61,1.16 6.97,1.65 -0.9,-0.29 -1.82,-0.57 -2.74,-0.85 -0.63,-0.19 -0.21,-0.77 0.46,-0.6 2.86,0.73 5.69,1.58 8.71,2.08 -1.92,-0.85 -4.15,-1.51 -6.49,-1.8 -0.65,-0.08 -0.43,-0.64 0.22,-0.58 2.54,0.25 4.88,0.82 7.25,1.36 -1.18,-0.47 -2.4,-0.91 -3.67,-1.3 -0.55,-0.16 -0.01,-0.61 0.53,-0.46 1.35,0.37 2.63,0.82 3.96,1.21 1.05,0.31 2.19,0.62 3.37,0.74 -0.2,-0.16 -0.42,-0.32 -0.66,-0.46 -0.33,-0.19 0.14,-0.51 0.53,-0.37 0.83,0.31 1.71,0.61 2.64,0.79 -0.01,-0.01 -0.03,-0.02 -0.04,-0.03 -0.17,-0.16 0.05,-0.31 0.29,-0.38 0.29,-0.09 0.53,0.06 0.51,0.2 0.06,0.02 0.12,0.03 0.18,0.05 0.42,0.11 0.79,0.26 1.16,0.41 0.28,0.12 0.06,0.4 -0.26,0.4 -1.12,0.01 -2.17,-0.18 -3.15,-0.45 0.13,0.15 0.04,0.38 -0.32,0.39 -0.72,0.02 -1.41,-0.05 -2.08,-0.17 0.09,0.05 0.18,0.09 0.26,0.13 0.47,0.22 -0.01,0.58 -0.53,0.49 -0.98,-0.17 -1.93,-0.38 -2.88,-0.59 0.55,0.24 1.07,0.5 1.56,0.77 0.36,0.19 0.21,0.63 -0.39,0.57 -1.47,-0.14 -2.87,-0.38 -4.25,-0.67 -0.01,0.19 -0.35,0.38 -0.71,0.35 -1.6,-0.15 -3.12,-0.44 -4.61,-0.77 0.21,0.08 0.42,0.17 0.63,0.25 0.44,0.18 0.15,0.63 -0.4,0.58 -3,-0.26 -5.76,-0.94 -8.5,-1.65 0.37,0.19 0.73,0.39 1.06,0.61 0.33,0.22 -0.15,0.48 -0.53,0.46 -2.36,-0.1 -4.4,-0.78 -6.52,-1.32 0.31,0.28 0.6,0.57 0.94,0.84 0.21,0.16 -0.03,0.41 -0.37,0.41 -2.16,0 -3.97,-0.66 -5.85,-1.19 0.18,0.15 0.36,0.31 0.55,0.48 0.12,0.1 0.07,0.3 -0.18,0.34 -1.12,0.16 -2.33,0.17 -3.44,0.02 -0.38,-0.05 -0.33,-0.4 0.07,-0.36z"/>
   <path class="fil1" d="M18.55 9.58c-0.37,-1.12 -0.9,-2.16 -1.75,-2.99 -0.84,-0.82 -1.89,-1.41 -3,-1.79 -2.26,-0.76 -4.86,-0.73 -7.06,0.2 -2.63,1.12 -4.52,3.74 -5,6.53 -0.44,2.56 0.18,5.29 1.81,7.34 1.7,2.14 4.31,3.23 7.03,3.01 1.81,-0.15 3.57,-0.69 4.94,-1.91 1.25,-1.1 2.01,-2.53 2.58,-4.05 -2.12,0.23 -4.46,-0.62 -5.33,-2.67 -0.17,-0.07 -0.18,-0.32 -0.04,-0.44 0.41,-0.31 1.08,-0.39 1.57,-0.56 0.49,-0.17 0.98,-0.35 1.44,-0.57 1.07,-0.51 1.96,-1.23 2.77,-2.07 0.02,-0.02 0.03,-0.02 0.04,-0.03zm0.49 0.1c0,0.01 0,0.03 0,0.04 0.05,0.1 0.06,0.23 -0.01,0.34 -0.33,0.51 -0.83,0.87 -1.31,1.21 -0.47,0.35 -0.97,0.65 -1.5,0.9 -0.56,0.28 -1.14,0.5 -1.73,0.69 -0.36,0.12 -0.79,0.3 -1.2,0.38 1.18,1.68 3.18,2.19 5.16,1.74 0.3,-0.37 1.01,0 0.84,0.54 -0.54,1.77 -1.47,3.51 -2.81,4.81 -1.29,1.27 -2.96,2.04 -4.74,2.31 -2.77,0.41 -5.61,-0.13 -7.72,-2.06 -1.99,-1.81 -3.12,-4.41 -3.19,-7.09 -0.06,-2.84 1.1,-5.63 3.19,-7.56 0.79,-0.72 1.7,-1.28 2.68,-1.67 0.01,0 0.01,0 0.01,0 1.2,-0.92 2.23,-2.07 2.45,-3.63 0.04,-0.29 0.49,-0.28 0.46,0.02 -0.09,0.88 -0.41,1.77 -0.9,2.55 0.28,-0.24 0.54,-0.49 0.8,-0.76 0.63,-0.67 1.22,-1.45 1.55,-2.32 0.09,-0.22 0.46,-0.11 0.4,0.12 -0.27,0.95 -0.77,1.79 -1.43,2.52 -0.28,0.31 -0.57,0.61 -0.88,0.88 1.16,-0.14 2.34,-0.08 3.48,0.15 2.95,0.62 5.99,2.68 6.4,5.89z"/>
   <path class="fil1" d="M11.84 10.14c-0.2,-0.44 -0.75,-0.93 -1.23,-1.01 -0.2,-0.03 -0.41,0.3 -0.22,0.43 0.37,0.25 0.59,0.65 0.88,0.97 0.27,0.3 0.73,-0.04 0.57,-0.39z"/>
   <path class="fil1" d="M14.52 8.4c-0.06,-0.07 -0.12,-0.14 -0.18,-0.21 -0.09,-0.11 -0.19,-0.2 -0.29,-0.29 -0.22,-0.2 -0.47,-0.36 -0.72,-0.5 -0.16,-0.1 -0.33,0.08 -0.28,0.24 0.14,0.47 0.5,0.79 0.78,1.17 0.31,0.42 1,-0.01 0.69,-0.41z"/>
   <path class="fil1" d="M17.88 24.79c-0.58,-1.37 -1.31,-2.65 -2.14,-3.88 -0.15,-0.24 -0.57,-0.02 -0.43,0.24 0.69,1.33 1.38,2.66 1.9,4.07 0.44,1.2 0.89,2.5 0.97,3.79 0,0.07 0.02,0.14 0.05,0.19 -1.09,0.17 -2.16,0.58 -3.22,0.88 -1.2,0.33 -2.4,0.52 -3.64,0.62 -0.09,-0.37 -0.25,-0.74 -0.33,-1.08 -0.16,-0.67 -0.27,-1.34 -0.39,-2.01 -0.25,-1.5 -0.45,-2.99 -0.81,-4.46 -0.08,-0.32 -0.63,-0.2 -0.56,0.12 0.3,1.39 0.45,2.81 0.63,4.22 0.09,0.68 0.19,1.36 0.31,2.03 0.06,0.33 0.14,0.65 0.22,0.98 0.07,0.32 0.13,0.72 0.35,0.98 0.12,0.14 0.35,0.18 0.51,0.09 1.25,0.03 2.5,-0.25 3.7,-0.57 0.61,-0.16 1.21,-0.35 1.8,-0.54 0.69,-0.23 1.38,-0.45 2.02,-0.8 0.14,-0.08 0.16,-0.27 0.08,-0.39 0.12,-0.09 0.2,-0.24 0.19,-0.42 -0.08,-1.4 -0.67,-2.79 -1.21,-4.06z"/>
   <path class="fil1" d="M7.98 38.38c-0.28,-0.36 -0.76,-0.8 -0.67,-1.4 0.04,-0.27 0.16,-0.54 0.29,-0.78 0.38,-0.7 0.93,-1.3 1.46,-1.85 0.58,-0.62 1.21,-1.19 1.77,-1.83 0.21,-0.24 0.56,-0.58 0.69,-0.89 0.14,-0.36 -0.22,-0.52 -0.44,-0.25 -0.37,0.47 -0.84,0.87 -1.27,1.27 -0.48,0.45 -0.96,0.91 -1.43,1.39 -0.81,0.83 -1.77,1.81 -2.02,3 -0.2,0.92 0.25,1.63 0.65,2.23 0.4,0.6 1.39,-0.33 0.97,-0.89z"/>
   <path class="fil1" d="M23.14 35c-0.4,0.01 -0.63,0.43 -1.04,0.47 -0.22,0.03 -0.44,-0.09 -0.64,-0.25 -0.47,-0.39 -0.81,-1.11 -1.08,-1.7 -0.57,-1.24 -0.93,-2.58 -1.46,-3.84 -0.16,-0.39 -0.6,-0.2 -0.46,0.19 0.25,0.69 0.42,1.41 0.64,2.1 0.27,0.82 0.56,1.62 0.92,2.4 0.33,0.71 0.75,1.38 1.32,1.84 0.31,0.26 0.68,0.38 1.03,0.39 0.49,0.01 1.3,-0.24 1.28,-0.96 -0.01,-0.35 -0.23,-0.64 -0.51,-0.64z"/>
   <path class="fil2" d="M13.42 27.51c0.3,0.12 0.62,0.23 0.93,0.34 -0.31,-0.12 -0.62,-0.24 -0.93,-0.34zm-2.3 0.93c-0.05,-0.03 -0.1,-0.06 -0.15,-0.09 -0.24,-0.16 -0.2,-0.57 0.07,-0.67 0.25,-0.1 0.51,-0.14 0.77,-0.15 -0.26,-0.17 -0.5,-0.34 -0.73,-0.55 -0.22,-0.2 -0.1,-0.66 0.23,-0.63 0.07,0 0.13,0.01 0.2,0.01 -0.2,-0.19 -0.37,-0.4 -0.5,-0.65 -0.12,-0.24 0.04,-0.5 0.28,-0.54 -0.1,-0.06 -0.19,-0.12 -0.28,-0.18 -0.31,-0.21 -0.21,-0.66 0.16,-0.69 0.08,-0.01 0.16,-0.01 0.24,-0.02 -0.12,-0.19 -0.2,-0.41 -0.22,-0.66 -0.01,-0.19 0.11,-0.37 0.32,-0.35 0.06,0 0.12,0.01 0.18,0.02 -0.11,-0.14 -0.1,-0.39 0.09,-0.46 0.44,-0.17 0.89,-0.2 1.34,-0.16 -0.07,-0.12 0.01,-0.3 0.14,-0.37 0.81,-0.41 1.75,-0.33 2.6,-0.07 0.28,0.08 0.19,0.52 -0.1,0.45 -0.59,-0.13 -1.2,-0.22 -1.77,-0.08 0.65,0.31 1.37,0.49 2.04,0.76 0.32,0.12 0.1,0.55 -0.19,0.52 -0.61,-0.09 -1.21,-0.27 -1.8,-0.43 -0.4,-0.1 -0.84,-0.21 -1.27,-0.22 1.03,0.48 2.15,0.72 3.2,1.14 0.32,0.13 0.18,0.68 -0.17,0.59 -0.02,-0.01 -0.05,-0.02 -0.07,-0.03l0 0.01c0,0 0,-0.01 0,0 -1.27,-0.36 -2.52,-0.85 -3.84,-1.03 0.09,0.16 0.22,0.3 0.38,0.42 1.38,0.2 2.69,0.93 4,1.36 0.07,0.02 0.14,0.04 0.2,0.06 0.44,0.14 0.31,0.83 -0.15,0.71 -0.17,-0.05 -0.33,-0.1 -0.5,-0.16 0.31,0.14 0.61,0.29 0.91,0.44 0.43,0.22 0.21,0.87 -0.27,0.72 -1.13,-0.35 -2.24,-0.76 -3.31,-1.27 -0.3,-0.08 -0.6,-0.14 -0.91,-0.18 0.47,0.35 1.07,0.57 1.59,0.77 0.85,0.33 1.77,0.58 2.55,1.09 0.36,0.23 0.17,0.7 -0.16,0.75 0.31,0.27 -0.03,0.78 -0.43,0.7 -0.73,-0.15 -1.43,-0.43 -2.13,-0.66 -0.37,-0.12 -0.79,-0.26 -1.21,-0.33 0.75,0.4 1.53,0.73 2.35,1 0.44,0.14 0.2,0.81 -0.23,0.75 -0.67,-0.09 -1.33,-0.26 -1.99,-0.45 0.12,0.11 0.24,0.22 0.36,0.32 0.31,0.28 -0.06,0.71 -0.4,0.62 -0.28,-0.08 -0.55,-0.18 -0.83,-0.26 -0.25,-0.08 -0.26,-0.38 -0.14,-0.55 -0.23,-0.2 -0.47,-0.41 -0.7,-0.61 -0.25,-0.22 -0.16,-0.78 0.25,-0.71z"/>
   <path class="fil1" d="M16.16 21.26c1.2,-0.2 2.44,-0.38 3.59,-1.01 0.58,-0.32 1.06,-0.8 1.5,-1.35 0.31,-0.38 0.56,-0.82 0.85,-1.22 0.28,-0.39 0.62,-0.69 0.71,-1.19 0.08,-0.42 -0.24,-0.63 -0.55,-0.58 -0.72,0.12 -1.27,1.55 -1.66,2.19 -0.33,0.53 -0.75,1.05 -1.23,1.39 -1,0.72 -2.17,0.87 -3.25,1.25 -0.25,0.09 -0.22,0.56 0.04,0.52z"/>
   <path class="fil1" d="M1.46 25.17c0.12,-0.11 0.3,-0.18 0.48,-0.2 0.13,-0.01 0.24,0.01 0.35,0.04 0.12,0.04 0.21,0.1 0.28,0.18 0.02,-0.03 0.05,-0.06 0.07,-0.1 0.1,0.03 0.2,0.05 0.29,0.07 0.15,0.03 0.3,0.06 0.45,0.09 0.35,0.06 0.7,0.09 1.05,0.12 0.51,0.03 1.03,0.04 1.54,-0.07 0.65,-0.13 1.13,-0.55 1.56,-0.93 0.61,-0.54 1.14,-1.17 1.69,-1.75 0.19,-0.21 0.57,-0.01 0.44,0.2 -0.42,0.71 -0.77,1.36 -1.4,1.99 -0.48,0.48 -1.04,0.88 -1.72,1.18 -1.42,0.61 -3.53,0.39 -4.89,0.01 -0.42,-0.12 -0.49,-0.57 -0.19,-0.83z"/>
   <g>
    <path class="fil3" d="M30.41 7.44c-0.47,-0.88 -1.1,-1.67 -1.81,-2.39 -0.03,0.05 -0.08,0.09 -0.14,0.11 0.02,0.04 0.04,0.08 0.06,0.13 0.05,0.11 0.01,0.27 -0.09,0.34 0.67,0.58 1.28,1.26 1.98,1.81zm1.51 -0.27c-0.36,-0.67 -0.82,-1.29 -1.32,-1.87 -0.3,-0.28 -0.6,-0.57 -0.9,-0.86 0.07,0.15 0.13,0.31 0.17,0.43 0.06,0.15 -0.05,0.26 -0.18,0.29 0.73,0.69 1.45,1.39 2.23,2.01zm-3.08 -2.82c-0.04,-0.03 -0.08,-0.05 -0.12,-0.07 0.17,0.16 0.35,0.31 0.53,0.47 -0.12,-0.15 -0.25,-0.29 -0.41,-0.4zm-2.28 -1.28c0.05,-0.17 0.26,-0.24 0.4,-0.11 0.02,0.02 0.05,0.05 0.07,0.07 0.06,-0.08 0.18,-0.12 0.27,-0.02 0.08,0.09 0.15,0.19 0.2,0.29 0.03,0.01 0.06,0.02 0.09,0.04 0.12,0.08 0.19,0.18 0.27,0.29 0.04,0.01 0.09,0.03 0.13,0.06 0.04,0.03 0.08,0.07 0.13,0.1 0.2,-0.16 0.57,-0.09 0.81,0.02 0.04,0.02 0.08,0.04 0.12,0.06 0.01,0 0.01,-0.01 0.02,-0.01 -0.4,-0.37 -0.82,-0.73 -1.26,-1.06 -0.28,-0.21 0.05,-0.63 0.34,-0.44 0.85,0.58 1.65,1.26 2.37,2 0.09,0.08 0.18,0.16 0.27,0.24 0.41,0.36 0.81,0.72 1.24,1.06 -0.16,-0.22 -0.32,-0.44 -0.49,-0.65 -0.86,-0.71 -1.68,-1.48 -2.51,-2.21 -0.25,-0.21 0.01,-0.61 0.31,-0.48 0.91,0.41 1.65,1.14 2.3,1.87 0.05,0.05 0.1,0.11 0.15,0.16 0.06,0.04 0.11,0.09 0.16,0.13 0.41,0.31 0.82,0.62 1.24,0.91 -0.21,-0.25 -0.44,-0.5 -0.67,-0.73 -0.72,-0.55 -1.38,-1.18 -2.01,-1.76 -0.29,-0.28 0.13,-0.69 0.44,-0.44 0.57,0.45 1.14,0.93 1.68,1.44 0.16,0.12 0.32,0.24 0.48,0.36 0.33,0.24 0.67,0.47 1.03,0.67 -0.69,-0.6 -1.41,-1.16 -2.11,-1.75 -0.29,-0.24 0.08,-0.64 0.38,-0.49 0.7,0.36 1.35,0.83 2.02,1.24 0.35,0.22 0.73,0.44 1.12,0.6 -0.61,-0.5 -1.33,-0.9 -1.98,-1.35 -0.28,-0.19 0.04,-0.64 0.33,-0.48 0.71,0.39 1.46,0.84 2.24,1.15 -0.43,-0.31 -0.87,-0.63 -1.29,-0.96 -0.23,-0.18 -0.05,-0.56 0.24,-0.46 0.62,0.21 1.23,0.54 1.85,0.79 -0.35,-0.18 -0.71,-0.34 -1.06,-0.49 -0.29,-0.13 -0.18,-0.58 0.14,-0.48 0.35,0.1 0.7,0.23 1.05,0.35 -0.22,-0.14 -0.11,-0.53 0.17,-0.44 0.67,0.21 1.33,0.43 1.99,0.63 -0.01,-0.08 0.05,-0.17 0.15,-0.15 0.26,0.03 0.46,0.12 0.68,0.25 0.03,0.02 0.04,0.04 0.05,0.07 0.07,0.04 0.14,0.09 0.21,0.13 0.15,0.09 0.08,0.37 -0.11,0.34 -0.36,-0.06 -0.72,-0.14 -1.07,-0.23 0.02,0.14 -0.09,0.3 -0.26,0.3 -0.19,0 -0.37,-0.02 -0.55,-0.05 0.07,0.05 0.14,0.1 0.21,0.15 0.2,0.15 0.13,0.47 -0.13,0.46 -0.52,0 -1,-0.13 -1.48,-0.3 0.24,0.16 0.47,0.33 0.7,0.5 0.23,0.17 0.07,0.52 -0.2,0.49 -0.31,-0.03 -0.62,-0.09 -0.92,-0.18 0.08,0.09 0.15,0.17 0.23,0.26 0.16,0.2 0.07,0.53 -0.22,0.53 -0.43,-0.01 -0.82,-0.1 -1.21,-0.24 0.17,0.15 0.34,0.31 0.5,0.47 0.2,0.19 0.02,0.59 -0.26,0.54 -0.41,-0.07 -0.8,-0.19 -1.17,-0.35 0.14,0.19 0.28,0.38 0.41,0.57 0.19,0.27 -0.06,0.69 -0.39,0.53 -0.39,-0.18 -0.75,-0.38 -1.11,-0.6 0.1,0.15 0.2,0.3 0.29,0.46 0.17,0.28 -0.1,0.72 -0.44,0.53 -0.2,-0.12 -0.39,-0.24 -0.58,-0.36 0.21,0.36 0.38,0.75 0.5,1.15 0.08,0.26 -0.2,0.63 -0.49,0.44 -0.47,-0.3 -0.91,-0.64 -1.34,-1.01 0.12,0.25 0.23,0.5 0.31,0.76 0.1,0.29 -0.2,0.58 -0.49,0.44 -0.38,-0.18 -0.73,-0.42 -1.05,-0.69 0.09,0.21 0.17,0.42 0.23,0.64 0.08,0.29 -0.23,0.6 -0.52,0.43 -0.21,-0.11 -0.4,-0.24 -0.58,-0.38 0.08,0.16 0.17,0.33 0.24,0.51 0.13,0.34 -0.32,0.62 -0.58,0.39 -0.06,-0.05 -0.12,-0.09 -0.18,-0.12 -0.01,0.04 -0.02,0.07 -0.04,0.11 -0.06,0.13 -0.24,0.3 -0.27,0.35 -0.22,0.39 -0.87,0.11 -0.64,-0.28 0.06,-0.1 0.12,-0.17 0.19,-0.25 0.12,-0.13 0.04,-0.29 -0.02,-0.44 -0.11,-0.27 0.14,-0.49 0.38,-0.47 -0.22,-0.4 -0.45,-0.79 -0.57,-1.24 -0.09,-0.32 0.3,-0.66 0.58,-0.39 0.24,0.24 0.49,0.48 0.74,0.72 -0.38,-0.63 -0.87,-1.19 -1.32,-1.75 -0.13,-0.15 -0.08,-0.36 0.05,-0.47 -0.78,-0.5 -1.41,-1.31 -1.13,-2.29z"/>
    <path class="fil1" d="M30.6 8.5c1.45,-0.7 2.9,-1.41 4.33,-2.14 2.1,-1.08 4.17,-2.23 6.21,-3.43 -0.65,0.15 -1.29,0.29 -1.93,0.44 -1.26,0.31 -2.52,0.63 -3.78,0.96 -1.19,0.3 -2.39,0.63 -3.58,0.94 -0.62,0.16 -1.22,0.33 -1.84,0.48 -0.62,0.15 -1.23,0.29 -1.83,0.52 0.01,0.29 -0.07,0.59 -0.14,0.88 -0.12,0.49 -0.3,0.96 -0.47,1.43 -0.17,0.47 -0.39,0.92 -0.59,1.38 -0.06,0.12 -0.11,0.24 -0.15,0.36 1.21,-0.69 2.52,-1.22 3.77,-1.82zm0.83 1.79c1.58,-1.35 3.28,-2.53 5,-3.69 0.31,-0.21 0.61,-0.42 0.92,-0.63 -0.66,0.34 -1.31,0.69 -1.97,1.03 -1.38,0.71 -2.78,1.4 -4.2,2.05 -0.14,0.07 -0.28,0.13 -0.42,0.2 0.21,0.36 0.43,0.71 0.67,1.04zm-6.38 -7.45c0.18,0.14 0.33,0.33 0.49,0.5 0.25,0.26 0.5,0.52 0.75,0.78 0.52,0.54 1.07,1.06 1.63,1.55 1.22,-0.38 2.48,-0.56 3.72,-0.87 1.22,-0.31 2.44,-0.64 3.65,-0.98 1.21,-0.34 2.42,-0.67 3.63,-0.97 0.75,-0.19 1.5,-0.39 2.26,-0.55 -5.38,-0.11 -10.75,0.53 -16.13,0.54zm1.27 7.44c0.14,-0.47 0.29,-0.94 0.45,-1.41 0.16,-0.48 0.35,-0.95 0.5,-1.43 0.12,-0.36 0.19,-0.76 0.33,-1.12 -0.02,-0.01 -0.04,-0.03 -0.06,-0.06 -0.47,-0.6 -0.95,-1.2 -1.46,-1.77 -0.25,-0.28 -0.49,-0.55 -0.74,-0.83 -0.22,-0.25 -0.5,-0.49 -0.65,-0.8 0,-0.01 -0.01,-0.02 -0.01,-0.02 -0.14,-0.01 -0.12,-0.21 0.01,-0.22 6.26,-0.37 12.51,-1.3 18.8,-1 0.42,0.02 0.44,0.55 0.13,0.74 -0.91,0.57 -1.83,1.12 -2.75,1.66 -0.43,0.4 -0.94,0.73 -1.43,1.07 -0.85,0.57 -1.65,1.19 -2.48,1.78 -0.89,0.64 -1.79,1.26 -2.66,1.92 -0.88,0.66 -1.7,1.4 -2.5,2.15 -0.24,0.21 -0.56,0.05 -0.63,-0.17 -0.39,-0.29 -0.71,-0.73 -1,-1.08 -0.03,-0.05 -0.06,-0.09 -0.07,-0.14 -1.15,0.52 -2.32,1.03 -3.52,1.36 -0.05,0.07 -0.11,0.12 -0.2,0.13 -0.34,0.06 -0.09,-0.65 -0.06,-0.76z"/>
   </g>
  </g>
 </g>
</svg>
